<svg width="184" height="162" viewBox="0 0 184 162" fill="none" xmlns="http://www.w3.org/2000/svg">
<path d="M183.03 146.454H0.969569C0.774145 146.454 0.615723 146.295 0.615723 146.098C0.615723 145.902 0.774145 145.743 0.969569 145.743H183.03C183.226 145.743 183.384 145.902 183.384 146.098C183.384 146.295 183.226 146.454 183.03 146.454Z" fill="#D1D3D4"/>
<rect x="127.144" y="84.1406" width="40.6428" height="70.0579" fill="white"/>
<path fill-rule="evenodd" clip-rule="evenodd" d="M127.144 154.554H167.787C167.883 154.554 167.975 154.514 168.042 154.445C168.109 154.375 168.144 154.281 168.14 154.184V84.1404C168.14 83.9442 167.982 83.7852 167.787 83.7852H127.144C126.948 83.7852 126.79 83.9442 126.79 84.1404V154.198C126.79 154.395 126.948 154.554 127.144 154.554ZM167.433 153.843H127.498V84.4957H167.433V153.843Z" fill="#231F20"/>
<rect x="15.1729" y="84.1406" width="40.6428" height="70.0579" fill="white"/>
<path fill-rule="evenodd" clip-rule="evenodd" d="M15.1727 154.554H55.8155C55.9118 154.554 56.004 154.514 56.0708 154.445C56.1376 154.375 56.1732 154.281 56.1693 154.184V84.1404C56.1693 83.9442 56.0109 83.7852 55.8155 83.7852H15.1727C14.9773 83.7852 14.8188 83.9442 14.8188 84.1404V154.198C14.8188 154.395 14.9773 154.554 15.1727 154.554ZM55.4616 153.843H15.5265V84.4957H55.4616V153.843Z" fill="#231F20"/>
<path d="M134.709 63.8262L142.756 80.0475H120.994L134.709 63.8262Z" fill="#231F20"/>
<path fill-rule="evenodd" clip-rule="evenodd" d="M121.015 80.4035H142.755C142.89 80.4165 143.02 80.35 143.088 80.2329C143.149 80.1274 143.149 79.9974 143.088 79.8919L135.049 63.6706C134.995 63.5641 134.891 63.492 134.773 63.4787C134.655 63.46 134.536 63.5061 134.461 63.5995L120.746 79.8208C120.655 79.9239 120.632 80.0717 120.69 80.1974C120.75 80.3233 120.876 80.4034 121.015 80.4035ZM142.182 79.6929H121.758L134.631 64.4735L142.182 79.6929Z" fill="#231F20"/>
<path d="M72.9062 80.0482H124.716L143.513 52.3945H94.6041L72.9062 80.0482Z" fill="#231F20"/>
<path fill-rule="evenodd" clip-rule="evenodd" d="M72.8923 80.4033H124.717C124.836 80.406 124.948 80.3469 125.014 80.247L143.81 52.6004C143.881 52.4874 143.881 52.3439 143.81 52.2309C143.747 52.1161 143.629 52.0431 143.499 52.0391H94.5901C94.4822 52.0385 94.3802 52.0884 94.3141 52.1741L72.6163 79.8278C72.5323 79.9344 72.5164 80.0797 72.5751 80.2021C72.6338 80.3246 72.7569 80.4027 72.8923 80.4033ZM124.554 79.6928H73.6353L94.7741 52.7496H142.869L124.554 79.6928Z" fill="#231F20"/>
<path d="M96.1611 55.0801L80.6768 75.2235H119.126L133.676 55.0801H96.1611Z" fill="white"/>
<path fill-rule="evenodd" clip-rule="evenodd" d="M80.6768 75.5787H119.126C119.234 75.5737 119.333 75.5185 119.395 75.4294L133.945 55.286C134.015 55.173 134.015 55.0296 133.945 54.9166C133.887 54.7972 133.766 54.7224 133.633 54.7247H96.1257C96.0178 54.7241 95.9158 54.774 95.8497 54.8597L80.3584 75.0031C80.2914 75.1196 80.2914 75.2632 80.3584 75.3797C80.4179 75.5017 80.5415 75.5789 80.6768 75.5787ZM118.906 74.8681H81.3987L96.338 55.421H132.982L118.906 74.8681Z" fill="#231F20"/>
<path d="M107.173 71.557C107.022 71.5559 106.889 71.4589 106.84 71.3154C104.979 65.8088 102.389 59.7694 101.448 59.6272C100.323 59.6272 93.1041 65.617 86.6924 71.4717C86.5989 71.558 86.4666 71.5877 86.3454 71.5495C86.2241 71.5113 86.1324 71.4111 86.1047 71.2866C86.0771 71.1621 86.1176 71.0322 86.2112 70.9459C88.4333 68.9209 99.4804 58.9238 101.512 58.9238H101.589C103.401 59.2009 106.607 68.3028 107.548 71.088C107.579 71.1775 107.573 71.2758 107.53 71.3603C107.487 71.4447 107.412 71.5081 107.322 71.5357C107.275 71.5557 107.224 71.5631 107.173 71.557Z" fill="#D1D3D4"/>
<path d="M118.722 72.2964C118.563 72.2955 118.424 72.1879 118.383 72.0336C117.137 67.5928 115.361 62.8536 114.526 62.6049C113.691 62.3562 109.813 65.8733 106.656 69.2554C106.521 69.3986 106.296 69.405 106.154 69.2696C106.011 69.1342 106.005 68.9084 106.14 68.7651C107.753 67.0386 113.132 61.4467 114.731 61.9299C116.33 62.413 118.623 70.2714 119.062 71.8772C119.117 72.0656 119.009 72.2628 118.821 72.3178L118.722 72.2964Z" fill="#D1D3D4"/>
<path fill-rule="evenodd" clip-rule="evenodd" d="M128.538 65.1266C128.538 65.6595 129.225 66.0787 130.095 66.0787C130.965 66.0787 131.652 65.6595 131.652 65.1266C131.652 64.5937 130.944 64.1816 130.095 64.1816C129.246 64.1816 128.538 64.5937 128.538 65.1266ZM128.68 65.1266C128.68 64.7074 129.345 64.3593 130.095 64.3593V64.3806C130.845 64.3806 131.475 64.7074 131.475 65.1266C131.475 65.5459 130.881 65.9011 130.095 65.9011C129.309 65.9011 128.68 65.5459 128.68 65.1266Z" fill="#A7A9AC"/>
<path d="M136.28 58.0212H133.138C133.093 58.0178 133.057 57.9816 133.053 57.936C133.053 57.8876 133.09 57.8473 133.138 57.8436H136.28C136.304 57.8435 136.327 57.8535 136.343 57.871C136.359 57.8886 136.367 57.9121 136.365 57.936C136.365 57.9831 136.327 58.0212 136.28 58.0212Z" fill="#A7A9AC"/>
<path d="M124.717 80.403C124.641 80.4037 124.567 80.3814 124.504 80.3391C124.349 80.2214 124.315 80.0015 124.426 79.8417L134.461 66.0149C134.517 65.9384 134.6 65.8871 134.693 65.8725C134.786 65.8578 134.881 65.8809 134.957 65.9367C135.112 66.0544 135.146 66.2743 135.035 66.4341L125 80.2893C124.927 80.3674 124.823 80.409 124.717 80.403Z" fill="white"/>
<path fill-rule="evenodd" clip-rule="evenodd" d="M105.616 58.6471C105.616 59.5105 106.313 60.2103 107.173 60.2103C108.033 60.2103 108.73 59.5105 108.73 58.6471C108.73 57.7838 108.033 57.084 107.173 57.084C106.313 57.084 105.616 57.7838 105.616 58.6471ZM106.324 58.6471C106.324 58.1762 106.704 57.7945 107.173 57.7945C107.399 57.7926 107.616 57.8818 107.776 58.0421C107.935 58.2024 108.024 58.4204 108.022 58.6471C108.022 59.118 107.642 59.4998 107.173 59.4998C106.704 59.4998 106.324 59.118 106.324 58.6471Z" fill="#D1D3D4"/>
<rect x="9.77344" y="80.6514" width="159.74" height="6.79974" fill="white"/>
<path fill-rule="evenodd" clip-rule="evenodd" d="M9.77328 87.8071H169.521C169.716 87.8071 169.875 87.6481 169.875 87.4519V80.6521C169.871 80.4575 169.715 80.3007 169.521 80.2969H9.77328C9.57944 80.3007 9.4232 80.4575 9.41943 80.6521V87.4519C9.41943 87.6481 9.57786 87.8071 9.77328 87.8071ZM169.139 87.0966H10.1271V81.0003H169.139V87.0966Z" fill="#231F20"/>
<path d="M69.8564 117.436C70.005 117.94 61.0669 150.155 61.0669 150.155L73.5577 152.173L88.3201 107.666L69.8564 117.436Z" fill="white"/>
<path fill-rule="evenodd" clip-rule="evenodd" d="M73.5008 152.529H73.5574C73.707 152.531 73.8412 152.436 73.89 152.294L88.6595 107.787C88.6999 107.649 88.6587 107.5 88.5534 107.403C88.4411 107.312 88.2861 107.296 88.1571 107.361L69.6934 117.13C69.5675 117.195 69.4923 117.33 69.5023 117.471C69.4032 118.537 64.2088 137.515 60.7199 150.063C60.6978 150.162 60.7129 150.266 60.7623 150.355C60.8192 150.439 60.9092 150.496 61.01 150.511L73.5008 152.529ZM73.3309 151.776L61.5266 149.864H61.5125C66.8768 130.524 69.7854 119.717 70.1746 117.677L87.7254 108.398L73.3309 151.776Z" fill="#231F20"/>
<path d="M60.3095 148.763L58.4058 154.774L88.3199 157.097C86.9151 154.257 84.4861 152.059 81.5261 150.951C78.4193 149.857 75.0719 148.55 75.0719 148.55L73.5575 152.173L60.3095 148.763Z" fill="#231F20"/>
<path fill-rule="evenodd" clip-rule="evenodd" d="M58.4056 155.13L88.3198 157.453C88.4617 157.488 88.6098 157.428 88.6878 157.304C88.7483 157.196 88.7483 157.064 88.6878 156.956C87.2477 154.022 84.743 151.754 81.6887 150.618C79.4573 149.833 77.084 148.925 75.9392 148.486C75.5082 148.322 75.2513 148.223 75.2416 148.223C75.1563 148.188 75.0605 148.189 74.9755 148.225C74.8905 148.261 74.8233 148.329 74.7887 148.415L73.3733 151.755L60.4226 148.422C60.2416 148.375 60.0556 148.478 59.998 148.657L58.0943 154.668C58.0615 154.771 58.0778 154.884 58.1385 154.974C58.1992 155.064 58.2976 155.122 58.4056 155.13ZM87.7112 156.7L58.8727 154.455L60.5429 149.211L73.4653 152.522C73.6378 152.563 73.8148 152.473 73.8829 152.309L75.2629 149.012C75.3007 149.026 75.3415 149.042 75.3853 149.059C76.3998 149.446 78.9908 150.434 81.4127 151.286C84.0802 152.292 86.3099 154.209 87.7112 156.7Z" fill="#231F20"/>
<path d="M39.3122 117.862L37.1891 151.797C37.1891 151.797 30.0131 152.046 28.2156 153.31C26.418 154.575 24.9531 160.302 24.9531 160.302H27.1894C27.1894 160.302 28.4916 156.039 29.9211 155.527C31.3507 155.016 39.475 154.817 39.475 154.817C39.475 154.817 43.3956 156.337 44.0254 158.945C44.5208 160.998 44.3793 161.474 44.3793 161.474H46.8562C46.8502 160.306 46.6835 159.144 46.3608 158.021C45.8654 156.6 44.0042 154.902 44.0042 154.902C44.0042 154.902 48.1017 154.987 49.4676 154.987C50.8334 154.987 52.2559 157.602 52.2559 157.602H54.9239C54.9239 157.602 52.1356 152.884 50.331 152.55C48.5264 152.216 43.898 151.406 43.898 151.406L42.6384 119.788L39.3122 117.862Z" fill="#231F20"/>
<path fill-rule="evenodd" clip-rule="evenodd" d="M44.4079 161.836H46.8848C47.0747 161.833 47.2278 161.679 47.2316 161.488C47.2284 160.285 47.0544 159.089 46.7149 157.936C46.2877 156.951 45.6722 156.06 44.9032 155.314C45.1025 155.317 45.3268 155.321 45.5672 155.325C46.881 155.347 48.6755 155.378 49.4891 155.378C50.3242 155.378 51.4565 156.87 51.966 157.808C52.0294 157.921 52.1481 157.991 52.2774 157.993H54.9454C55.0747 157.991 55.1934 157.921 55.2568 157.808C55.32 157.698 55.32 157.562 55.2568 157.453C54.9666 156.955 52.3269 152.593 50.4303 152.237C48.9017 151.946 45.3066 151.321 44.2734 151.143L43.0208 119.809C43.0165 119.687 42.9494 119.577 42.8439 119.518L39.4894 117.578C39.3832 117.521 39.2559 117.521 39.1497 117.578C39.0442 117.638 38.9754 117.747 38.9657 117.869L36.8851 151.491C35.4414 151.555 29.702 151.889 28.0389 153.054C26.1565 154.376 24.6986 160.01 24.642 160.245C24.6164 160.351 24.6398 160.463 24.7057 160.55C24.7716 160.637 24.873 160.689 24.9817 160.693H27.2392C27.3957 160.69 27.5329 160.587 27.5789 160.437C28.0602 158.866 29.1712 156.238 30.0912 155.896C31.2023 155.449 37.1611 155.236 39.4611 155.186C39.9282 155.385 43.1765 156.813 43.7072 159.037C43.9496 159.792 44.0714 160.581 44.0682 161.375C44.0348 161.483 44.0531 161.601 44.1177 161.694C44.1888 161.782 44.295 161.834 44.4079 161.836ZM46.5097 161.126H44.7759C44.7134 160.356 44.5759 159.595 44.3654 158.852C43.7002 156.095 39.7654 154.546 39.5956 154.483H39.4611C39.1285 154.483 31.1316 154.703 29.7869 155.193C28.4423 155.683 27.2817 158.945 26.9562 159.946H25.4417C25.9442 158.142 27.1756 154.497 28.4494 153.601C29.8506 152.642 35.2645 152.251 37.2319 152.18C37.4138 152.173 37.5608 152.029 37.5716 151.846L39.6309 118.452L42.3202 120.008L43.5586 151.427C43.5632 151.598 43.688 151.741 43.8559 151.768C43.9125 151.775 48.5054 152.571 50.2817 152.905C51.4706 153.125 53.3531 155.754 54.3014 157.254H52.4756C52.0934 156.593 50.8337 154.639 49.482 154.639C48.3338 154.639 45.2299 154.577 44.2953 154.559C44.1296 154.556 44.0321 154.554 44.0257 154.554C43.8783 154.557 43.7461 154.646 43.686 154.781C43.6354 154.918 43.6717 155.072 43.778 155.172C43.7789 155.173 43.7826 155.176 43.7889 155.182C43.9404 155.323 45.6011 156.866 46.0426 158.142C46.3292 159.111 46.4863 160.115 46.5097 161.126Z" fill="#231F20"/>
<path d="M80.231 96.2197C80.231 96.2197 108.496 97.7331 110.28 101.776C112.063 105.819 98.9566 150.277 98.9566 150.277C98.9566 150.277 112.792 155.08 110.527 156.089C108.263 157.098 85.6166 155.08 85.6166 155.08L96.3523 113.869L68.3843 111.979L80.231 96.2197Z" fill="white"/>
<path fill-rule="evenodd" clip-rule="evenodd" d="M85.6094 155.434C87.4281 155.598 100.329 156.727 106.968 156.727C108.224 156.805 109.485 156.7 110.711 156.415C110.988 156.327 111.175 156.067 111.171 155.775C111.115 154.319 103.188 151.37 99.4306 150.056C100.719 145.686 112.374 105.605 110.626 101.633C110.329 100.958 109.43 98.9191 94.6466 97.1285C87.4281 96.2475 80.337 95.8638 80.2663 95.8638C80.148 95.8486 80.0319 95.9042 79.969 96.0059L68.1152 111.794C68.0341 111.897 68.0177 112.037 68.0727 112.156C68.1312 112.27 68.2428 112.348 68.37 112.362L95.9134 114.224L85.298 154.987C85.2704 155.089 85.2885 155.198 85.3475 155.285C85.409 155.371 85.5046 155.425 85.6094 155.434ZM110.407 155.761C108.659 156.543 92.6509 155.342 86.0835 154.759L96.713 113.996C96.7335 113.893 96.7132 113.786 96.6564 113.698C96.592 113.613 96.4936 113.561 96.3875 113.556L69.0706 111.701L80.3937 96.5885C88.334 97.022 108.532 98.7059 109.947 101.925C111.362 105.143 102.247 137.856 98.6238 150.184C98.5672 150.366 98.6641 150.56 98.8432 150.624C104.123 152.45 109.94 154.901 110.407 155.761Z" fill="#231F20"/>
<path d="M70.6416 70.9527C70.6416 70.9527 85.1634 89.1422 91.3699 88.6377C97.5764 88.1333 115.354 65.7091 115.354 65.7091C118.567 61.858 122.162 56.9696 119.862 51.6619C119.635 51.1504 119.239 50.6033 118.687 50.6459C118.455 50.6817 118.234 50.7717 118.043 50.9088L116.061 52.1309C116.125 51.5838 115.431 51.193 114.901 51.3422C114.384 51.545 113.954 51.9218 113.683 52.408C111.624 55.3496 110.294 58.1491 110.407 61.7727L89.629 72.4306L81.3844 63.2719" fill="white"/>
<path d="M91.1224 89.0001C84.6754 89.0001 70.9532 71.9475 70.3658 71.173C70.2641 71.0193 70.2965 70.813 70.4403 70.6982C70.5842 70.5834 70.7917 70.5983 70.9178 70.7325C71.0594 70.9101 85.0151 88.2967 91.1012 88.2967H91.3418C97.3289 87.8135 114.887 65.7233 115.057 65.4959C118.376 61.5312 121.723 56.8843 119.522 51.8183C119.437 51.6193 119.14 50.987 118.701 51.0154C118.524 51.0477 118.357 51.1207 118.213 51.2285L116.217 52.4435C116.102 52.515 115.957 52.5143 115.842 52.4418C115.728 52.3692 115.665 52.2375 115.679 52.1025C115.688 51.998 115.64 51.8969 115.552 51.8396C115.389 51.7086 115.177 51.6565 114.972 51.6975C114.536 51.8841 114.175 52.2117 113.946 52.6283C112.205 55.1151 110.612 57.943 110.733 61.7798C110.737 61.9167 110.663 62.0438 110.542 62.1067L89.7637 72.7646C89.6209 72.8383 89.4465 72.8062 89.3391 72.6864L81.1015 63.5135C81.0345 63.4468 80.9968 63.356 80.9968 63.2613C80.9968 63.1666 81.0345 63.0758 81.1015 63.0091C81.2415 62.8728 81.464 62.8728 81.604 63.0091L89.6575 71.9475L110.004 61.5383C109.94 57.6091 111.568 54.7172 113.344 52.1806C113.663 51.6259 114.163 51.1991 114.759 50.9727C115.195 50.8676 115.654 50.9757 115.998 51.2641C116.093 51.3474 116.174 51.4458 116.238 51.5554L117.824 50.582C118.063 50.4136 118.34 50.3063 118.63 50.2693C119.246 50.2196 119.791 50.6743 120.145 51.4985C122.707 57.3959 118.078 62.938 115.587 65.9151C114.88 66.8246 97.6686 88.4601 91.3772 88.9717L91.1224 89.0001Z" fill="#231F20"/>
<path d="M23.1063 67.8485C23.1063 67.8485 15.626 84.8656 18.4002 86.6845C21.1743 88.5035 38.0599 86.6845 38.0599 86.6845L36.595 64.6582" fill="white"/>
<path d="M24.8186 87.8065C21.7967 87.8065 19.157 87.5933 18.1946 86.9539C17.7133 86.6412 16.2413 85.682 19.3764 76.4665C20.8838 72.0257 22.7592 67.7483 22.7804 67.7057C22.8211 67.5758 22.9323 67.4807 23.0665 67.4608C23.2007 67.441 23.3344 67.5 23.4107 67.6127C23.4869 67.7254 23.4922 67.8719 23.4244 67.9899C20.5937 74.4628 16.758 85.1704 18.5838 86.357C20.7069 87.7781 32.7377 86.8402 37.6915 86.357L36.2761 64.6789C36.2624 64.4827 36.4098 64.3125 36.6052 64.2987C36.8006 64.285 36.9701 64.4329 36.9838 64.6291L38.4487 86.6554C38.4611 86.8467 38.3202 87.0133 38.1303 87.032C37.6349 87.0604 30.5013 87.8065 24.8186 87.8065Z" fill="#231F20"/>
<path d="M29.1992 96.6882C29.1992 96.6882 25.5404 104.845 29.4398 109.989C33.3392 115.133 87.4706 115.752 87.4706 115.752L91.3558 96.2193L68.7097 93.1214L67.3933 86.3643L29.1992 96.6882Z" fill="white"/>
<path fill-rule="evenodd" clip-rule="evenodd" d="M59.885 115.155C73.7841 115.943 87.3506 116.107 87.485 116.107C87.6554 116.106 87.8011 115.984 87.8318 115.816L91.6746 96.2618C91.6953 96.1678 91.6747 96.0694 91.6179 95.9918C91.5632 95.9093 91.4753 95.8549 91.3773 95.8426L69.0072 92.7873L67.7404 86.2718C67.7219 86.1777 67.6656 86.0955 67.5847 86.0445C67.5016 85.9881 67.3976 85.9725 67.3016 86.0018L29.0863 96.3258C28.9819 96.3521 28.8956 96.4256 28.8527 96.5247C28.697 96.8658 25.1586 104.937 29.1358 110.181C30.8201 112.419 41.1666 114.089 59.885 115.155ZM29.7232 109.776C26.2838 105.243 28.9943 98.1163 29.4543 96.9866L67.1672 86.8047L68.4056 93.1995C68.4343 93.3481 68.5536 93.4622 68.7029 93.4837L90.9527 96.5247L87.1949 115.403C68.4481 115.176 32.7096 113.712 29.7232 109.776Z" fill="#231F20"/>
<path d="M51.3784 27.9735C50.8261 27.6407 50.345 27.2012 49.9631 26.6803C49.433 25.9174 49.049 25.062 48.8308 24.158C46.9129 17.1948 46.8988 8.27772 53.0769 3.51009C56.7745 0.673225 61.6126 -0.187556 66.056 1.20088C69.0566 2.1814 71.6043 6.32377 72.9418 9.01667C74.0388 11.198 74.7818 13.5711 76.084 15.6317C77.3861 17.6922 79.4597 19.4969 81.8941 19.6177C79.9407 20.7151 77.595 20.8564 75.5249 20.0014C76.4978 21.3126 78.1441 21.932 79.7357 21.5859C78.3203 22.7156 76.2963 22.673 74.5129 22.2964C72.7295 21.9198 70.9744 21.3514 69.1415 21.5859C66.3108 21.9056 64.4708 23.9946 62.2557 25.508C59.4461 27.3554 54.5914 29.8422 51.3784 27.9735Z" fill="white"/>
<path fill-rule="evenodd" clip-rule="evenodd" d="M51.2155 28.2856C52.079 28.7721 53.0564 29.0175 54.0463 28.9962C57.2592 28.9962 60.7977 26.8717 62.4466 25.7206C63.0198 25.3227 63.5718 24.8964 64.1097 24.4772C64.1796 24.424 64.2493 24.3708 64.3189 24.3177C65.8205 23.1725 67.2627 22.0727 69.1768 21.8554C70.5209 21.781 71.8679 21.9347 73.1611 22.3101L73.1611 22.3101C73.5857 22.4096 74.0103 22.5091 74.4349 22.5872C76.8269 23.049 78.6811 22.779 79.9478 21.7772C80.0807 21.6742 80.1232 21.4915 80.0495 21.3401C79.9758 21.1886 79.8062 21.11 79.6435 21.1519C78.6932 21.3629 77.6985 21.1947 76.8694 20.683C78.6369 21.0155 80.4647 20.7164 82.0355 19.8375C82.1763 19.7632 82.2468 19.6008 82.2054 19.4467C82.1702 19.2931 82.0367 19.1823 81.8798 19.1767C78.9854 19.0346 77.0605 16.4625 76.3528 15.3612C75.5976 14.084 74.9445 12.7488 74.3995 11.368C74.0386 10.5083 73.6565 9.6201 73.2318 8.76747C71.9792 6.2451 69.3678 1.85405 66.1549 0.809575C61.5986 -0.623657 56.6326 0.259013 52.8432 3.17563C45.094 9.17247 47.5568 20.7825 48.4909 24.193C48.7184 25.15 49.1216 26.056 49.6798 26.8646C50.0881 27.44 50.611 27.924 51.2155 28.2856ZM53.2608 3.76536C55.711 1.88347 58.7106 0.864621 61.7955 0.866417C63.2051 0.859645 64.6069 1.07544 65.9497 1.50589C69.0352 2.50773 71.6466 7.15457 72.6232 9.10852C72.9821 9.77766 73.2768 10.479 73.5663 11.1681C73.6365 11.3352 73.7063 11.5015 73.7768 11.6664C74.3348 13.0832 75.007 14.4519 75.7866 15.759C76.8645 17.6474 78.61 19.06 80.6768 19.7167C79.0546 20.297 77.2766 20.2591 75.6805 19.6101C75.5356 19.545 75.3652 19.5893 75.27 19.7167C75.1756 19.843 75.1756 20.0167 75.27 20.143C75.977 21.0943 77.0254 21.7315 78.1928 21.9193C77.0149 22.1948 75.7897 22.1948 74.6118 21.9193C74.2987 21.8607 73.9856 21.7901 73.6725 21.7195C73.5681 21.696 73.4636 21.6724 73.3592 21.6493C71.9812 21.2491 70.5448 21.0904 69.1131 21.1804C66.9121 21.429 65.2703 22.708 63.6851 23.9443C63.1614 24.3564 62.6165 24.7827 62.0645 25.1593C60.4651 26.2464 54.9805 29.6569 51.5694 27.6675C51.0514 27.3619 50.601 26.9533 50.246 26.4667C49.7374 25.7315 49.3702 24.9073 49.1632 24.0367C48.2503 20.7256 45.8654 9.49931 53.2608 3.76536Z" fill="#231F20"/>
<path d="M70.5571 22.9141C70.5571 22.9141 72.4891 28.982 71.4771 29.8417C70.4651 30.7014 68.3633 29.3514 68.3633 29.3514" fill="white"/>
<path d="M70.6206 30.4882C69.755 30.4138 68.9211 30.1258 68.1932 29.6498C68.0795 29.5847 68.0109 29.4619 68.0148 29.3305C68.0187 29.1992 68.0946 29.0807 68.212 29.0226C68.3294 28.9644 68.4691 28.9761 68.5753 29.0529C69.0707 29.3656 70.6206 30.14 71.2646 29.5716C71.7529 29.1524 71.123 25.8485 70.2172 23.0277C70.1615 22.8396 70.265 22.6412 70.4507 22.58C70.6363 22.5194 70.8359 22.6211 70.8966 22.8074C71.3636 24.2853 72.8144 29.2022 71.7246 30.1116C71.4162 30.3709 71.0224 30.5052 70.6206 30.4882Z" fill="#231F20"/>
<path d="M71.7319 15.9585C73.3808 18.3175 71.7319 21.8559 71.0242 24.2646C70.0476 27.6561 68.9931 31.0217 67.8608 34.3611C67.1531 36.4927 61.5765 34.9509 60.7839 34.0343L59.2694 42.7809L47.543 38.7096L51.315 28.1014C51.315 28.1014 55.087 29.1956 58.4839 25.4227C61.8808 21.6498 64.2445 12.0293 64.2445 12.0293C64.2445 12.0293 70.1254 13.6493 71.7319 15.9585Z" fill="white"/>
<path fill-rule="evenodd" clip-rule="evenodd" d="M59.1487 43.1363H59.2619C59.3148 43.1324 59.3659 43.1153 59.4105 43.0865C59.5015 43.0369 59.5643 42.9476 59.5804 42.845L60.9958 34.6597C62.6949 35.5481 64.6188 35.9092 66.5229 35.6971C67.2422 35.634 67.8681 35.1777 68.1505 34.5105C69.2829 31.1781 70.3444 27.7747 71.321 24.3997C71.4413 23.9947 71.5829 23.5613 71.7315 23.1065L71.7455 23.064C72.5142 20.7275 73.4423 17.9068 71.9792 15.7881C70.3441 13.4479 64.7277 11.8495 64.3037 11.7288C64.2964 11.7267 64.2907 11.7251 64.2865 11.7239C64.2004 11.6884 64.1038 11.6884 64.0176 11.7239C63.9351 11.7712 63.876 11.8511 63.8549 11.9442C63.8549 12.0437 61.3921 21.6287 58.1933 25.1813C55.0503 28.672 51.6476 27.8273 51.389 27.7631C51.3844 27.762 51.3808 27.7611 51.3782 27.7605C51.2009 27.7086 51.0141 27.8055 50.9536 27.9808L47.2099 38.6244C47.1781 38.714 47.1781 38.8119 47.2099 38.9015C47.2508 38.9868 47.3252 39.0511 47.4152 39.0792L59.1487 43.1363ZM58.9859 42.3121L47.9884 38.4894L51.5056 28.4994C52.5318 28.6984 55.7447 28.9471 58.7099 25.6573C61.7955 22.2326 63.9893 14.2889 64.4635 12.4771C65.7515 12.8608 70.1392 14.3387 71.413 16.1576C72.6709 17.9537 71.8034 20.6089 71.1001 22.7618L71.0733 22.8437C71.0251 22.9959 70.9768 23.1451 70.9296 23.2913C70.8312 23.5956 70.737 23.8869 70.6558 24.1652C69.6862 27.5331 68.6176 30.9223 67.4924 34.2405C67.365 34.6242 66.997 34.88 66.3884 35.0008C64.5909 35.356 61.5265 34.3897 61.017 33.8C60.9277 33.6965 60.7871 33.6539 60.6556 33.6903C60.5241 33.7267 60.4252 33.8357 60.4013 33.9705L58.9859 42.3121Z" fill="#231F20"/>
<path d="M68.4905 31.8036C68.4905 31.8036 65.4121 32.6846 64.7822 29.5654L68.4905 31.8036Z" fill="white"/>
<path d="M67.549 32.2725C66.9418 32.2881 66.342 32.1357 65.8152 31.832C65.0519 31.3375 64.5365 30.5381 64.3998 29.6365C64.365 29.4422 64.4915 29.2558 64.6842 29.2171C64.877 29.1784 65.0652 29.3016 65.1075 29.4944C65.2025 30.1946 65.5881 30.8219 66.169 31.221C66.8497 31.565 67.6313 31.6508 68.3699 31.4625C68.4964 31.4283 68.6314 31.4643 68.7242 31.5571C68.8169 31.6499 68.8533 31.7853 68.8197 31.9124C68.786 32.0394 68.6874 32.1388 68.561 32.1731C68.229 32.2475 67.8891 32.2809 67.549 32.2725Z" fill="#231F20"/>
<path d="M63.4588 23.263C63.6025 22.3859 63.5021 21.4859 63.1686 20.6625C62.9961 19.9975 62.7292 19.361 62.376 18.7725C62.0042 18.1849 61.393 17.7923 60.7059 17.6996C60.0885 17.6885 59.4968 17.9479 59.0853 18.4101C58.6721 18.8552 58.3669 19.3902 58.1936 19.9732C57.3606 22.5331 57.9454 25.3445 59.7293 27.3556L59.5948 27.0998" fill="white"/>
<path d="M59.729 27.7106C59.6301 27.7096 59.5357 27.6686 59.4672 27.5969C57.5949 25.4791 56.9808 22.5236 57.8536 19.8308C58.0433 19.1963 58.3777 18.6148 58.8302 18.1327C59.3234 17.6087 60.0163 17.3217 60.7339 17.344C61.5316 17.4347 62.2436 17.8878 62.6659 18.5732C63.0418 19.189 63.3256 19.8569 63.5081 20.5556C63.8628 21.4408 63.9657 22.4075 63.8053 23.3479C63.7535 23.5394 63.5579 23.6535 63.3666 23.6037C63.1796 23.5518 63.0692 23.3585 63.1189 23.1703C63.2374 22.3581 63.1372 21.5289 62.8287 20.7687C62.67 20.1373 62.4171 19.5337 62.0786 18.9782C61.7712 18.4702 61.2503 18.1302 60.6632 18.0545C60.1536 18.0447 59.6643 18.2541 59.3186 18.63C58.9421 19.0346 58.6636 19.5209 58.5047 20.0511C57.7609 22.3362 58.1929 24.8429 59.6582 26.7442C59.7577 26.7717 59.842 26.8383 59.8918 26.929L60.0192 27.1848C60.1039 27.343 60.0549 27.54 59.9059 27.6395C59.8551 27.68 59.7936 27.7047 59.729 27.7106Z" fill="#231F20"/>
<ellipse cx="70.2966" cy="19.9856" rx="1.25739" ry="0.5" transform="rotate(-77.39 70.2966 19.9856)" fill="#231F20"/>
<path d="M60.7767 34.0339C59.2391 33.0322 57.7665 31.9334 56.3678 30.7441C56.3678 30.7441 55.6601 36.8973 59.8567 38.3112L60.7767 34.0339Z" fill="#231F20"/>
<path fill-rule="evenodd" clip-rule="evenodd" d="M59.7434 38.6664C59.7808 38.6732 59.8192 38.6732 59.8566 38.6664C59.9181 38.6664 59.9787 38.6518 60.0335 38.6238C60.1202 38.5728 60.1817 38.4878 60.2034 38.3893L61.1234 34.1262C61.1503 33.9828 61.089 33.8371 60.9677 33.7567C59.4438 32.7593 57.9831 31.6677 56.5942 30.4883C56.4924 30.4065 56.3551 30.3848 56.2332 30.4314C56.1131 30.4817 56.0293 30.593 56.0138 30.7227C55.9855 30.9856 55.3415 37.1814 59.7434 38.6664ZM59.6018 37.828C56.8843 36.6201 56.6862 32.9893 56.6862 31.4688C57.8694 32.4422 59.1024 33.3529 60.3803 34.1972L59.6018 37.828Z" fill="#231F20"/>
<path d="M27.0054 99.3815C27.0054 99.3815 27.6423 55.8973 34.1389 45.886C40.6355 35.8747 57.4928 33.6152 65.5321 39.5836C73.5715 45.552 69.7004 91.1678 69.7004 91.1678C69.7004 91.1678 44.0678 99.3815 27.0054 99.3815Z" fill="#E7816B"/>
<path d="M59.9201 37.0254C64.1964 38.7695 68.193 41.1373 71.781 44.0525C77.3435 48.6922 89.0841 68.6438 89.0841 68.6438L73.5998 78.0583L59.7007 60.8493L59.9201 37.0254Z" fill="#E7816B"/>
<path d="M40.8338 39.7324C40.8338 39.7324 32.7307 40.649 28.4421 49.5803C26.1209 54.4261 20.1763 70.0719 20.1763 70.0719L38.0526 72.1395L40.8338 39.7324Z" fill="#E7816B"/>
<path d="M72.4392 76.971C72.3263 76.9705 72.2207 76.9148 72.1562 76.8218L58.3491 57.9431C58.2928 57.8677 58.2686 57.7729 58.2819 57.6797C58.2951 57.5864 58.3448 57.5022 58.4199 57.4457C58.579 57.3335 58.798 57.3681 58.9152 57.5239L72.7223 76.4025C72.8027 76.5102 72.8157 76.6542 72.7557 76.7746C72.6958 76.8949 72.5733 76.971 72.4392 76.971Z" fill="#231F20"/>
<path d="M113.655 55.6346L117.109 44.8701L118.185 45.1827L116.012 55.798C116.012 55.798 114.483 57.2759 113.655 55.6346Z" fill="#231F20"/>
<path fill-rule="evenodd" clip-rule="evenodd" d="M114.476 56.7636H114.717C115.294 56.7245 115.839 56.486 116.26 56.0886C116.31 56.0409 116.345 55.979 116.359 55.911L118.532 45.2531C118.568 45.072 118.461 44.8927 118.284 44.841L117.208 44.5284C117.023 44.4806 116.833 44.5823 116.769 44.7628L113.337 55.5415C113.302 55.628 113.302 55.725 113.337 55.8115C113.537 56.2986 113.963 56.6551 114.476 56.7636ZM114.568 56.046C114.324 55.986 114.119 55.8192 114.009 55.5913L117.314 45.3099L117.746 45.4307L115.658 55.6126C115.365 55.8941 114.974 56.0496 114.568 56.046Z" fill="#231F20"/>
<path d="M48.3497 31.2636C41.9805 29.8425 34.9036 30.8372 29.7586 34.8162C27.5782 36.414 25.9402 38.6465 25.0666 41.2109C24.2265 43.8262 24.7184 46.689 26.3829 48.8704C31.266 54.7607 41.9876 54.7323 48.6186 52.8067C53.1408 51.4994 66.5303 45.1188 62.8432 38.852C60.1894 34.3686 53.1266 32.2938 48.3497 31.2636Z" fill="#E7816B"/>
<path d="M40.2395 53.3396C36.0194 53.2167 31.8984 52.0265 28.2583 49.8793C28.1769 49.8308 28.1187 49.7511 28.0973 49.6585C28.076 49.5659 28.0932 49.4686 28.1451 49.3891C28.2508 49.2245 28.4692 49.1768 28.6334 49.2825C28.7183 49.3393 37.4725 54.8033 45.7595 51.6485C49.7368 50.1351 52.1288 47.4493 54.4146 44.8559C56.9411 42.0138 59.326 39.328 63.4448 38.9514C63.5387 38.9436 63.6318 38.9737 63.7036 39.035C63.7753 39.0964 63.8197 39.1839 63.8269 39.2783C63.8368 39.3718 63.8085 39.4654 63.7485 39.5377C63.6885 39.61 63.6019 39.6548 63.5085 39.6619C59.6728 40.0101 57.4789 42.5041 54.9454 45.3462C52.6949 47.8827 50.1472 50.7533 46.0072 52.3306C44.1612 53.0142 42.207 53.356 40.2395 53.3396Z" fill="#231F20"/>
<path d="M27.6422 83.8422C27.5484 83.8385 27.4598 83.7974 27.3961 83.7281C27.3324 83.6588 27.2987 83.5669 27.3025 83.4727C27.8192 72.225 30.1333 56.0393 30.1333 55.8758C30.1659 55.6836 30.3442 55.5517 30.5367 55.5774C30.7271 55.6067 30.8593 55.7836 30.8339 55.9753C30.8339 56.1387 28.4915 72.3174 28.0032 83.5011C27.9955 83.6945 27.835 83.8462 27.6422 83.8422Z" fill="#231F20"/>
<path d="M81.9155 154.319H96.954C96.954 154.319 98.5888 150.66 102.113 150.155C102.113 150.155 115.828 155.974 113.811 157.168C111.794 158.362 80.854 158.234 80.854 158.234L81.9155 154.319Z" fill="#231F20"/>
<path fill-rule="evenodd" clip-rule="evenodd" d="M80.8466 158.596H84.01C92.2121 158.596 112.275 158.49 113.995 157.453C114.234 157.325 114.38 157.071 114.37 156.799C114.278 155.037 105.078 151.001 102.247 149.807C102.187 149.79 102.123 149.79 102.063 149.807C98.8574 150.269 97.1518 153.154 96.7343 153.971H81.9152C81.7533 153.969 81.6105 154.077 81.5684 154.234L80.5069 158.149C80.4777 158.257 80.5013 158.373 80.5706 158.461C80.6367 158.547 80.7387 158.597 80.8466 158.596ZM113.634 156.863C112.233 157.694 93.7195 157.921 81.3137 157.886L82.1841 154.674H96.9537C97.0931 154.676 97.2206 154.595 97.2792 154.468C97.2934 154.433 98.8503 151.044 102.063 150.518C107.64 152.891 113.634 155.982 113.634 156.863Z" fill="#231F20"/>
<path d="M70.5498 119.368C80.1249 117.343 86.5437 112.845 82.7787 106.777C79.0138 100.71 51.9729 104.646 46.6864 100.148C41.4 95.6506 43.2895 71.7982 37.4864 67.7127C31.6833 63.6272 6.80796 59.499 4.02673 64.6574C1.2455 69.8159 4.02673 107.353 12.1298 115.687C20.2329 124.022 61.2083 121.301 70.5498 119.368Z" fill="#231F20"/>
<path fill-rule="evenodd" clip-rule="evenodd" d="M40.862 121.749H42.4614C53.8482 121.749 65.7657 120.704 70.6417 119.624C77.7399 118.125 82.3965 115.489 83.8119 112.206C84.5762 110.43 84.3356 108.512 83.1042 106.522C80.974 103.097 72.0784 102.735 63.4799 102.387L63.4536 102.386C56.4769 102.102 49.2736 101.809 46.927 99.8077C44.4574 97.6977 43.5727 90.8707 42.7165 84.2635L42.7162 84.2614L42.7122 84.2305C41.7722 77.0069 40.801 69.5433 37.6845 67.3509C32.7307 63.8835 14.9464 60.544 7.25374 62.3772C5.41373 62.8461 4.23189 63.5495 3.71527 64.5087C0.707581 70.1148 3.83558 107.666 11.8467 115.965C16.3405 120.569 30.1051 121.656 40.862 121.749ZM7.39527 63.1019C9.11749 62.7446 10.8739 62.5802 12.6322 62.6116C21.1174 62.6116 33.4313 65.2903 37.2528 67.9974C40.126 70.0082 41.0814 77.3693 41.9943 84.4177C42.9073 91.4661 43.7707 98.1237 46.4457 100.412C48.9793 102.579 55.9996 102.863 63.4304 103.161L63.4546 103.162C71.8827 103.503 80.5513 103.854 82.4814 106.963C83.5854 108.746 83.8048 110.444 83.1396 112.007C81.8587 115.034 77.2445 117.592 70.4719 119.013C61.0808 120.967 20.3177 123.639 12.3845 115.461C4.58574 107.417 1.5922 69.9443 4.33804 64.8498C4.7485 64.0753 5.78173 63.4856 7.39527 63.1019Z" fill="#231F20"/>
<path d="M88.3199 99.7367H88.2633L65.4473 95.7294C65.2518 95.696 65.1203 95.5099 65.1536 95.3137C65.1868 95.1175 65.3721 94.9855 65.5676 95.0188L88.3836 99.0262C88.579 99.0439 88.7232 99.2172 88.7056 99.4134C88.688 99.6096 88.5153 99.7544 88.3199 99.7367Z" fill="#D1D3D4"/>
<path d="M154.1 146.368L153.392 146.29C153.392 146.084 155.621 125.514 148.53 116.377L149.089 115.943C152.147 119.88 153.923 126.203 154.355 134.737C154.551 138.615 154.465 142.502 154.1 146.368Z" fill="#231F20"/>
<path d="M151.658 148.99C151.647 148.751 151.671 148.512 151.729 148.28C153.421 137.515 150.554 132.499 147.851 130.183L148.311 129.643C151.142 132.073 154.171 137.302 152.43 148.393C152.387 148.663 152.359 148.841 152.359 148.912L151.658 148.99Z" fill="#231F20"/>
<path d="M147.986 125.614C147.413 125.277 146.766 125.087 146.103 125.06C144.914 124.889 143.707 125.22 142.77 125.976C142.536 126.204 142.331 126.587 142.543 126.836C142.669 126.951 142.827 127.026 142.996 127.049C143.938 127.319 144.674 128.058 144.942 129.003C144.454 128.641 144.037 128.179 143.527 127.817C143.056 127.42 142.45 127.221 141.836 127.262C141.171 127.42 140.585 127.814 140.187 128.371C139.73 128.862 139.35 129.42 139.062 130.026C138.76 130.635 138.671 131.328 138.807 131.994C139.453 131.808 140.13 131.762 140.795 131.859C141.268 131.902 141.718 132.088 142.083 132.392C142.194 132.478 142.273 132.598 142.31 132.733C142.334 133.019 142.143 133.278 141.864 133.337C141.594 133.401 141.313 133.401 141.043 133.337C140.466 133.219 139.882 133.136 139.295 133.089C139.075 133.06 138.852 133.075 138.637 133.131C138.119 133.422 137.836 134.006 137.929 134.595C137.919 134.836 138.008 135.07 138.177 135.242C138.467 135.469 138.885 135.305 139.224 135.163C139.817 134.915 140.451 134.78 141.093 134.765C141.165 134.759 141.238 134.771 141.305 134.801C141.377 134.852 141.425 134.931 141.436 135.019C141.447 135.107 141.42 135.196 141.362 135.263C141.242 135.397 141.084 135.489 140.909 135.526C140.423 135.68 139.926 135.797 139.422 135.874C139.132 135.917 138.793 135.98 138.651 136.243C138.596 136.359 138.57 136.485 138.573 136.613C138.545 137.577 138.822 138.525 139.366 139.32C139.454 139.464 139.569 139.59 139.706 139.689C139.9 139.793 140.115 139.851 140.335 139.86C142.02 140.035 143.721 139.791 145.289 139.149C145.371 139.121 145.442 139.069 145.494 139C145.586 138.837 145.431 138.645 145.31 138.503C144.787 137.856 144.907 136.925 145.056 136.108C145.068 135.95 145.132 135.799 145.24 135.682C145.445 135.543 145.723 135.586 145.877 135.782C146.02 135.976 146.101 136.208 146.11 136.449C146.215 137.29 146.147 138.144 145.912 138.958C146.727 138.767 147.521 138.496 148.283 138.148C148.899 137.908 149.48 137.585 150.01 137.188C150.542 136.785 150.915 136.207 151.064 135.554C151.096 135.433 151.083 135.305 151.029 135.192C150.974 135.114 150.901 135.051 150.816 135.007C150.078 134.528 149.497 133.841 149.146 133.032C149.075 132.861 149.04 132.627 149.196 132.542C149.262 132.52 149.334 132.52 149.401 132.542C150.293 132.691 150.746 133.693 151.482 134.225C151.54 134.274 151.611 134.304 151.687 134.311C151.778 134.311 151.866 134.272 151.927 134.204C152.223 133.928 152.424 133.565 152.501 133.167C152.714 132.385 152.67 131.555 152.373 130.801C152.064 130.045 151.428 129.472 150.646 129.245C150.285 129.161 149.91 129.144 149.542 129.195C149.415 129.195 148.736 129.437 148.644 129.351C148.552 129.266 148.913 128.754 148.998 128.584C149.458 127.532 148.842 126.182 147.986 125.614Z" fill="#231F20"/>
<path d="M158.679 119.184C157.551 119.174 156.491 119.725 155.848 120.655C155.419 121.398 155.245 122.262 155.353 123.113C155.463 123.955 155.667 124.782 155.961 125.579C156.517 124.578 157.528 123.916 158.665 123.81C159.818 123.71 158.474 124.826 158.275 125.06C157.624 125.828 157.002 126.616 156.386 127.412C156.206 127.611 156.085 127.858 156.039 128.123C156.037 128.408 156.121 128.688 156.28 128.925C156.759 129.991 157.487 130.924 158.403 131.647C158.656 131.869 159.013 131.927 159.323 131.796C159.466 131.676 159.574 131.518 159.634 131.341C159.973 130.627 160.414 129.966 160.943 129.38C161.071 129.231 161.276 129.082 161.439 129.188C161.602 129.295 161.573 129.458 161.559 129.615L161.411 131.199C161.312 131.77 161.346 132.356 161.51 132.911C161.885 133.92 163.017 134.425 164.071 134.624C164.359 134.702 164.662 134.702 164.949 134.624C165.515 134.425 165.749 133.75 165.848 133.153C165.959 132.371 166.28 131.635 166.775 131.021C166.904 132.054 167.233 133.051 167.744 133.956C168.001 134.443 168.355 134.871 168.785 135.214C169.242 135.54 169.767 135.758 170.32 135.853C171.254 136.022 172.205 136.074 173.151 136.009C173.806 136.017 174.458 135.933 175.09 135.761C175.727 135.582 176.273 135.168 176.619 134.603C177.178 133.594 176.746 132.293 176.024 131.398C175.303 130.503 174.326 129.835 173.576 128.961C174.512 129.219 175.383 129.675 176.131 130.297C176.309 130.502 176.567 130.621 176.838 130.624C176.963 130.597 177.076 130.532 177.164 130.439C178.282 129.316 176.994 127.419 176.399 126.41C176.083 125.692 175.521 125.112 174.814 124.776C174.396 124.669 173.958 124.669 173.54 124.776C172.903 124.883 169.747 126.325 171.092 124.428C171.825 123.577 172.902 123.104 174.022 123.142C174.567 123.191 175.395 123.632 175.38 122.609C175.342 122.242 175.2 121.894 174.97 121.607C174.532 120.95 174.06 120.316 173.555 119.71C173.429 119.524 173.24 119.39 173.024 119.333C172.836 119.327 172.65 119.379 172.493 119.483C171.202 120.267 169.776 120.803 168.289 121.06C167.95 121.06 167.475 120.953 167.532 120.619C167.566 120.498 167.644 120.394 167.751 120.328C168.65 119.618 169.995 119.923 170.915 119.269C171.192 119.092 171.376 118.801 171.417 118.474C171.417 117.998 171.028 117.621 170.646 117.33C169.691 116.497 168.52 115.953 167.27 115.759C165.409 115.61 163.732 116.839 162.479 118.239C162.062 118.715 161.771 119.951 161.127 119.873C160.721 119.729 160.324 119.561 159.939 119.369C159.531 119.241 159.106 119.179 158.679 119.184Z" fill="#231F20"/>
<path d="M149.663 109.35C149.583 108.631 149.255 107.962 148.736 107.46C147.787 106.593 146.365 106.551 145.098 106.749C144.148 106.953 143.216 107.231 142.31 107.581C141.397 107.844 141.128 108.05 141.942 108.796C142.515 109.314 144.065 111.169 143.357 112.057C142.649 112.945 141.461 110.679 141.001 110.302C140.4 109.714 139.603 109.372 138.764 109.343C138.03 109.469 137.356 109.827 136.839 110.366C136.288 110.856 135.763 111.375 135.268 111.922C135.188 112 135.125 112.095 135.084 112.199C134.971 112.611 135.53 112.853 135.948 112.91C137.144 113.13 138.481 113.755 138.722 114.949C137.49 115.254 136.33 114.004 135.07 114.139C134.141 114.363 133.385 115.037 133.053 115.937C132.713 116.736 132.608 117.616 132.749 118.473C133.812 118.103 134.951 118.005 136.061 118.189C136.199 118.197 136.33 118.255 136.429 118.352C136.534 118.551 136.462 118.797 136.266 118.907C136.074 119.003 135.857 119.04 135.643 119.013H133.591C133.39 118.992 133.188 119.039 133.018 119.148C132.879 119.292 132.799 119.481 132.791 119.681C132.659 120.623 132.647 121.578 132.756 122.523C132.773 123.11 133.001 123.671 133.4 124.101C133.72 124.343 134.094 124.504 134.49 124.569C135.526 124.819 136.587 124.953 137.653 124.967C137.179 124.301 137.06 123.444 137.335 122.672C137.759 121.678 138.481 122.253 138.517 123.156C138.517 123.582 138.439 124.001 138.425 124.427C138.417 124.508 138.432 124.589 138.467 124.662C138.51 124.717 138.566 124.761 138.63 124.79C139.193 125.095 139.848 125.181 140.47 125.031C140.647 124.996 140.814 124.921 140.958 124.811C141.287 124.417 141.399 123.884 141.255 123.39L140.965 120.825C140.933 120.704 140.959 120.575 141.036 120.477C141.163 120.349 141.39 120.477 141.524 120.576C142.052 121.048 142.334 121.737 142.289 122.445C142.289 122.85 142.119 123.241 142.09 123.639C142.032 124.047 142.193 124.455 142.515 124.712C142.856 124.876 143.249 124.896 143.605 124.768C144.078 124.699 144.515 124.471 144.843 124.122C145.125 123.674 145.21 123.128 145.077 122.616C144.936 122.111 144.836 121.595 144.78 121.074C144.78 120.022 145.855 118.516 146.032 120.363C146.039 120.966 146.004 121.57 145.926 122.168C145.909 122.245 145.909 122.325 145.926 122.402C146.021 122.529 146.172 122.601 146.329 122.594C147.162 122.667 147.998 122.505 148.743 122.125C149.256 121.875 149.706 121.51 150.059 121.059C150.321 120.689 150.541 120.291 150.717 119.873C151.573 118.047 152.939 116.619 151.347 114.665C150.802 113.997 149.79 113.819 149.281 113.137C148.679 112.327 149.606 111.041 149.641 110.025C149.666 109.801 149.673 109.575 149.663 109.35Z" fill="#231F20"/>
<path d="M144.561 144.237H162.607L161.191 157.837C160.981 159.906 159.243 161.478 157.172 161.475H149.96C147.891 161.475 146.158 159.903 145.948 157.837L144.561 144.237Z" fill="white"/>
<path fill-rule="evenodd" clip-rule="evenodd" d="M149.96 161.851H157.2C159.439 161.829 161.303 160.117 161.524 157.879L162.939 144.28C162.952 144.178 162.918 144.076 162.847 144.003C162.78 143.924 162.681 143.88 162.578 143.882H144.532C144.427 143.881 144.327 143.925 144.256 144.003C144.19 144.079 144.157 144.179 144.164 144.28L145.579 157.879C145.805 160.137 147.7 161.855 149.96 161.851ZM146.308 157.808L144.964 144.614H162.203L160.851 157.808C160.662 159.69 159.083 161.122 157.2 161.119H149.96C148.076 161.122 146.497 159.69 146.308 157.808Z" fill="#231F20"/>
<path d="M156.089 144.486C156.089 144.358 154.673 131.341 161.042 120.854L161.651 121.223C155.416 131.497 156.803 144.272 156.818 144.4L156.089 144.486Z" fill="#231F20"/>
<path d="M139.698 119.794C139.609 119.793 139.523 119.757 139.458 119.695C139.391 119.628 139.353 119.537 139.353 119.443C139.353 119.348 139.391 119.257 139.458 119.191C143.152 115.283 148.969 112.902 149.217 112.796C149.399 112.723 149.604 112.812 149.677 112.995C149.749 113.177 149.66 113.384 149.479 113.457C149.422 113.457 143.555 115.872 139.967 119.674C139.899 119.751 139.801 119.795 139.698 119.794Z" fill="white"/>
<path d="M142.189 137.899C142.066 137.898 141.953 137.833 141.889 137.727C141.826 137.621 141.821 137.49 141.878 137.38C143.22 134.849 144.922 132.527 146.931 130.488C146.996 130.421 147.085 130.384 147.179 130.384C147.272 130.384 147.361 130.421 147.426 130.488C147.561 130.626 147.561 130.848 147.426 130.986C145.476 132.975 143.822 135.237 142.515 137.7C142.453 137.823 142.327 137.9 142.189 137.899Z" fill="white"/>
<path d="M172.281 132.868C172.162 132.867 172.052 132.809 171.983 132.712C171.814 132.449 167.737 126.317 162.904 122.693C162.747 122.576 162.716 122.353 162.833 122.196C162.952 122.043 163.171 122.011 163.328 122.125C168.155 125.784 172.132 131.66 172.571 132.314C172.677 132.477 172.633 132.696 172.472 132.804C172.416 132.845 172.35 132.868 172.281 132.868Z" fill="white"/>
<rect x="127.441" y="9.4502" width="42.964" height="30.2826" fill="white"/>
<path fill-rule="evenodd" clip-rule="evenodd" d="M127.441 40.0879H170.398C170.594 40.0879 170.752 39.9288 170.752 39.7326V9.44999C170.752 9.25378 170.594 9.09473 170.398 9.09473H127.441C127.246 9.09473 127.087 9.25378 127.087 9.44999V39.7326C127.087 39.9288 127.246 40.0879 127.441 40.0879ZM170.044 39.3774H127.795V9.80525H170.044V39.3774Z" fill="#D1D3D4"/>
<path d="M155.169 68.4803C154.994 68.4796 154.845 68.3541 154.815 68.1819L153.074 56.8419L150.031 58.1919C149.944 58.2299 149.847 58.2318 149.759 58.1971C149.671 58.1624 149.601 58.0941 149.564 58.0072C149.526 57.9215 149.524 57.8243 149.559 57.7374C149.594 57.6505 149.662 57.5813 149.748 57.5453L153.222 56.039C153.32 55.9896 153.436 55.9896 153.534 56.039C153.631 56.0916 153.699 56.1858 153.718 56.2948L155.529 68.054C155.546 68.1476 155.523 68.2438 155.467 68.3203C155.411 68.3967 155.326 68.4469 155.232 68.459L155.169 68.4803Z" fill="#231F20"/>
<path d="M161.17 80.6516H152.309L151.828 61.5029H161.651L161.17 80.6516Z" fill="white"/>
<path fill-rule="evenodd" clip-rule="evenodd" d="M152.31 80.9996H161.17C161.335 80.9884 161.47 80.8646 161.496 80.7011L161.977 61.5169C161.973 61.3198 161.819 61.1586 161.623 61.1475H151.8C151.704 61.1503 151.612 61.1912 151.545 61.2611C151.48 61.3301 151.445 61.4219 151.446 61.5169L151.956 80.6585C151.964 80.8491 152.12 80.9997 152.31 80.9996ZM160.845 80.289H152.678L152.189 61.8509H161.305L160.845 80.289Z" fill="#231F20"/>
<rect x="150.93" y="59.5635" width="11.6203" height="1.93974" fill="white"/>
<path fill-rule="evenodd" clip-rule="evenodd" d="M150.93 61.8583H162.55C162.745 61.8583 162.904 61.6992 162.904 61.503V59.5633C162.904 59.3671 162.745 59.208 162.55 59.208H150.93C150.734 59.208 150.576 59.3671 150.576 59.5633V61.503C150.576 61.6992 150.734 61.8583 150.93 61.8583ZM162.196 61.1477H151.283V59.9185H162.196V61.1477Z" fill="#231F20"/>
<path fill-rule="evenodd" clip-rule="evenodd" d="M152.76 71.8209C153.533 73.3963 155.188 74.3351 156.931 74.1859C159.175 74.0822 160.912 72.1758 160.816 69.9227C160.81 68.1668 159.732 66.5944 158.1 65.9615C156.469 65.3286 154.618 65.7648 153.437 67.0603C152.257 68.3557 151.988 70.2455 152.76 71.8209ZM153.416 68.3288C154.079 67.0201 155.476 66.2559 156.931 66.4056C158.784 66.5088 160.205 68.0974 160.108 69.9582C160.101 71.4265 159.194 72.7388 157.827 73.2605C156.46 73.7822 154.914 73.4058 153.937 72.3134C152.96 71.2209 152.753 69.6375 153.416 68.3288Z" fill="#D1D3D4"/>
<path fill-rule="evenodd" clip-rule="evenodd" d="M137.504 33.2954C138.324 33.5816 139.185 33.7304 140.052 33.7359C142.027 33.6425 143.93 32.9652 145.523 31.7891C147.263 30.6593 148.028 29.5438 147.858 28.3785C147.685 27.6786 147.328 27.038 146.825 26.5241C146.391 26.1069 146.084 25.5747 145.94 24.9893C145.964 24.3257 146.18 23.6836 146.563 23.142C147.662 21.3462 147.771 19.1115 146.853 17.2162C145.82 15.2196 143.654 13.8909 140.908 13.5783C138.93 13.3819 136.977 14.1446 135.65 15.6317C134.44 17.0597 133.944 18.9645 134.306 20.8043C134.362 21.0885 134.433 21.3799 134.511 21.6783L134.519 21.7107C134.799 22.871 135.063 23.9661 134.362 24.7193C134.027 25.0176 133.644 25.2577 133.23 25.4299C132.607 25.6641 132.065 26.0766 131.673 26.6164C131.426 27.0717 131.341 27.5982 131.432 28.1085C131.687 29.5138 132.509 30.7507 133.704 31.5262L133.704 31.5262C133.938 31.6825 134.171 31.8388 134.412 31.9738C135.397 32.5147 136.433 32.9573 137.504 33.2954ZM137.731 32.6204C136.703 32.2957 135.71 31.8697 134.766 31.3485V31.3841C134.546 31.2551 134.334 31.1152 134.129 30.9649C133.097 30.301 132.379 29.2441 132.14 28.0375C132.072 27.6848 132.124 27.3191 132.289 27.0001C132.615 26.5825 133.051 26.265 133.548 26.0835C134.042 25.8712 134.495 25.5729 134.886 25.2025C135.855 24.1657 135.509 22.7528 135.205 21.51L135.204 21.5078C135.134 21.2235 135.063 20.9393 135.006 20.6693C134.688 19.0452 135.123 17.3639 136.188 16.1006C137.359 14.7825 139.087 14.1064 140.838 14.2817C143.343 14.573 145.31 15.7596 146.23 17.543C147.04 19.2487 146.923 21.2523 145.919 22.8506C145.472 23.5022 145.237 24.2766 145.247 25.0675C145.401 25.7924 145.763 26.4565 146.287 26.9788C146.704 27.3964 147.006 27.9154 147.164 28.4851C147.271 29.3449 146.634 30.2259 145.147 31.1993C143.06 32.528 140.717 33.6435 137.731 32.6204Z" fill="#D1D3D4"/>
<path fill-rule="evenodd" clip-rule="evenodd" d="M154.036 32.4287C155.712 33.1316 157.507 33.5054 159.323 33.53C160.379 33.5513 161.433 33.405 162.444 33.0966C164.586 32.4178 166.257 30.7216 166.909 28.5634C167.366 26.9095 166.922 25.1364 165.742 23.8953C163.59 21.5221 158.12 20.5771 155.289 21.5221C154.68 21.7392 154.084 21.9931 153.506 22.2824C152.623 22.7649 151.666 23.0962 150.675 23.2629C149.382 23.3155 148.092 23.1177 146.874 22.6803C145.176 22.1971 143.428 21.7068 141.786 22.4174C140.082 23.2592 139.121 25.1163 139.415 27.0003C139.655 28.5257 140.329 29.9493 141.354 31.1C142.562 32.6455 144.465 33.4741 146.414 33.3026C147.273 33.1528 148.103 32.8725 148.877 32.4713C150.313 31.494 152.177 31.4223 153.682 32.2866L154.036 32.4287ZM151.658 30.9721H151.489C150.481 31.0456 149.501 31.3365 148.615 31.8247C147.908 32.1933 147.149 32.4543 146.365 32.5992C144.242 32.8692 142.671 31.4766 141.921 30.631C140.975 29.5824 140.351 28.2823 140.123 26.8866C139.873 25.3209 140.652 23.771 142.055 23.0426C143.459 22.4191 145.011 22.8625 146.648 23.3299L146.662 23.3339C147.969 23.7995 149.353 24.007 150.738 23.945C151.798 23.7578 152.819 23.3952 153.76 22.8721C154.314 22.6004 154.883 22.3631 155.466 22.1616C158.056 21.2876 163.229 22.2042 165.168 24.3358C166.184 25.403 166.568 26.9265 166.18 28.3503C165.586 30.2724 164.088 31.7784 162.175 32.3789C159.558 33.101 156.772 32.8824 154.298 31.7608L153.958 31.6187C153.235 31.27 152.457 31.0512 151.658 30.9721Z" fill="#D1D3D4"/>
<path fill-rule="evenodd" clip-rule="evenodd" d="M155.806 27.1497C156.432 27.8775 157.362 28.2692 158.318 28.2084L158.764 28.2226C160.625 28.1804 162.427 27.5598 163.923 26.4463C166.768 24.1371 165.855 21.8563 165.055 20.7052C162.798 17.451 155.876 15.156 152.147 17.3586C150.782 18.1914 149.831 19.5642 149.528 21.1386C149.281 22.3406 149.568 23.5912 150.314 24.5634C150.983 25.349 151.953 25.8136 152.982 25.8423C153.554 25.8922 154.112 26.0438 154.631 26.29C155.064 26.5137 155.461 26.8038 155.806 27.1497ZM152.508 17.9342C153.509 17.3942 154.634 17.1294 155.77 17.1668C159.068 17.1668 162.96 18.8934 164.475 21.0818C165.6 22.7373 165.282 24.3929 163.477 25.8636C162.087 26.8654 160.431 27.4271 158.721 27.4765C157.819 27.6596 156.889 27.3357 156.294 26.631C155.46 25.7225 154.309 25.1727 153.081 25.0963C152.233 25.0869 151.43 24.7147 150.873 24.0731C150.25 23.268 150.014 22.2274 150.229 21.231C150.494 19.8595 151.321 18.663 152.508 17.9342Z" fill="#D1D3D4"/>
<path d="M50.317 25.6216C50.317 25.6216 52.6028 23.76 50.317 21.3584H46.6299C46.6299 21.3584 47.4225 24.4634 46.6299 25.6216H50.317Z" fill="#231F20"/>
<path fill-rule="evenodd" clip-rule="evenodd" d="M46.63 25.9764H50.317C50.3894 25.9709 50.4585 25.9437 50.5152 25.8982C51.1625 25.3371 51.5725 24.5495 51.6617 23.6956C51.6722 22.7151 51.2654 21.7767 50.5435 21.1164C50.4744 21.0508 50.3838 21.0129 50.2887 21.0098H46.6017C46.4917 21.0092 46.3875 21.0588 46.3186 21.1448C46.2556 21.2358 46.2326 21.3488 46.2549 21.4574C46.4672 22.2745 46.8847 24.5837 46.3115 25.415C46.2443 25.5289 46.2443 25.6706 46.3115 25.7845C46.3754 25.9015 46.4971 25.9748 46.63 25.9764ZM50.1755 25.2658H47.182C47.3964 24.0887 47.3529 22.8788 47.0546 21.7203H50.1401C50.6629 22.223 50.9571 22.9191 50.954 23.6458C50.8947 24.2616 50.6186 24.836 50.1755 25.2658Z" fill="#231F20"/>
<path d="M48.3143 24.2143C48.4229 23.374 48.1258 22.5321 47.5146 21.9478C47.2442 21.5946 46.933 21.275 46.5875 20.9957C45.9239 20.5624 45.1802 20.2676 44.4007 20.1288C42.681 19.7096 40.6712 20.2425 38.9161 20.278C37.0308 20.3139 35.1579 19.9659 33.4103 19.2549C32.8098 19.0513 32.2713 18.6966 31.8463 18.2246C31.4075 20.8038 31.4641 23.6459 32.9432 25.813C34.1965 27.4489 35.929 28.6491 37.897 29.2449C40.5606 30.3237 43.5962 29.8813 45.8444 28.0867C46.8536 27.3217 47.6325 26.2913 48.0949 25.1096C48.1974 24.8192 48.2709 24.5193 48.3143 24.2143Z" fill="white"/>
<path fill-rule="evenodd" clip-rule="evenodd" d="M37.7485 29.5791C38.778 29.9584 39.8647 30.1579 40.9614 30.1688C42.8168 30.1557 44.6121 29.5064 46.0497 28.3286C47.1077 27.5203 47.9251 26.4367 48.4134 25.1951C48.5345 24.8832 48.6222 24.5593 48.6752 24.2288C48.8049 23.288 48.4818 22.3413 47.8048 21.678C47.5118 21.3091 47.1822 20.971 46.8211 20.6691C46.1173 20.2072 45.3277 19.893 44.4999 19.7454C43.2565 19.5285 41.9853 19.5285 40.742 19.7454C40.6604 19.7545 40.5794 19.7637 40.4989 19.7729C39.9513 19.8352 39.4292 19.8946 38.9232 19.8946C37.0806 19.9514 35.2451 19.6399 33.5235 18.978C32.983 18.7922 32.4968 18.4748 32.1082 18.0543C32.0243 17.9429 31.8822 17.8925 31.7472 17.9265C31.6126 17.9625 31.5107 18.0731 31.4854 18.2107C30.9263 21.4507 31.3085 24.0867 32.6319 26.0265C33.9249 27.7193 35.7146 28.9619 37.7485 29.5791ZM33.2192 25.6072C32.0799 23.9233 31.7119 21.7207 32.0799 18.9496C32.4365 19.2176 32.8237 19.4419 33.2334 19.6175C35.0332 20.3382 36.9575 20.6932 38.8949 20.662C39.4586 20.6488 40.0587 20.5869 40.6389 20.527C40.6852 20.5223 40.7314 20.5175 40.7774 20.5128C41.9483 20.3106 43.145 20.3106 44.3159 20.5128C45.0482 20.642 45.7479 20.9149 46.3752 21.3157C46.6963 21.5634 46.9904 21.8445 47.2528 22.1541C47.7897 22.6669 48.0523 23.4052 47.9605 24.1436C47.9097 24.4253 47.8314 24.7014 47.7269 24.9678C47.2919 26.0925 46.5575 27.0756 45.6039 27.8099C43.4456 29.5207 40.5405 29.9408 37.9891 28.9112C36.0926 28.3409 34.4235 27.1848 33.2192 25.6072Z" fill="#231F20"/>
<rect x="92" y="5.69141" width="30.0486" height="19.9232" fill="white"/>
<path fill-rule="evenodd" clip-rule="evenodd" d="M91.9998 25.977H122.048C122.242 25.9732 122.399 25.8164 122.402 25.6217V5.68436C122.399 5.48975 122.242 5.33288 122.048 5.3291H91.9998C91.8044 5.3291 91.646 5.48816 91.646 5.68436V25.6217C91.646 25.8179 91.8044 25.977 91.9998 25.977ZM121.723 25.2665H92.3254L92.3537 6.04673H121.723V25.2665Z" fill="#D1D3D4"/>
<rect x="92" y="25.6211" width="30.0486" height="3.94342" fill="white"/>
<path fill-rule="evenodd" clip-rule="evenodd" d="M91.9998 29.9205H122.048C122.244 29.9205 122.402 29.7615 122.402 29.5653V25.6219C122.402 25.4257 122.244 25.2666 122.048 25.2666H91.9998C91.8044 25.2666 91.646 25.4257 91.646 25.6219V29.5653C91.646 29.7615 91.8044 29.9205 91.9998 29.9205ZM121.723 29.21H92.3254L92.3537 25.9771H121.723V29.21Z" fill="#D1D3D4"/>
<path d="M95.4395 20.9814C95.3015 20.9868 95.1734 20.9095 95.1134 20.7845C95.0535 20.6596 95.0732 20.5108 95.1635 20.4059C95.5032 19.9796 103.656 9.93982 111.256 10.5438C114.285 10.7853 116.352 12.3769 116.791 14.8069C117.197 16.9461 116.12 19.0924 114.165 20.0364C112.042 21.024 110.075 21.0098 108.702 19.9938C107.487 19.0202 106.923 17.4422 107.244 15.9153C107.302 14.5902 108.192 13.4483 109.459 13.0732C110.763 12.728 112.152 13.1227 113.082 14.1035C113.512 14.5791 113.605 15.2715 113.316 15.8443C112.778 16.8888 112.141 17.4359 111.419 17.4643C110.266 17.4643 109.416 16.1498 109.381 16.093C109.332 16.0121 109.317 15.9147 109.339 15.8226C109.362 15.7306 109.42 15.6514 109.501 15.6027C109.581 15.5536 109.677 15.5387 109.767 15.5614C109.858 15.5841 109.935 15.6426 109.983 15.7235C110.167 16.0148 110.754 16.7893 111.398 16.7538C112.042 16.7182 112.403 16.0432 112.686 15.5174C112.846 15.1952 112.783 14.8062 112.53 14.5511C111.782 13.7869 110.683 13.4833 109.65 13.7553C108.66 14.0622 107.974 14.9678 107.944 16.0077C107.667 17.2737 108.121 18.5888 109.119 19.4111C110.273 20.2709 112.007 20.2638 113.868 19.4111C115.535 18.593 116.438 16.7448 116.062 14.9206C115.687 12.8388 113.861 11.4674 111.171 11.2543C103.974 10.6574 95.7933 20.7469 95.7155 20.8535C95.6467 20.9348 95.5458 20.9816 95.4395 20.9814Z" fill="#D1D3D4"/>
<path fill-rule="evenodd" clip-rule="evenodd" d="M95.5951 44.1446H107.173C107.368 44.1446 107.527 43.9856 107.527 43.7894V34.5525C107.527 34.3563 107.368 34.1973 107.173 34.1973H95.5951C95.3996 34.1973 95.2412 34.3563 95.2412 34.5525V43.7894C95.2412 43.9856 95.3996 44.1446 95.5951 44.1446ZM106.819 43.4341H95.9489V34.9078H106.819V43.4341Z" fill="#D1D3D4"/>
<path d="M101.384 36.2367C101.189 36.2367 101.03 36.0776 101.03 35.8814V33.6717C101.03 33.4755 101.189 33.3164 101.384 33.3164C101.58 33.3164 101.738 33.4755 101.738 33.6717V35.8672C101.742 35.9639 101.706 36.0579 101.639 36.1276C101.573 36.1974 101.48 36.2367 101.384 36.2367Z" fill="#D1D3D4"/>
</svg>
