<svg width="181" height="108" viewBox="0 0 181 108" fill="none" xmlns="http://www.w3.org/2000/svg">
<path d="M54.2007 43.9342L58.9008 39.1035L54.2007 43.9342Z" fill="white"/>
<path d="M54.2009 44.2042C54.131 44.2047 54.0638 44.1773 54.0141 44.1279C53.9094 44.0225 53.9094 43.8518 54.0141 43.7463L58.685 38.9157C58.7894 38.8154 58.954 38.8159 59.0576 38.917C59.1613 39.018 59.1669 39.1834 59.0704 39.2913L54.3702 44.122C54.3252 44.1686 54.2652 44.1977 54.2009 44.2042Z" fill="#231F20"/>
<path d="M58.9008 43.9342L54.2007 39.1035L58.9008 43.9342Z" fill="white"/>
<path d="M58.9011 44.2033C58.8286 44.2026 58.7594 44.1731 58.7085 44.1212L54.0375 39.2905C53.9876 39.2409 53.9595 39.1733 53.9595 39.1027C53.9595 39.0321 53.9876 38.9645 54.0375 38.9149C54.1423 38.8096 54.3122 38.8096 54.417 38.9149L59.1172 43.7455C59.2187 43.8522 59.2187 44.0204 59.1172 44.127C59.0605 44.1843 58.981 44.2124 58.9011 44.2033Z" fill="#231F20"/>
<path d="M58.9009 43.9342L63.601 39.1035L58.9009 43.9342Z" fill="white"/>
<path d="M58.9007 44.2038C58.8307 44.205 58.7632 44.1775 58.7139 44.1275C58.6123 44.0208 58.6123 43.8527 58.7139 43.746L63.3848 38.9153C63.4342 38.8652 63.5015 38.8369 63.5717 38.8369C63.6419 38.8369 63.7092 38.8652 63.7585 38.9153C63.81 38.9641 63.8391 39.0321 63.8391 39.1032C63.8391 39.1743 63.81 39.2422 63.7585 39.291L59.0876 44.1216C59.0381 44.1721 58.9712 44.2016 58.9007 44.2038Z" fill="#231F20"/>
<path d="M63.601 43.9342L58.9009 39.1035L63.601 43.9342Z" fill="white"/>
<path d="M63.601 44.2042C63.5285 44.2034 63.4592 44.1739 63.4083 44.122L58.7373 39.2913C58.6408 39.1834 58.6464 39.018 58.7501 38.917C58.8537 38.8159 59.0183 38.8154 59.1227 38.9157L63.7936 43.7463C63.8454 43.7962 63.8747 43.8651 63.8747 43.9371C63.8747 44.0091 63.8454 44.078 63.7936 44.1279C63.7438 44.1807 63.6732 44.2086 63.601 44.2042Z" fill="#231F20"/>
<path d="M63.6011 43.9342L68.2954 39.1035L63.6011 43.9342Z" fill="white"/>
<path d="M63.6013 44.204C63.531 44.2067 63.463 44.1789 63.4144 44.1277C63.3098 44.0223 63.3098 43.8516 63.4144 43.7462L68.1146 38.9156C68.2209 38.8322 68.3722 38.8409 68.4683 38.936C68.5644 39.0311 68.5754 39.1831 68.4941 39.2912L63.794 44.1219C63.7431 44.1738 63.6738 44.2033 63.6013 44.204Z" fill="#231F20"/>
<path d="M68.2954 43.9342L63.6011 39.1035L68.2954 43.9342Z" fill="white"/>
<path d="M68.3129 44.204C68.2419 44.2045 68.174 44.1746 68.1261 44.1219L63.4259 39.2912C63.3446 39.1831 63.3556 39.0311 63.4517 38.936C63.5478 38.8409 63.6991 38.8322 63.8054 38.9156L68.5056 43.7462C68.6103 43.8516 68.6103 44.0223 68.5056 44.1277C68.4549 44.1792 68.3849 44.2069 68.3129 44.204Z" fill="#231F20"/>
<path d="M68.2954 43.9342L72.9956 39.1035L68.2954 43.9342Z" fill="white"/>
<path d="M68.3127 44.2042C68.2428 44.2047 68.1756 44.1773 68.1259 44.1279C68.0212 44.0225 68.0212 43.8518 68.1259 43.7463L72.7968 38.9157C72.9012 38.8154 73.0658 38.8159 73.1694 38.917C73.2731 39.018 73.2787 39.1834 73.1822 39.2913L68.5112 44.122C68.4589 44.1754 68.3872 44.205 68.3127 44.2042Z" fill="#231F20"/>
<path d="M72.9956 43.9342L68.2954 39.1035L72.9956 43.9342Z" fill="white"/>
<path d="M72.9837 44.2033C72.9111 44.2026 72.8419 44.1731 72.791 44.1212L68.12 39.2905C68.0701 39.2409 68.042 39.1733 68.042 39.1027C68.042 39.0321 68.0701 38.9645 68.12 38.9149C68.2249 38.8096 68.3947 38.8096 68.4995 38.9149L73.1705 43.7455C73.2721 43.8522 73.2721 44.0204 73.1705 44.127C73.1208 44.1764 73.0535 44.2039 72.9837 44.2033Z" fill="#231F20"/>
<path d="M72.9956 43.9342L77.6958 39.1035L72.9956 43.9342Z" fill="white"/>
<path d="M72.9837 44.2033C72.9137 44.2046 72.8462 44.177 72.7969 44.127C72.6953 44.0204 72.6953 43.8522 72.7969 43.7455L77.497 38.9149C77.6019 38.8096 77.7717 38.8096 77.8766 38.9149C77.9265 38.9645 77.9546 39.0321 77.9546 39.1027C77.9546 39.1733 77.9265 39.2409 77.8766 39.2905L73.2056 44.1212C73.1478 44.1808 73.0662 44.211 72.9837 44.2033Z" fill="#231F20"/>
<path d="M77.6958 43.9342L72.9956 39.1035L77.6958 43.9342Z" fill="white"/>
<path d="M77.6956 44.2042C77.6231 44.2034 77.5538 44.1739 77.5029 44.122L72.8028 39.2913C72.7062 39.1834 72.7118 39.018 72.8155 38.917C72.9192 38.8159 73.0838 38.8154 73.1881 38.9157L77.8591 43.7463C77.9638 43.8518 77.9638 44.0225 77.8591 44.1279C77.8152 44.1719 77.7573 44.1989 77.6956 44.2042Z" fill="#231F20"/>
<path d="M77.6958 43.9342L82.3901 39.1035L77.6958 43.9342Z" fill="white"/>
<path d="M77.6955 44.204C77.6255 44.2053 77.558 44.1777 77.5087 44.1277C77.404 44.0223 77.404 43.8516 77.5087 43.7462L82.1797 38.9156C82.2859 38.8322 82.4373 38.8409 82.5334 38.936C82.6294 39.0311 82.6405 39.1831 82.5592 39.2912L77.859 44.1219C77.8155 44.1672 77.7578 44.1962 77.6955 44.204Z" fill="#231F20"/>
<path d="M82.3901 43.9342L77.6958 39.1035L82.3901 43.9342Z" fill="white"/>
<path d="M82.3902 44.204C82.3194 44.2031 82.2521 44.1734 82.2033 44.1219L77.5324 39.2912C77.451 39.1831 77.4621 39.0311 77.5582 38.936C77.6543 38.8409 77.8056 38.8322 77.9119 38.9156L82.612 43.7462C82.7167 43.8516 82.7167 44.0223 82.612 44.1277C82.5546 44.1876 82.472 44.216 82.3902 44.204Z" fill="#231F20"/>
<path d="M82.3901 43.9342L87.0903 39.1035L82.3901 43.9342Z" fill="white"/>
<path d="M82.3899 44.2042C82.32 44.2047 82.2527 44.1773 82.203 44.1279C82.0983 44.0225 82.0983 43.8518 82.203 43.7463L86.874 38.9157C86.9783 38.8154 87.1429 38.8159 87.2466 38.917C87.3503 39.018 87.3559 39.1834 87.2593 39.2913L82.5592 44.122C82.5141 44.1686 82.4542 44.1977 82.3899 44.2042Z" fill="#231F20"/>
<path d="M87.0903 43.9342L82.3901 39.1035L87.0903 43.9342Z" fill="white"/>
<path d="M87.0901 44.2033C87.0176 44.2026 86.9483 44.1731 86.8974 44.1212L82.2265 39.2905C82.1765 39.2409 82.1484 39.1733 82.1484 39.1027C82.1484 39.0321 82.1765 38.9645 82.2265 38.9149C82.3313 38.8096 82.5011 38.8096 82.606 38.9149L87.3061 43.7455C87.4077 43.8522 87.4077 44.0204 87.3061 44.127C87.2495 44.1843 87.1699 44.2124 87.0901 44.2033Z" fill="#231F20"/>
<path d="M93.8105 43.9342L98.5107 39.1035L93.8105 43.9342Z" fill="white"/>
<path d="M93.8108 44.2042C93.7409 44.2047 93.6736 44.1773 93.6239 44.1279C93.5192 44.0225 93.5192 43.8518 93.6239 43.7463L98.2949 38.9157C98.3992 38.8154 98.5638 38.8159 98.6675 38.917C98.7712 39.018 98.7768 39.1834 98.6802 39.2913L94.0034 44.122C93.9525 44.1739 93.8833 44.2034 93.8108 44.2042Z" fill="#231F20"/>
<path d="M98.5107 43.9342L93.8105 39.1035L98.5107 43.9342Z" fill="white"/>
<path d="M98.5105 44.2033C98.438 44.2026 98.3687 44.1731 98.3178 44.1212L93.6469 39.2905C93.5969 39.2409 93.5688 39.1733 93.5688 39.1027C93.5688 39.0321 93.5969 38.9645 93.6469 38.9149C93.7517 38.8096 93.9215 38.8096 94.0264 38.9149L98.7265 43.7455C98.8281 43.8522 98.8281 44.0204 98.7265 44.127C98.6704 44.1851 98.5904 44.2134 98.5105 44.2033Z" fill="#231F20"/>
<path d="M98.5107 43.9342L103.211 39.1035L98.5107 43.9342Z" fill="white"/>
<path d="M98.5106 44.2033C98.4407 44.2039 98.3734 44.1764 98.3237 44.127C98.2222 44.0204 98.2222 43.8522 98.3237 43.7455L103.024 38.9149C103.129 38.8096 103.299 38.8096 103.403 38.9149C103.453 38.9645 103.481 39.0321 103.481 39.1027C103.481 39.1733 103.453 39.2409 103.403 39.2905L98.7325 44.1212C98.6746 44.1808 98.5931 44.211 98.5106 44.2033Z" fill="#231F20"/>
<path d="M103.211 43.9342L98.5107 39.1035L103.211 43.9342Z" fill="white"/>
<path d="M103.211 44.2042C103.138 44.2034 103.069 44.1739 103.018 44.122L98.3179 39.2913C98.2213 39.1834 98.227 39.018 98.3306 38.917C98.4343 38.8159 98.5989 38.8154 98.7032 38.9157L103.374 43.7463C103.479 43.8518 103.479 44.0225 103.374 44.1279C103.33 44.1719 103.272 44.1989 103.211 44.2042Z" fill="#231F20"/>
<path d="M103.211 43.9342L107.905 39.1035L103.211 43.9342Z" fill="white"/>
<path d="M103.211 44.204C103.141 44.2053 103.073 44.1777 103.024 44.1277C102.922 44.0211 102.922 43.8529 103.024 43.7462L107.724 38.9156C107.83 38.8322 107.982 38.8409 108.078 38.936C108.174 39.0311 108.185 39.1831 108.104 39.2912L103.433 44.1219C103.377 44.1847 103.294 44.2156 103.211 44.204Z" fill="#231F20"/>
<path d="M107.905 43.9342L103.211 39.1035L107.905 43.9342Z" fill="white"/>
<path d="M107.905 44.2038C107.835 44.2016 107.768 44.1721 107.718 44.1216L103.018 39.291C102.917 39.1863 102.917 39.02 103.018 38.9153C103.067 38.8652 103.135 38.8369 103.205 38.8369C103.275 38.8369 103.342 38.8652 103.392 38.9153L108.063 43.746C108.167 43.8514 108.167 44.0221 108.063 44.1275C108.021 44.1716 107.965 44.1987 107.905 44.2038Z" fill="#231F20"/>
<path d="M107.905 43.9342L112.605 39.1035L107.905 43.9342Z" fill="white"/>
<path d="M107.905 44.2038C107.837 44.2048 107.771 44.1772 107.724 44.1275C107.672 44.0777 107.643 44.0088 107.643 43.9368C107.643 43.8647 107.672 43.7958 107.724 43.746L112.395 38.9153C112.444 38.8652 112.512 38.8369 112.582 38.8369C112.652 38.8369 112.719 38.8652 112.769 38.9153C112.87 39.02 112.87 39.1863 112.769 39.291L108.069 44.1216C108.025 44.167 107.967 44.196 107.905 44.2038Z" fill="#231F20"/>
<path d="M112.605 43.9342L107.905 39.1035L112.605 43.9342Z" fill="white"/>
<path d="M112.605 44.2038C112.534 44.2042 112.466 44.1744 112.419 44.1216L107.748 39.291C107.696 39.2422 107.667 39.1743 107.667 39.1032C107.667 39.0321 107.696 38.9641 107.748 38.9153C107.797 38.8652 107.864 38.8369 107.934 38.8369C108.005 38.8369 108.072 38.8652 108.121 38.9153L112.821 43.746C112.923 43.8527 112.923 44.0208 112.821 44.1275C112.765 44.1856 112.685 44.2138 112.605 44.2038Z" fill="#231F20"/>
<path d="M112.605 43.9342L117.306 39.1035L112.605 43.9342Z" fill="white"/>
<path d="M112.605 44.2042C112.535 44.2047 112.468 44.1773 112.418 44.1279C112.314 44.0225 112.314 43.8518 112.418 43.7463L117.089 38.9157C117.194 38.8154 117.358 38.8159 117.462 38.917C117.566 39.018 117.571 39.1834 117.475 39.2913L112.775 44.122C112.729 44.1686 112.669 44.1977 112.605 44.2042Z" fill="#231F20"/>
<path d="M117.306 43.9342L112.605 39.1035L117.306 43.9342Z" fill="white"/>
<path d="M117.305 44.2033C117.233 44.2026 117.164 44.1731 117.113 44.1212L112.442 39.2905C112.392 39.2409 112.364 39.1733 112.364 39.1027C112.364 39.0321 112.392 38.9645 112.442 38.9149C112.547 38.8096 112.716 38.8096 112.821 38.9149L117.521 43.7455C117.623 43.8522 117.623 44.0204 117.521 44.127C117.465 44.1843 117.385 44.2124 117.305 44.2033Z" fill="#231F20"/>
<path d="M117.306 43.9342L122.006 39.1035L117.306 43.9342Z" fill="white"/>
<path d="M117.306 44.2038C117.235 44.205 117.168 44.1775 117.119 44.1275C117.017 44.0208 117.017 43.8527 117.119 43.746L121.79 38.9153C121.839 38.8652 121.906 38.8369 121.976 38.8369C122.047 38.8369 122.114 38.8652 122.163 38.9153C122.215 38.9641 122.244 39.0321 122.244 39.1032C122.244 39.1743 122.215 39.2422 122.163 39.291L117.492 44.1216C117.443 44.1721 117.376 44.2016 117.306 44.2038Z" fill="#231F20"/>
<path d="M122.006 43.9342L117.306 39.1035L122.006 43.9342Z" fill="white"/>
<path d="M122.029 44.2042C121.957 44.2034 121.887 44.1739 121.837 44.122L117.166 39.2913C117.069 39.1834 117.075 39.018 117.178 38.917C117.282 38.8159 117.447 38.8154 117.551 38.9157L122.222 43.7463C122.274 43.7962 122.303 43.8651 122.303 43.9371C122.303 44.0091 122.274 44.078 122.222 44.1279C122.172 44.1807 122.101 44.2086 122.029 44.2042Z" fill="#231F20"/>
<path d="M122.006 43.9342L126.7 39.1035L122.006 43.9342Z" fill="white"/>
<path d="M122.029 44.2038C121.959 44.205 121.892 44.1775 121.842 44.1275C121.738 44.0221 121.738 43.8514 121.842 43.746L126.542 38.9153C126.592 38.8652 126.659 38.8369 126.729 38.8369C126.799 38.8369 126.867 38.8652 126.916 38.9153C127.017 39.02 127.017 39.1863 126.916 39.291L122.245 44.1216C122.189 44.1797 122.11 44.2097 122.029 44.2038Z" fill="#231F20"/>
<path d="M126.7 43.9342L122.006 39.1035L126.7 43.9342Z" fill="white"/>
<path d="M126.7 44.204C126.629 44.2045 126.561 44.1746 126.513 44.1219L121.813 39.2912C121.732 39.1831 121.743 39.0311 121.839 38.936C121.935 38.8409 122.086 38.8322 122.193 38.9156L126.864 43.7462C126.965 43.8529 126.965 44.0211 126.864 44.1277C126.82 44.1722 126.762 44.1993 126.7 44.204Z" fill="#231F20"/>
<path d="M132.113 39.1855H48.8877C48.817 39.1871 48.7487 39.16 48.6981 39.1103C48.6476 39.0605 48.6191 38.9925 48.6191 38.9214C48.6191 38.7723 48.7394 38.6514 48.8877 38.6514H132.113C132.261 38.6514 132.381 38.7723 132.381 38.9214C132.381 38.9925 132.353 39.0605 132.302 39.1103C132.252 39.16 132.183 39.1871 132.113 39.1855Z" fill="#231F20"/>
<rect x="52.2739" y="85.1201" width="76.4462" height="2.67065" fill="white"/>
<path fill-rule="evenodd" clip-rule="evenodd" d="M52.274 88.0436H128.726C128.869 88.0437 128.986 87.929 128.989 87.7854V85.1089C128.989 84.963 128.871 84.8447 128.726 84.8447H52.274C52.1289 84.8447 52.0112 84.963 52.0112 85.1089V87.7795C52.0112 87.9254 52.1289 88.0436 52.274 88.0436ZM128.452 87.5271H52.5484V85.3906H128.452V87.5271Z" fill="#231F20"/>
<path d="M128.726 87.7969V103.645H119.571C119.571 103.645 113.318 89.4404 90.5 89.4404C67.6823 89.4404 61.429 103.645 61.429 103.645H52.2739V87.7969H128.726Z" fill="white"/>
<path fill-rule="evenodd" clip-rule="evenodd" d="M119.571 103.892H128.726C128.874 103.892 128.995 103.771 128.995 103.622V87.7739C128.995 87.7023 128.966 87.6336 128.916 87.583C128.866 87.5324 128.797 87.5039 128.726 87.5039H52.274C52.2027 87.5039 52.1344 87.5324 52.084 87.583C52.0337 87.6336 52.0054 87.7023 52.0054 87.7739V103.622C52.0054 103.693 52.0337 103.762 52.084 103.813C52.1344 103.863 52.2027 103.892 52.274 103.892H61.429C61.5338 103.889 61.6284 103.828 61.6743 103.733C61.7327 103.592 68.1377 89.6815 90.5 89.6815C112.862 89.6815 119.267 103.592 119.326 103.733C119.372 103.828 119.466 103.889 119.571 103.892ZM128.452 103.358H119.74V103.381C118.946 101.802 111.922 89.1533 90.5058 89.1533C69.0894 89.1533 62.0596 101.785 61.2656 103.363H52.5484V88.0439H128.452V103.358Z" fill="#231F20"/>
<rect x="49.3486" y="43.9336" width="82.3025" height="2.44761" fill="#231F20"/>
<path fill-rule="evenodd" clip-rule="evenodd" d="M49.3256 46.6752H131.651C131.731 46.6753 131.807 46.6427 131.862 46.5851C131.917 46.5275 131.947 46.4498 131.943 46.37V43.9341C131.943 43.772 131.813 43.6406 131.651 43.6406H49.3256C49.1644 43.6406 49.0337 43.772 49.0337 43.9341V46.3817C49.0337 46.5438 49.1644 46.6752 49.3256 46.6752ZM131.371 46.0882H49.6409L49.6292 44.2276H131.371V46.0882Z" fill="#231F20"/>
<path d="M87.1895 37.9346L90.5 35.6396L93.8105 37.9346V43.9333H87.1895V37.9346Z" fill="#E7816B"/>
<path fill-rule="evenodd" clip-rule="evenodd" d="M86.9209 43.9336C86.9209 44.0827 87.0411 44.2036 87.1895 44.2036H93.8106C93.9589 44.2036 94.0792 44.0827 94.0792 43.9336V37.9349C94.0793 37.8457 94.0356 37.7623 93.9624 37.7119L90.6518 35.4169C90.559 35.3584 90.4411 35.3584 90.3482 35.4169L87.0377 37.7119C86.9645 37.7623 86.9208 37.8457 86.9209 37.9349V43.9336ZM93.5478 38.0758V43.6695H87.4522V38.0758L90.5 35.9627L93.5478 38.0758Z" fill="#231F20"/>
<path d="M87.1894 42.6302C87.1187 42.6318 87.0504 42.6047 86.9998 42.5549C86.9493 42.5052 86.9208 42.4372 86.9208 42.3661V36.3322C86.9053 36.2273 86.9523 36.123 87.0409 36.0656C87.1295 36.0081 87.2434 36.0081 87.332 36.0656C87.4207 36.123 87.4676 36.2273 87.4521 36.3322V42.3661C87.4521 42.512 87.3345 42.6302 87.1894 42.6302Z" fill="#231F20"/>
<path d="M93.8105 42.6302C93.6654 42.6302 93.5478 42.512 93.5478 42.3661V36.3322C93.5323 36.2273 93.5792 36.123 93.6679 36.0656C93.7565 36.0081 93.8704 36.0081 93.959 36.0656C94.0476 36.123 94.0946 36.2273 94.0791 36.3322V42.3661C94.0791 42.4372 94.0506 42.5052 94.0001 42.5549C93.9495 42.6047 93.8812 42.6318 93.8105 42.6302Z" fill="#231F20"/>
<path d="M90.4999 35.9101C90.3529 35.907 90.2345 35.7879 90.2314 35.6401V33.9731C90.2314 33.824 90.3516 33.7031 90.4999 33.7031C90.6483 33.7031 90.7685 33.824 90.7685 33.9731V35.6401C90.7654 35.7879 90.647 35.907 90.4999 35.9101Z" fill="#231F20"/>
<path d="M0.321248 85.1086V69.4309C19.0051 66.3025 37.689 43.3936 37.689 43.3936L36.6614 47.9073C36.6614 47.9073 17.633 69.5249 0.30957 71.5381" fill="#231F20"/>
<path fill-rule="evenodd" clip-rule="evenodd" d="M0.0292969 85.1203C0.0292969 85.2824 0.160001 85.4138 0.321232 85.4138C0.400725 85.4139 0.476806 85.3813 0.531903 85.3237C0.587 85.2661 0.616348 85.1884 0.613168 85.1086V71.8023C17.7848 69.6188 36.7022 48.324 36.8891 48.1068C36.9247 48.0717 36.9491 48.0268 36.9591 47.9777L37.9809 43.464C38.0075 43.3328 37.9459 43.1996 37.8291 43.1353C37.7057 43.0777 37.559 43.1115 37.4729 43.2175C37.4711 43.2197 37.4676 43.224 37.4623 43.2303C36.923 43.8793 18.4585 66.1035 0.274523 69.1434C0.133032 69.1689 0.0298597 69.2923 0.0292969 69.4368V71.5381V85.1203ZM0.613168 71.2036V69.6775C16.9791 66.7897 33.4326 48.776 37.1518 44.4912L36.4045 47.7664C35.3243 48.9755 17.1192 69.0553 0.613168 71.2036Z" fill="#231F20"/>
<path d="M5.97284 85.3904C5.90213 85.3904 5.8344 85.3618 5.78495 85.311C5.73551 85.2601 5.70852 85.1914 5.71009 85.1204V70.2469C5.72966 70.1146 5.84267 70.0166 5.97575 70.0166C6.10884 70.0166 6.22185 70.1146 6.24142 70.2469V85.1086C6.24636 85.1827 6.22006 85.2555 6.16896 85.3091C6.11786 85.3627 6.04667 85.3922 5.97284 85.3904Z" fill="#231F20"/>
<path d="M12.0163 85.3899C11.9446 85.3916 11.8753 85.3636 11.8246 85.3127C11.7739 85.2617 11.7461 85.192 11.7477 85.1199V67.6815C11.7673 67.5491 11.8803 67.4512 12.0134 67.4512C12.1464 67.4512 12.2594 67.5491 12.279 67.6815V85.1082C12.2839 85.1813 12.2583 85.2531 12.2085 85.3065C12.1587 85.3599 12.0891 85.3901 12.0163 85.3899Z" fill="#231F20"/>
<path d="M18.3279 85.3902C18.2567 85.3902 18.1884 85.3617 18.138 85.3111C18.0877 85.2605 18.0594 85.1918 18.0594 85.1202V63.978C18.0594 63.8289 18.1796 63.708 18.3279 63.708C18.4763 63.708 18.5965 63.8289 18.5965 63.978V85.1084C18.5997 85.1821 18.5728 85.2538 18.5221 85.307C18.4714 85.3602 18.4012 85.3903 18.3279 85.3902Z" fill="#231F20"/>
<path d="M24.6393 85.3909C24.5686 85.3909 24.5009 85.3622 24.4515 85.3114C24.402 85.2606 24.375 85.1919 24.3766 85.1209V59.283C24.3962 59.1507 24.5092 59.0527 24.6423 59.0527C24.7753 59.0527 24.8884 59.1507 24.9079 59.283V85.1091C24.9129 85.1832 24.8866 85.256 24.8355 85.3096C24.7844 85.3632 24.7132 85.3927 24.6393 85.3909Z" fill="#231F20"/>
<path d="M44.7773 6.28655C44.6312 6.28658 44.5119 6.16924 44.5087 6.02242V0.692852C44.5087 0.543735 44.629 0.422852 44.7773 0.422852C44.9256 0.422852 45.0459 0.543735 45.0459 0.692852V6.02242C45.0427 6.16924 44.9234 6.28658 44.7773 6.28655Z" fill="#231F20"/>
<path d="M44.0298 7.43066H45.5245L52.0055 34.2194H37.5488L44.0298 7.43066Z" fill="#231F20"/>
<path fill-rule="evenodd" clip-rule="evenodd" d="M37.5547 34.5075H52.0055C52.0983 34.5098 52.1868 34.4686 52.2449 34.396C52.2992 34.3263 52.3186 34.2354 52.2975 34.1494L45.8223 7.36661C45.7947 7.23319 45.6777 7.13761 45.5421 7.1377H44.0299C43.8936 7.13922 43.7758 7.2335 43.7438 7.36661L37.2686 34.1494C37.2475 34.2354 37.2669 34.3263 37.3212 34.396C37.3781 34.4669 37.4641 34.508 37.5547 34.5075ZM51.6319 33.9205H37.9226L44.2576 7.72465H45.2969L51.6319 33.9205Z" fill="#231F20"/>
<rect x="44.0356" y="5.42383" width="1.48887" height="2.00739" fill="#231F20"/>
<path fill-rule="evenodd" clip-rule="evenodd" d="M44.059 7.72423H45.5421C45.7033 7.72423 45.834 7.59284 45.834 7.43075V5.42336C45.834 5.26128 45.7033 5.12988 45.5421 5.12988H44.059C43.8978 5.12988 43.7671 5.26128 43.7671 5.42336V7.43075C43.7671 7.59284 43.8978 7.72423 44.059 7.72423ZM45.2735 7.13727H44.3743V5.71684H45.2735V7.13727Z" fill="#231F20"/>
<path d="M47.9356 33.3386V26.9936L44.7769 21.6523L41.6182 26.9936V33.3386H38.582V84.1163H50.9718V33.3386H47.9356Z" fill="#E7816B"/>
<path fill-rule="evenodd" clip-rule="evenodd" d="M38.5879 84.3863H50.9718C51.1156 84.3832 51.2315 84.2668 51.2346 84.1222V33.3446C51.2346 33.1987 51.1169 33.0805 50.9718 33.0805H48.1984V26.9996C48.1987 26.9523 48.1866 26.9057 48.1634 26.8646L45.0047 21.5233C44.9537 21.4471 44.8683 21.4014 44.7769 21.4014C44.6856 21.4014 44.6002 21.4471 44.5492 21.5233L41.3905 26.8646C41.3673 26.9057 41.3552 26.9523 41.3555 26.9996V33.0746H38.5879C38.5172 33.073 38.4489 33.1001 38.3983 33.1498C38.3478 33.1995 38.3193 33.2676 38.3193 33.3387V84.1163C38.3193 84.2654 38.4396 84.3863 38.5879 84.3863ZM50.7032 83.8463H38.8507L38.7923 33.6087H41.5598C41.7082 33.6087 41.8284 33.4878 41.8284 33.3387V27.0641L44.7478 22.1748L47.6671 27.0641V33.3387C47.6702 33.4865 47.7887 33.6056 47.9357 33.6087H50.7032V83.8463Z" fill="#231F20"/>
<path d="M50.9718 38.2578H38.5879C38.4835 38.2734 38.3798 38.2262 38.3227 38.1371C38.2655 38.048 38.2655 37.9335 38.3227 37.8444C38.3798 37.7553 38.4835 37.7081 38.5879 37.7237H50.9718C51.1034 37.7434 51.2008 37.857 51.2008 37.9907C51.2008 38.1245 51.1034 38.2381 50.9718 38.2578Z" fill="#231F20"/>
<path d="M42.5873 47.9364H40.6313V41.5738C40.6313 41.0279 41.6123 40.1475 41.6123 40.1475C41.6123 40.1475 42.5873 41.0279 42.5873 41.5738V47.9364Z" fill="#231F20"/>
<path d="M45.7582 47.9364H43.7905V41.5738C43.7905 41.0279 44.7714 40.1475 44.7714 40.1475C44.7714 40.1475 45.7523 41.0279 45.7523 41.5738L45.7582 47.9364Z" fill="#231F20"/>
<path d="M48.9228 47.9364H46.9668V41.5738C46.9668 41.0279 47.9419 40.1475 47.9419 40.1475C47.9419 40.1475 48.9228 41.0279 48.9228 41.5738V47.9364Z" fill="#231F20"/>
<path d="M42.5873 59.87H40.6313V53.4781C40.6313 52.9381 41.6123 52.0518 41.6123 52.0518C41.6123 52.0518 42.5873 52.9381 42.5873 53.4781V59.87Z" fill="#231F20"/>
<path d="M45.7582 59.87H43.7905V53.4781C43.7905 52.9381 44.7714 52.0518 44.7714 52.0518C44.7714 52.0518 45.7523 52.9381 45.7523 53.4781L45.7582 59.87Z" fill="#231F20"/>
<path d="M48.9228 59.87H46.9668V53.4781C46.9668 52.9381 47.9419 52.0518 47.9419 52.0518C47.9419 52.0518 48.9228 52.9381 48.9228 53.4781V59.87Z" fill="#231F20"/>
<path d="M42.5873 71.7557H40.6313V65.3872C40.6313 64.8414 41.6123 63.9609 41.6123 63.9609C41.6123 63.9609 42.5873 64.8414 42.5873 65.3872V71.7557Z" fill="#231F20"/>
<path d="M45.7582 71.7557H43.7905V65.3872C43.7905 64.8414 44.7714 63.9609 44.7714 63.9609C44.7714 63.9609 45.7523 64.8414 45.7523 65.3872L45.7582 71.7557Z" fill="#231F20"/>
<path d="M48.9228 71.7557H46.9668V65.3872C46.9668 64.8414 47.9419 63.9609 47.9419 63.9609C47.9419 63.9609 48.9228 64.8414 48.9228 65.3872V71.7557Z" fill="#231F20"/>
<path d="M50.5282 75.2715H39.0259C38.8798 75.2715 38.7605 75.1542 38.7573 75.0074C38.7604 74.8595 38.8789 74.7405 39.0259 74.7374H50.5282C50.6752 74.7405 50.7936 74.8595 50.7967 75.0074C50.7936 75.1542 50.6742 75.2715 50.5282 75.2715Z" fill="#231F20"/>
<path d="M36.5271 13.6113L39.4815 24.922H33.5728L36.5271 13.6113Z" fill="#231F20"/>
<path fill-rule="evenodd" clip-rule="evenodd" d="M33.5725 25.2387H39.4813C39.5669 25.2334 39.6459 25.1905 39.6973 25.1213C39.7543 25.0507 39.7739 24.9567 39.7498 24.8689L36.7954 13.5583C36.7582 13.4273 36.6391 13.3369 36.5035 13.3369C36.3679 13.3369 36.2488 13.4273 36.2116 13.5583L33.2922 24.8689C33.2684 24.9558 33.2856 25.0489 33.3389 25.1213C33.3952 25.1938 33.481 25.237 33.5725 25.2387ZM39.1193 24.6518H33.952L36.5444 14.785L39.1193 24.6518Z" fill="#231F20"/>
<path d="M34.6353 24.9219L34.7579 43.7749L35.8847 46.7919V84.1164H39.5106V46.4104L38.6289 44.4323V24.9219H34.6353Z" fill="#E7816B"/>
<path fill-rule="evenodd" clip-rule="evenodd" d="M35.8848 84.3869H39.5107C39.6554 84.3807 39.7705 84.2625 39.7734 84.1169V46.4108C39.7794 46.3759 39.7794 46.3401 39.7734 46.3052L38.9151 44.3741V24.9223C38.9151 24.7732 38.7949 24.6523 38.6465 24.6523H34.6529C34.5831 24.6524 34.5161 24.6798 34.466 24.7286C34.4144 24.7798 34.385 24.8495 34.3843 24.9223L34.5127 43.7754C34.5071 43.8064 34.5071 43.8382 34.5127 43.8693L35.6162 46.8393V84.1169C35.6193 84.2647 35.7378 84.3838 35.8848 84.3869ZM39.2421 83.8469H36.1534L36.1592 46.7865C36.1643 46.7554 36.1643 46.7237 36.1592 46.6926L35.0499 43.7226L34.9273 25.1865H38.3838V44.4328C38.3784 44.4698 38.3784 44.5073 38.3838 44.5443L39.2421 46.4695V83.8469Z" fill="#231F20"/>
<path d="M38.6287 37.4424H34.7168C34.6125 37.458 34.5087 37.4107 34.4516 37.3216C34.3944 37.2326 34.3944 37.1181 34.4516 37.029C34.5087 36.9399 34.6125 36.8927 34.7168 36.9082H38.6287C38.733 36.8927 38.8367 36.9399 38.8939 37.029C38.9511 37.1181 38.9511 37.2326 38.8939 37.3216C38.8367 37.4107 38.733 37.458 38.6287 37.4424Z" fill="#231F20"/>
<path d="M39.5106 47.0566H35.8847C35.7804 47.0722 35.6767 47.025 35.6195 46.9359C35.5624 46.8468 35.5624 46.7323 35.6195 46.6432C35.6767 46.5541 35.7804 46.5069 35.8847 46.5225H39.5106C39.6149 46.5069 39.7186 46.5541 39.7758 46.6432C39.8329 46.7323 39.8329 46.8468 39.7758 46.9359C39.7186 47.025 39.6149 47.0722 39.5106 47.0566Z" fill="#231F20"/>
<path d="M53.0271 13.6113L50.0728 24.922H55.9815L53.0271 13.6113Z" fill="#231F20"/>
<path fill-rule="evenodd" clip-rule="evenodd" d="M49.8449 25.1213C49.8987 25.1936 49.9827 25.2369 50.0726 25.2387H55.9813C56.0789 25.2425 56.1724 25.1988 56.2324 25.1213C56.2869 25.0495 56.3062 24.9567 56.285 24.8689L53.3306 13.5583C53.2933 13.4273 53.1742 13.3369 53.0386 13.3369C52.9031 13.3369 52.7839 13.4273 52.7467 13.5583L49.7923 24.8689C49.7683 24.9567 49.7878 25.0507 49.8449 25.1213ZM53.027 14.785L55.6018 24.6518H50.4521L53.027 14.785Z" fill="#231F20"/>
<path d="M54.9188 24.9219L54.7962 43.7749L53.6693 46.7919V84.1164H50.0435V46.4104L50.9251 44.4323V24.9219H54.9188Z" fill="#E7816B"/>
<path fill-rule="evenodd" clip-rule="evenodd" d="M50.0436 84.3864H53.6694C53.8119 84.3773 53.9236 84.2599 53.9263 84.1164V46.8388L55.0357 43.8688C55.0385 43.8376 55.0385 43.8062 55.0357 43.7749L55.1641 24.9219C55.1675 24.8493 55.1403 24.7786 55.0892 24.7272C55.038 24.6759 54.9678 24.6485 54.8956 24.6519H50.9019C50.7535 24.6519 50.6333 24.7728 50.6333 24.9219V44.3736L49.775 46.3047C49.769 46.3397 49.769 46.3754 49.775 46.4104V84.1164C49.7781 84.2643 49.8966 84.3833 50.0436 84.3864ZM53.4008 83.8465H50.3122L50.318 46.4691L51.1763 44.5438C51.1846 44.5071 51.1846 44.469 51.1763 44.4323V25.186H54.6328L54.5102 43.7221L53.4008 46.6921C53.3958 46.7232 53.3958 46.7549 53.4008 46.786V83.8465Z" fill="#231F20"/>
<path d="M54.8372 37.4424H50.9253C50.8209 37.458 50.7172 37.4107 50.6601 37.3216C50.6029 37.2326 50.6029 37.1181 50.6601 37.029C50.7172 36.9399 50.8209 36.8927 50.9253 36.9082H54.8372C54.9415 36.8927 55.0452 36.9399 55.1024 37.029C55.1596 37.1181 55.1596 37.2326 55.1024 37.3216C55.0452 37.4107 54.9415 37.458 54.8372 37.4424Z" fill="#231F20"/>
<path d="M53.6693 47.0566H50.0434C49.9391 47.0722 49.8354 47.025 49.7782 46.9359C49.7211 46.8468 49.7211 46.7323 49.7782 46.6432C49.8354 46.5541 49.9391 46.5069 50.0434 46.5225H53.6693C53.7736 46.5069 53.8773 46.5541 53.9345 46.6432C53.9916 46.7323 53.9916 46.8468 53.9345 46.9359C53.8773 47.025 53.7736 47.0722 53.6693 47.0566Z" fill="#231F20"/>
<path d="M36.5268 14.3454C36.3785 14.3454 36.2582 14.2245 36.2582 14.0754V11.4399C36.2582 11.2908 36.3785 11.1699 36.5268 11.1699C36.6751 11.1699 36.7954 11.2908 36.7954 11.4399V14.0871C36.7891 14.2316 36.6707 14.3455 36.5268 14.3454Z" fill="#231F20"/>
<path d="M53.0273 14.345C52.9566 14.345 52.8889 14.3164 52.8394 14.2656C52.79 14.2148 52.763 14.1461 52.7646 14.075V11.4396C52.749 11.3347 52.796 11.2304 52.8847 11.173C52.9733 11.1155 53.0872 11.1155 53.1758 11.173C53.2644 11.2304 53.3114 11.3347 53.2959 11.4396V14.0868C53.2943 14.1568 53.2652 14.2234 53.2148 14.2718C53.1644 14.3203 53.097 14.3466 53.0273 14.345Z" fill="#231F20"/>
<rect x="31.8267" y="84.1172" width="25.8772" height="19.5339" fill="#E7816B"/>
<path fill-rule="evenodd" clip-rule="evenodd" d="M31.8267 103.891H57.7097C57.8473 103.892 57.9633 103.788 57.9783 103.651V84.1167C57.9752 83.9689 57.8567 83.8498 57.7097 83.8467H31.8267C31.6807 83.8499 31.5639 83.9698 31.564 84.1167V103.627C31.564 103.773 31.6816 103.891 31.8267 103.891ZM57.4586 103.381H32.1128V84.3867H57.4586V103.381Z" fill="#231F20"/>
<path d="M45.7582 34.2137H43.7905V27.8511C43.7905 27.3052 44.7714 26.4248 44.7714 26.4248C44.7714 26.4248 45.7523 27.3052 45.7523 27.8511L45.7582 34.2137Z" fill="#231F20"/>
<path fill-rule="evenodd" clip-rule="evenodd" d="M43.7905 34.5074H45.7581C45.9171 34.5042 46.0442 34.3737 46.0442 34.2139V27.8513C46.0442 27.2056 45.1451 26.3663 44.9641 26.2078C44.8549 26.1078 44.6879 26.1078 44.5787 26.2078C44.3977 26.3663 43.4985 27.2056 43.4985 27.8513V34.2139C43.4985 34.376 43.6292 34.5074 43.7905 34.5074ZM45.4662 33.9204H44.0882V27.8513C44.2211 27.4541 44.4593 27.101 44.7772 26.83C45.0951 27.101 45.3333 27.4541 45.4662 27.8513V33.9204Z" fill="#231F20"/>
<rect x="0.321289" y="85.1201" width="31.5057" height="2.67065" fill="white"/>
<path fill-rule="evenodd" clip-rule="evenodd" d="M0.297898 88.0437H31.8269C31.8966 88.0453 31.9641 88.0189 32.0144 87.9705C32.0648 87.9221 32.094 87.8555 32.0955 87.7854V85.1089C32.0955 85.0378 32.067 84.9698 32.0165 84.92C31.966 84.8703 31.8976 84.8432 31.8269 84.8448H0.297898C0.228215 84.8448 0.161385 84.8726 0.112112 84.9222C0.0628379 84.9717 0.0351562 85.0389 0.0351562 85.1089V87.7796C0.0351562 87.9254 0.15279 88.0437 0.297898 88.0437ZM31.5642 87.5272H0.583995V85.3907H31.5642V87.5272Z" fill="#231F20"/>
<rect x="0.321289" y="87.7969" width="31.5057" height="15.8537" fill="white"/>
<path fill-rule="evenodd" clip-rule="evenodd" d="M0.297535 103.891H31.8266C31.8973 103.892 31.9656 103.865 32.0161 103.816C32.0667 103.766 32.0952 103.698 32.0951 103.627V87.7789C32.0968 87.7068 32.069 87.6372 32.0183 87.5862C31.9675 87.5352 31.8983 87.5073 31.8266 87.5089H0.297535C0.226828 87.5089 0.159098 87.5375 0.109653 87.5883C0.0602079 87.6392 0.0332215 87.7079 0.0347928 87.7789V103.627C0.0347928 103.773 0.152426 103.891 0.297535 103.891ZM31.5638 103.38H0.583631V88.043H31.5638V103.38Z" fill="#231F20"/>
<path d="M30.9452 85.3901C30.8735 85.3917 30.8043 85.3638 30.7536 85.3128C30.7028 85.2618 30.6751 85.1922 30.6767 85.1201V53.7238C30.6612 53.6189 30.7081 53.5146 30.7968 53.4572C30.8854 53.3997 30.9993 53.3997 31.0879 53.4572C31.1765 53.5146 31.2235 53.6189 31.208 53.7238V85.1083C31.2128 85.1814 31.1873 85.2532 31.1375 85.3066C31.0877 85.36 31.0181 85.3902 30.9452 85.3901Z" fill="#231F20"/>
<path d="M180.679 85.1086V69.4309C161.995 66.3025 143.311 43.3936 143.311 43.3936L144.339 47.9073C144.339 47.9073 163.367 69.5249 180.69 71.5381" fill="#231F20"/>
<path fill-rule="evenodd" clip-rule="evenodd" d="M180.387 85.1204C180.387 85.2825 180.518 85.4138 180.679 85.4138C180.764 85.4225 180.847 85.3937 180.909 85.3351C180.971 85.2765 181.004 85.1938 181 85.1086V71.5088V69.4075C181 69.263 180.896 69.1396 180.755 69.1141C162.571 66.0742 144.106 43.8499 143.567 43.201C143.562 43.1947 143.558 43.1904 143.557 43.1882C143.47 43.0822 143.324 43.0484 143.2 43.106C143.084 43.1703 143.022 43.3035 143.049 43.4347L144.041 47.9719C144.051 48.021 144.076 48.0659 144.111 48.101C144.298 48.3182 163.216 69.613 180.387 71.7965V85.1204ZM180.387 71.2036C163.864 69.0554 145.676 48.9756 144.596 47.7665L143.849 44.4912C147.568 48.776 164.039 66.7897 180.387 69.6775V71.2036Z" fill="#231F20"/>
<path d="M175.027 85.3904C174.955 85.392 174.886 85.3641 174.835 85.3131C174.785 85.2621 174.757 85.1925 174.758 85.1204V70.2469C174.778 70.1146 174.891 70.0166 175.024 70.0166C175.157 70.0166 175.27 70.1146 175.29 70.2469V85.1086C175.295 85.1817 175.269 85.2535 175.219 85.3069C175.169 85.3603 175.1 85.3905 175.027 85.3904Z" fill="#231F20"/>
<path d="M168.984 85.3899C168.914 85.3854 168.849 85.3532 168.803 85.3003C168.757 85.2474 168.734 85.1783 168.739 85.1082V67.6815C168.758 67.5491 168.871 67.4512 169.004 67.4512C169.137 67.4512 169.25 67.5491 169.27 67.6815V85.1082C169.275 85.1855 169.247 85.2614 169.192 85.3156C169.137 85.3699 169.061 85.397 168.984 85.3899Z" fill="#231F20"/>
<path d="M162.672 85.3902C162.601 85.3902 162.533 85.3617 162.482 85.3111C162.432 85.2605 162.404 85.1918 162.404 85.1202V63.978C162.404 63.8289 162.524 63.708 162.672 63.708C162.821 63.708 162.941 63.8289 162.941 63.978V85.1084C162.944 85.1821 162.917 85.2538 162.866 85.307C162.816 85.3602 162.745 85.3903 162.672 85.3902Z" fill="#231F20"/>
<path d="M156.361 85.3909C156.289 85.3925 156.22 85.3646 156.169 85.3136C156.118 85.2626 156.09 85.193 156.092 85.1209V59.283C156.112 59.1507 156.225 59.0527 156.358 59.0527C156.491 59.0527 156.604 59.1507 156.623 59.283V85.1091C156.628 85.1822 156.603 85.254 156.553 85.3074C156.503 85.3608 156.433 85.391 156.361 85.3909Z" fill="#231F20"/>
<path d="M136.223 6.28655C136.077 6.28658 135.958 6.16924 135.955 6.02242V0.692852C135.955 0.543735 136.075 0.422852 136.223 0.422852C136.371 0.422852 136.492 0.543735 136.492 0.692852V6.02242C136.488 6.16924 136.369 6.28658 136.223 6.28655Z" fill="#231F20"/>
<path d="M136.97 7.43066H135.47L128.995 34.2194H143.451L136.97 7.43066Z" fill="#231F20"/>
<path fill-rule="evenodd" clip-rule="evenodd" d="M128.995 34.5075H143.446C143.536 34.508 143.622 34.4669 143.679 34.396C143.733 34.3263 143.753 34.2354 143.732 34.1494L137.256 7.36661C137.224 7.2335 137.107 7.13922 136.97 7.1377H135.47C135.334 7.13761 135.217 7.23319 135.19 7.36661L128.714 34.1494C128.693 34.2354 128.713 34.3263 128.767 34.396C128.823 34.4653 128.906 34.5062 128.995 34.5075ZM143.078 33.9205H129.368L135.703 7.72465H136.743L143.078 33.9205Z" fill="#231F20"/>
<rect x="136.964" y="7.43652" width="1.48887" height="2.00739" transform="rotate(-180 136.964 7.43652)" fill="#231F20"/>
<path fill-rule="evenodd" clip-rule="evenodd" d="M135.458 7.72423H136.964C137.116 7.71196 137.233 7.58409 137.233 7.43075V5.42336C137.233 5.26128 137.102 5.12988 136.941 5.12988H135.458C135.297 5.12988 135.166 5.26128 135.166 5.42336V7.43075C135.166 7.59284 135.297 7.72423 135.458 7.72423ZM136.696 7.13727H135.797V5.71684H136.696V7.13727Z" fill="#231F20"/>
<path d="M133.064 33.3386V26.9936L136.223 21.6523L139.381 26.9936V33.3386H142.418V84.1163H130.028V33.3386H133.064Z" fill="#E7816B"/>
<path fill-rule="evenodd" clip-rule="evenodd" d="M130.028 84.3863H142.412C142.558 84.3864 142.677 84.269 142.68 84.1222V33.3446C142.68 33.2735 142.652 33.2054 142.601 33.1557C142.551 33.106 142.482 33.0789 142.412 33.0805H139.644V26.9996C139.645 26.9523 139.632 26.9057 139.609 26.8646L136.45 21.5233C136.399 21.4471 136.314 21.4014 136.223 21.4014C136.131 21.4014 136.046 21.4471 135.995 21.5233L132.836 26.8646C132.813 26.9057 132.801 26.9523 132.801 26.9996V33.0746H130.028C129.883 33.0746 129.765 33.1928 129.765 33.3387V84.1163C129.765 84.2632 129.882 84.3831 130.028 84.3863ZM142.149 83.8463H130.296V33.6087H133.064C133.211 33.6056 133.329 33.4865 133.333 33.3387V27.0641L136.223 22.1748L139.113 27.0641V33.3387C139.113 33.4878 139.233 33.6087 139.381 33.6087H142.149V83.8463Z" fill="#231F20"/>
<path d="M142.412 38.2578H130.028C129.896 38.2381 129.799 38.1245 129.799 37.9907C129.799 37.857 129.896 37.7434 130.028 37.7237H142.412C142.516 37.7081 142.62 37.7553 142.677 37.8444C142.734 37.9335 142.734 38.048 142.677 38.1371C142.62 38.2262 142.516 38.2734 142.412 38.2578Z" fill="#231F20"/>
<path d="M138.413 47.9364H140.369V41.5738C140.369 41.0279 139.388 40.1475 139.388 40.1475C139.388 40.1475 138.413 41.0279 138.413 41.5738V47.9364Z" fill="#231F20"/>
<path d="M135.242 47.9364H137.21V41.5738C137.21 41.0279 136.229 40.1475 136.229 40.1475C136.229 40.1475 135.248 41.0279 135.248 41.5738L135.242 47.9364Z" fill="#231F20"/>
<path d="M132.078 47.9364H134.034V41.5738C134.034 41.0279 133.059 40.1475 133.059 40.1475C133.059 40.1475 132.078 41.0279 132.078 41.5738V47.9364Z" fill="#231F20"/>
<path d="M138.413 59.87H140.369V53.4781C140.369 52.9381 139.388 52.0518 139.388 52.0518C139.388 52.0518 138.413 52.9381 138.413 53.4781V59.87Z" fill="#231F20"/>
<path d="M135.242 59.87H137.21V53.4781C137.21 52.9381 136.229 52.0518 136.229 52.0518C136.229 52.0518 135.248 52.9381 135.248 53.4781L135.242 59.87Z" fill="#231F20"/>
<path d="M132.078 59.87H134.034V53.4781C134.034 52.9381 133.059 52.0518 133.059 52.0518C133.059 52.0518 132.078 52.9381 132.078 53.4781V59.87Z" fill="#231F20"/>
<path d="M138.413 71.7557H140.369V65.3872C140.369 64.8414 139.388 63.9609 139.388 63.9609C139.388 63.9609 138.413 64.8414 138.413 65.3872V71.7557Z" fill="#231F20"/>
<path d="M135.242 71.7557H137.21V65.3872C137.21 64.8414 136.229 63.9609 136.229 63.9609C136.229 63.9609 135.248 64.8414 135.248 65.3872L135.242 71.7557Z" fill="#231F20"/>
<path d="M132.078 71.7557H134.034V65.3872C134.034 64.8414 133.059 63.9609 133.059 63.9609C133.059 63.9609 132.078 64.8414 132.078 65.3872V71.7557Z" fill="#231F20"/>
<path d="M141.49 50.4785H130.98C130.833 50.4754 130.715 50.3563 130.711 50.2085C130.715 50.0617 130.834 49.9443 130.98 49.9444H141.49C141.636 49.9443 141.755 50.0617 141.758 50.2085C141.755 50.3563 141.637 50.4754 141.49 50.4785Z" fill="#231F20"/>
<path d="M141.49 62.6103H130.98C130.876 62.6259 130.772 62.5787 130.715 62.4896C130.658 62.4005 130.658 62.286 130.715 62.1969C130.772 62.1079 130.876 62.0606 130.98 62.0762H141.49C141.594 62.0606 141.698 62.1079 141.755 62.1969C141.812 62.286 141.812 62.4005 141.755 62.4896C141.698 62.5787 141.594 62.6259 141.49 62.6103Z" fill="#231F20"/>
<path d="M141.974 75.2715H130.472C130.326 75.2715 130.206 75.1542 130.203 75.0074C130.206 74.8595 130.325 74.7405 130.472 74.7374H141.974C142.121 74.7405 142.239 74.8595 142.243 75.0074C142.239 75.1542 142.12 75.2715 141.974 75.2715Z" fill="#231F20"/>
<path d="M144.473 13.6113L141.519 24.922H147.427L144.473 13.6113Z" fill="#231F20"/>
<path fill-rule="evenodd" clip-rule="evenodd" d="M141.519 25.2388H147.428C147.527 25.2352 147.619 25.1825 147.673 25.0979C147.726 25.0254 147.743 24.9324 147.72 24.8455L144.8 13.5349C144.763 13.4038 144.644 13.3135 144.508 13.3135C144.373 13.3135 144.254 13.4038 144.216 13.5349L141.239 24.869C141.215 24.9567 141.234 25.0507 141.291 25.1214C141.345 25.1937 141.429 25.237 141.519 25.2388ZM147.031 24.6518H141.881L144.456 14.7851L147.031 24.6518Z" fill="#231F20"/>
<path d="M146.365 24.9219L146.242 43.7749L145.115 46.7919V84.1164H141.489V46.4104L142.371 44.4323V24.9219H146.365Z" fill="#E7816B"/>
<path fill-rule="evenodd" clip-rule="evenodd" d="M141.489 84.3869H145.115C145.262 84.3838 145.381 84.2647 145.384 84.1169V46.8393L146.481 43.8693C146.487 43.8382 146.487 43.8064 146.481 43.7754L146.61 24.9223C146.609 24.8495 146.58 24.7798 146.528 24.7286C146.478 24.6798 146.411 24.6524 146.341 24.6523H142.348C142.199 24.6523 142.079 24.7732 142.079 24.9223V44.3741L141.221 46.3052C141.215 46.3401 141.215 46.3759 141.221 46.4108V84.1169C141.224 84.2647 141.342 84.3838 141.489 84.3869ZM144.847 83.8469H141.758L141.781 46.4695L142.64 44.5443C142.645 44.5073 142.645 44.4698 142.64 44.4328V25.1865H146.079L145.956 43.7226L144.847 46.6926C144.842 46.7237 144.842 46.7554 144.847 46.7865V83.8469Z" fill="#231F20"/>
<path d="M146.283 37.4424H142.371C142.267 37.458 142.163 37.4107 142.106 37.3216C142.049 37.2326 142.049 37.1181 142.106 37.029C142.163 36.9399 142.267 36.8927 142.371 36.9082H146.283C146.387 36.8927 146.491 36.9399 146.548 37.029C146.605 37.1181 146.605 37.2326 146.548 37.3216C146.491 37.4107 146.387 37.458 146.283 37.4424Z" fill="#231F20"/>
<path d="M145.115 47.0566H141.489C141.385 47.0722 141.281 47.025 141.224 46.9359C141.167 46.8468 141.167 46.7323 141.224 46.6432C141.281 46.5541 141.385 46.5069 141.489 46.5225H145.115C145.219 46.5069 145.323 46.5541 145.38 46.6432C145.437 46.7323 145.437 46.8468 145.38 46.9359C145.323 47.025 145.219 47.0722 145.115 47.0566Z" fill="#231F20"/>
<path d="M127.973 13.6113L130.927 24.922H125.019L127.973 13.6113Z" fill="#231F20"/>
<path fill-rule="evenodd" clip-rule="evenodd" d="M124.785 25.1213C124.841 25.1938 124.927 25.237 125.019 25.2387H130.927C131.023 25.2425 131.115 25.1986 131.173 25.1213C131.23 25.0507 131.249 24.9567 131.225 24.8689L128.271 13.5583C128.234 13.4273 128.114 13.3369 127.979 13.3369C127.843 13.3369 127.724 13.4273 127.687 13.5583L124.733 24.8689C124.711 24.9567 124.731 25.0495 124.785 25.1213ZM127.973 14.785L130.548 24.6518H125.398L127.973 14.785Z" fill="#231F20"/>
<path d="M126.081 24.9219L126.204 43.7749L127.331 46.7919V84.1164H130.956V46.4104L130.075 44.4323V24.9219H126.081Z" fill="#E7816B"/>
<path fill-rule="evenodd" clip-rule="evenodd" d="M127.33 84.3864H130.956C131.099 84.3773 131.21 84.2599 131.213 84.1164V46.4104C131.219 46.3754 131.219 46.3397 131.213 46.3047L130.355 44.3736V24.9219C130.355 24.7728 130.235 24.6519 130.086 24.6519H126.093C126.02 24.6485 125.95 24.6759 125.899 24.7272C125.848 24.7786 125.821 24.8493 125.824 24.9219L125.952 43.7749C125.95 43.8062 125.95 43.8376 125.952 43.8688L127.062 46.8388V84.1164C127.065 84.2643 127.183 84.3833 127.33 84.3864ZM130.688 83.8465H127.599L127.581 46.786C127.586 46.7549 127.586 46.7232 127.581 46.6921L126.472 43.7221L126.349 25.186H129.829V44.4323C129.821 44.469 129.821 44.5071 129.829 44.5438L130.688 46.4691V83.8465Z" fill="#231F20"/>
<path d="M130.075 37.4424H126.163C126.059 37.458 125.955 37.4107 125.898 37.3216C125.841 37.2326 125.841 37.1181 125.898 37.029C125.955 36.9399 126.059 36.8927 126.163 36.9082H130.075C130.179 36.8927 130.283 36.9399 130.34 37.029C130.397 37.1181 130.397 37.2326 130.34 37.3216C130.283 37.4107 130.179 37.458 130.075 37.4424Z" fill="#231F20"/>
<path d="M130.956 47.0566H127.331C127.226 47.0722 127.122 47.025 127.065 46.9359C127.008 46.8468 127.008 46.7323 127.065 46.6432C127.122 46.5541 127.226 46.5069 127.331 46.5225H130.956C131.061 46.5069 131.164 46.5541 131.222 46.6432C131.279 46.7323 131.279 46.8468 131.222 46.9359C131.164 47.025 131.061 47.0722 130.956 47.0566Z" fill="#231F20"/>
<path d="M144.473 14.3454C144.334 14.3394 144.222 14.2272 144.216 14.0871V11.4399C144.216 11.2908 144.336 11.1699 144.485 11.1699C144.633 11.1699 144.753 11.2908 144.753 11.4399V14.0871C144.75 14.1587 144.719 14.2262 144.667 14.2747C144.614 14.3231 144.544 14.3485 144.473 14.3454Z" fill="#231F20"/>
<path d="M127.973 14.345C127.901 14.3466 127.832 14.3187 127.781 14.2677C127.731 14.2167 127.703 14.1471 127.704 14.075V11.4396C127.689 11.3347 127.736 11.2304 127.825 11.173C127.913 11.1155 128.027 11.1155 128.116 11.173C128.204 11.2304 128.251 11.3347 128.236 11.4396V14.0868C128.233 14.2303 128.116 14.3451 127.973 14.345Z" fill="#231F20"/>
<rect x="123.29" y="84.1172" width="25.8772" height="19.5339" fill="#E7816B"/>
<path fill-rule="evenodd" clip-rule="evenodd" d="M123.29 103.891H149.173C149.31 103.892 149.424 103.787 149.436 103.651V84.1167C149.436 83.9698 149.319 83.8499 149.173 83.8467H123.29C123.143 83.8498 123.025 83.9689 123.021 84.1167V103.627C123.025 103.774 123.144 103.891 123.29 103.891ZM148.887 103.357H123.559V84.3867H148.887V103.357Z" fill="#231F20"/>
<path d="M135.242 34.2137H137.21V27.8511C137.21 27.3052 136.229 26.4248 136.229 26.4248C136.229 26.4248 135.248 27.3052 135.248 27.8511L135.242 34.2137Z" fill="#231F20"/>
<rect x="180.673" y="87.7969" width="31.5057" height="2.67065" transform="rotate(-180 180.673 87.7969)" fill="white"/>
<path fill-rule="evenodd" clip-rule="evenodd" d="M149.15 88.0437H180.679C180.822 88.0437 180.939 87.929 180.942 87.7854V85.1089C180.942 84.963 180.824 84.8448 180.679 84.8448H149.15C149.079 84.8432 149.011 84.8703 148.96 84.92C148.91 84.9698 148.881 85.0378 148.881 85.1089V87.7796C148.881 87.8507 148.91 87.9187 148.96 87.9684C149.011 88.0182 149.079 88.0453 149.15 88.0437ZM180.416 87.5096H149.436V85.3731H180.416V87.5096Z" fill="#231F20"/>
<rect x="180.673" y="103.645" width="31.5057" height="15.8537" transform="rotate(-180 180.673 103.645)" fill="white"/>
<path fill-rule="evenodd" clip-rule="evenodd" d="M149.15 103.891H180.679C180.824 103.891 180.942 103.773 180.942 103.627V87.7789C180.943 87.7079 180.916 87.6392 180.867 87.5883C180.818 87.5375 180.75 87.5089 180.679 87.5089H149.15C149.078 87.5073 149.009 87.5352 148.958 87.5862C148.908 87.6372 148.88 87.7068 148.881 87.7789V103.627C148.881 103.698 148.91 103.766 148.96 103.816C149.011 103.865 149.079 103.892 149.15 103.891ZM180.416 103.357H149.436V88.043H180.416V103.357Z" fill="#231F20"/>
<path d="M150.055 85.3901C149.984 85.3901 149.916 85.3615 149.867 85.3106C149.817 85.2598 149.79 85.1911 149.792 85.1201V53.7238C149.776 53.6189 149.823 53.5146 149.912 53.4572C150.001 53.3997 150.114 53.3997 150.203 53.4572C150.292 53.5146 150.339 53.6189 150.323 53.7238V85.1083C150.328 85.1824 150.302 85.2552 150.251 85.3088C150.2 85.3624 150.128 85.3919 150.055 85.3901Z" fill="#231F20"/>
<path d="M64.2842 104.478C64.1264 104.475 63.9984 104.349 63.9922 104.19C63.9907 104.112 64.02 104.037 64.0736 103.981C64.1273 103.925 64.2009 103.892 64.2783 103.891C67.3508 103.791 70.2298 102.359 72.1723 99.9642C72.2244 99.8998 72.3002 99.8595 72.3825 99.8526C72.4648 99.8466 72.5456 99.8765 72.6043 99.9348C74.079 101.467 76.0058 102.479 78.0986 102.823C80.1844 103.137 82.2863 102.365 83.6804 100.774C83.778 100.654 83.952 100.631 84.0774 100.721C87.4755 102.972 92.0251 102.203 94.5053 98.9605C94.563 98.8885 94.6499 98.8467 94.7418 98.8467C94.8337 98.8467 94.9206 98.8885 94.9783 98.9605C97.413 102.4 102.761 103.327 106.2 100.909C106.322 100.82 106.492 100.843 106.586 100.962C107.487 101.984 108.777 102.573 110.136 102.582C111.492 102.658 112.816 102.143 113.767 101.167C113.833 101.101 113.926 101.068 114.018 101.079C114.109 101.092 114.189 101.146 114.234 101.226C114.616 101.824 115.22 102.244 115.912 102.389C116.604 102.535 117.325 102.395 117.913 102.001C118.043 101.907 118.223 101.933 118.321 102.06C118.367 102.123 118.386 102.201 118.374 102.278C118.362 102.356 118.32 102.425 118.257 102.47C117.544 102.982 116.647 103.161 115.793 102.964C115.059 102.818 114.401 102.415 113.937 101.825C111.71 103.707 108.426 103.583 106.346 101.537C102.767 103.885 97.4247 102.975 94.7739 99.6179C92.0933 102.791 87.5096 103.522 83.984 101.338C82.454 102.944 80.2471 103.709 78.0577 103.392C75.9422 103.058 73.9829 102.069 72.4525 100.563C70.402 102.963 67.4413 104.384 64.2959 104.478H64.2842Z" fill="#D1D3D4"/>
<path d="M105.751 107.067C104.617 107.104 103.517 106.681 102.697 105.893C100.216 107.687 96.7791 107.255 94.8147 104.901C92.6127 106.38 89.9461 106.992 87.3237 106.621C87.2194 106.605 87.1314 106.535 87.0928 106.436C87.0542 106.337 87.0708 106.226 87.1365 106.143C87.2022 106.06 87.307 106.018 87.4113 106.034C89.9786 106.408 92.5906 105.777 94.7096 104.273C94.774 104.227 94.8535 104.208 94.9315 104.22C95.0084 104.237 95.0768 104.281 95.1242 104.344C95.9797 105.463 97.245 106.191 98.638 106.366C100.031 106.542 101.436 106.149 102.539 105.277C102.599 105.224 102.677 105.199 102.755 105.206C102.833 105.214 102.904 105.252 102.954 105.312C103.783 106.21 104.993 106.647 106.2 106.486C107.448 106.291 108.657 105.895 109.779 105.312C109.851 105.281 109.931 105.279 110.004 105.308C110.076 105.336 110.134 105.393 110.165 105.465C110.23 105.612 110.165 105.785 110.019 105.852C108.836 106.447 107.563 106.844 106.253 107.026C106.086 107.048 105.919 107.062 105.751 107.067Z" fill="#D1D3D4"/>
<path d="M71.5768 107.601C71.4325 107.6 71.3109 107.492 71.2907 107.349C71.2696 107.189 71.378 107.041 71.5359 107.014C72.7371 106.829 73.8392 106.237 74.6597 105.336C74.7133 105.279 74.7864 105.245 74.864 105.242C74.9425 105.237 75.0191 105.267 75.0742 105.324C75.6729 105.951 76.4736 106.344 77.3338 106.433C78.169 106.517 78.9863 106.151 79.4824 105.471C79.5355 105.39 79.6255 105.341 79.7218 105.341C79.8166 105.348 79.9049 105.392 79.967 105.465C80.5426 106.252 81.5721 106.553 82.4777 106.198C82.5745 106.153 82.6885 106.164 82.7747 106.227C82.861 106.291 82.9057 106.397 82.8912 106.504C82.8767 106.61 82.8054 106.7 82.7054 106.738C81.6765 107.14 80.5086 106.888 79.7335 106.099C79.0965 106.755 78.2022 107.092 77.2929 107.02C76.3964 106.934 75.5521 106.557 74.8874 105.946C73.9995 106.828 72.8572 107.405 71.6235 107.595L71.5768 107.601Z" fill="#D1D3D4"/>
</svg>
