<svg width="182" height="143" viewBox="0 0 182 143" fill="none" xmlns="http://www.w3.org/2000/svg">
<rect x="116.429" y="142.025" width="47.2303" height="65.0554" transform="rotate(-180 116.429 142.025)" fill="white"/>
<path fill-rule="evenodd" clip-rule="evenodd" d="M69.211 142.359H116.435C116.523 142.36 116.608 142.326 116.67 142.263C116.732 142.199 116.765 142.113 116.762 142.025V76.9505C116.762 76.7734 116.618 76.6299 116.441 76.6299H69.211C69.0341 76.6299 68.8906 76.7734 68.8906 76.9505V142.038C68.8906 142.215 69.0341 142.359 69.211 142.359ZM116.114 141.717H69.5251V77.2904H116.114V141.717Z" fill="#231F20"/>
<path d="M114.34 84.5944H71.2941C71.1171 84.5944 70.9736 84.4508 70.9736 84.2738C70.977 84.0981 71.1185 83.9565 71.2941 83.9531H114.34C114.517 83.9531 114.66 84.0967 114.66 84.2738C114.66 84.3588 114.626 84.4403 114.566 84.5005C114.506 84.5606 114.425 84.5944 114.34 84.5944Z" fill="#D1D3D4"/>
<path d="M114.34 91.6998H71.2941C71.1185 91.6964 70.977 91.5549 70.9736 91.3792C70.9736 91.2021 71.1171 91.0586 71.2941 91.0586H114.34C114.517 91.0586 114.66 91.2021 114.66 91.3792C114.66 91.4643 114.626 91.5458 114.566 91.6059C114.506 91.6661 114.425 91.6998 114.34 91.6998Z" fill="#D1D3D4"/>
<path d="M114.34 98.7985H71.2941C71.1185 98.7951 70.977 98.6535 70.9736 98.4779C70.9736 98.3008 71.1171 98.1572 71.2941 98.1572H114.34C114.517 98.1572 114.66 98.3008 114.66 98.4779C114.66 98.5629 114.626 98.6444 114.566 98.7046C114.506 98.7647 114.425 98.7985 114.34 98.7985Z" fill="#D1D3D4"/>
<path d="M114.34 105.897H71.2941C71.1171 105.897 70.9736 105.754 70.9736 105.576C70.9736 105.399 71.1171 105.256 71.2941 105.256H114.34C114.517 105.256 114.66 105.399 114.66 105.576C114.66 105.754 114.517 105.897 114.34 105.897Z" fill="#D1D3D4"/>
<path d="M114.34 112.996H71.2941C71.1171 112.996 70.9736 112.852 70.9736 112.675C70.977 112.499 71.1185 112.358 71.2941 112.354H114.34C114.517 112.354 114.66 112.498 114.66 112.675C114.66 112.76 114.626 112.842 114.566 112.902C114.506 112.962 114.425 112.996 114.34 112.996Z" fill="#D1D3D4"/>
<path d="M114.34 120.101H71.2941C71.1185 120.098 70.977 119.956 70.9736 119.781C70.9736 119.604 71.1171 119.46 71.2941 119.46H114.34C114.517 119.46 114.66 119.604 114.66 119.781C114.66 119.866 114.626 119.947 114.566 120.007C114.506 120.067 114.425 120.101 114.34 120.101Z" fill="#D1D3D4"/>
<path d="M114.34 127.2H71.2941C71.1185 127.196 70.977 127.055 70.9736 126.879C70.9736 126.702 71.1171 126.559 71.2941 126.559H114.34C114.517 126.559 114.66 126.702 114.66 126.879C114.66 126.964 114.626 127.046 114.566 127.106C114.506 127.166 114.425 127.2 114.34 127.2Z" fill="#D1D3D4"/>
<path d="M114.34 134.298H71.2941C71.1171 134.298 70.9736 134.155 70.9736 133.978C70.9736 133.801 71.1171 133.657 71.2941 133.657H114.34C114.517 133.657 114.66 133.801 114.66 133.978C114.66 134.155 114.517 134.298 114.34 134.298Z" fill="#D1D3D4"/>
<rect x="116.435" y="76.9639" width="40.2066" height="3.75776" transform="rotate(-180 116.435 76.9639)" fill="#231F20"/>
<path fill-rule="evenodd" clip-rule="evenodd" d="M76.2223 77.2906H116.435C116.523 77.289 116.607 77.252 116.667 77.1881C116.727 77.1241 116.759 77.0386 116.756 76.9507V73.2122C116.756 73.0352 116.612 72.8916 116.435 72.8916H76.2223C76.0453 72.8916 75.9019 73.0352 75.9019 73.2122V76.97C75.9053 77.1456 76.0467 77.2872 76.2223 77.2906ZM116.115 76.6494H76.5427V73.5329H116.115V76.6494Z" fill="#231F20"/>
<rect x="46.9678" y="93.752" width="13.1565" height="48.2673" fill="white"/>
<path fill-rule="evenodd" clip-rule="evenodd" d="M46.9674 142.358H60.1239C60.2124 142.359 60.2969 142.322 60.3576 142.258C60.4183 142.194 60.4497 142.107 60.4444 142.019V93.7513C60.4444 93.5742 60.3009 93.4307 60.1239 93.4307H46.9674C46.7919 93.4341 46.6504 93.5756 46.647 93.7513V142.038C46.647 142.215 46.7904 142.358 46.9674 142.358ZM59.8227 141.717H47.307L47.2878 94.0719H59.8227V141.717Z" fill="#231F20"/>
<rect x="21.6733" y="87.6084" width="25.7299" height="54.417" fill="white"/>
<path fill-rule="evenodd" clip-rule="evenodd" d="M21.6734 142.359H47.4226C47.5099 142.359 47.5934 142.324 47.6538 142.261C47.7143 142.198 47.7465 142.113 47.743 142.026V87.6087C47.743 87.4316 47.5996 87.2881 47.4226 87.2881H21.6734C21.4965 87.2881 21.353 87.4316 21.353 87.6087V142.038C21.353 142.216 21.4965 142.359 21.6734 142.359ZM47.1022 141.718H22.0131L21.9939 87.9293H47.1022V141.718Z" fill="#231F20"/>
<path d="M46.2626 94.0397H22.8141C22.6371 94.0397 22.4937 93.8961 22.4937 93.7191C22.4937 93.542 22.6371 93.3984 22.8141 93.3984H46.2626C46.4396 93.3984 46.583 93.542 46.583 93.7191C46.583 93.8961 46.4396 94.0397 46.2626 94.0397Z" fill="#D1D3D4"/>
<path d="M46.2626 99.985H22.8141C22.6371 99.985 22.4937 99.8415 22.4937 99.6644C22.4937 99.4873 22.6371 99.3438 22.8141 99.3438H46.2626C46.4396 99.3438 46.583 99.4873 46.583 99.6644C46.583 99.8415 46.4396 99.985 46.2626 99.985Z" fill="#D1D3D4"/>
<path d="M46.2626 105.923H22.8141C22.6371 105.923 22.4937 105.779 22.4937 105.602C22.4937 105.425 22.6371 105.281 22.8141 105.281H46.2626C46.4396 105.281 46.583 105.425 46.583 105.602C46.583 105.779 46.4396 105.923 46.2626 105.923Z" fill="#D1D3D4"/>
<path d="M46.2626 111.861H22.8141C22.6371 111.861 22.4937 111.717 22.4937 111.54C22.4937 111.363 22.6371 111.22 22.8141 111.22H46.2626C46.4396 111.22 46.583 111.363 46.583 111.54C46.583 111.717 46.4396 111.861 46.2626 111.861Z" fill="#D1D3D4"/>
<path d="M46.2626 117.798H22.8141C22.6371 117.798 22.4937 117.655 22.4937 117.478C22.4937 117.301 22.6371 117.157 22.8141 117.157H46.2626C46.4396 117.157 46.583 117.301 46.583 117.478C46.583 117.655 46.4396 117.798 46.2626 117.798Z" fill="#D1D3D4"/>
<path d="M46.2626 123.762H22.8141C22.6371 123.762 22.4937 123.619 22.4937 123.442C22.4937 123.265 22.6371 123.121 22.8141 123.121H46.2626C46.4396 123.121 46.583 123.265 46.583 123.442C46.583 123.619 46.4396 123.762 46.2626 123.762Z" fill="#D1D3D4"/>
<path d="M46.2626 129.674H22.8141C22.6371 129.674 22.4937 129.531 22.4937 129.354C22.4937 129.177 22.6371 129.033 22.8141 129.033H46.2626C46.4396 129.033 46.583 129.177 46.583 129.354C46.583 129.531 46.4396 129.674 46.2626 129.674Z" fill="#D1D3D4"/>
<path d="M46.2626 135.613H22.8141C22.6371 135.613 22.4937 135.469 22.4937 135.292C22.4937 135.115 22.6371 134.972 22.8141 134.972H46.2626C46.4396 134.972 46.583 135.115 46.583 135.292C46.583 135.469 46.4396 135.613 46.2626 135.613Z" fill="#D1D3D4"/>
<rect x="21.6733" y="84.4658" width="21.9041" height="3.14215" fill="#231F20"/>
<path fill-rule="evenodd" clip-rule="evenodd" d="M21.6734 87.9289H43.5775C43.7545 87.9289 43.898 87.7854 43.898 87.6083V84.4661C43.898 84.2891 43.7545 84.1455 43.5775 84.1455H21.6734C21.4965 84.1455 21.353 84.2891 21.353 84.4661V87.6083C21.353 87.7854 21.4965 87.9289 21.6734 87.9289ZM43.2571 87.2877H21.9939V84.7868H43.2571V87.2877Z" fill="#231F20"/>
<rect x="54.6831" y="98.0352" width="2.42239" height="0.641256" fill="#D1D3D4"/>
<rect x="50.4346" y="105.051" width="2.42239" height="0.641256" fill="#D1D3D4"/>
<rect x="53.4595" y="111.713" width="2.42239" height="0.641256" fill="#D1D3D4"/>
<path d="M83.5149 127.417C77.5614 117.895 62.4055 111.123 44.6476 111.123C26.8898 111.123 11.7403 117.895 5.76758 127.417H83.5149Z" fill="#E7816B"/>
<path fill-rule="evenodd" clip-rule="evenodd" d="M5.76744 127.712H83.5148C83.5919 127.689 83.6565 127.636 83.6942 127.565C83.7455 127.471 83.7455 127.357 83.6942 127.264C77.5741 117.433 61.8286 110.828 44.6026 110.828C27.3767 110.828 11.6568 117.433 5.5111 127.264C5.45594 127.356 5.45594 127.472 5.5111 127.565C5.56394 127.656 5.66175 127.713 5.76744 127.712ZM82.9765 127.129H6.31856C12.5604 117.709 27.8574 111.418 44.6475 111.418C61.4376 111.418 76.741 117.709 82.9765 127.129Z" fill="#231F20"/>
<path d="M82.1818 132.534H9.06134L5.88916 127.27H83.4122L82.1818 132.534Z" fill="#231F20"/>
<path fill-rule="evenodd" clip-rule="evenodd" d="M9.06137 132.855H82.1818C82.3416 132.869 82.4867 132.762 82.5214 132.605L83.7455 127.34C83.7687 127.247 83.7474 127.147 83.6878 127.071C83.6253 126.994 83.531 126.949 83.4314 126.949H5.88918C5.77504 126.949 5.66953 127.01 5.61362 127.11C5.55653 127.211 5.55653 127.335 5.61362 127.437L8.7858 132.701C8.84429 132.797 8.94888 132.856 9.06137 132.855ZM81.9254 132.214H9.2408L6.45954 127.59H83.0021L81.9254 132.214Z" fill="#231F20"/>
<rect x="7.31836" y="132.535" width="76.0875" height="9.49058" fill="#231F20"/>
<path fill-rule="evenodd" clip-rule="evenodd" d="M7.31847 142.358H83.406C83.583 142.358 83.7264 142.215 83.7264 142.038V132.547C83.7264 132.37 83.583 132.227 83.406 132.227H7.31847C7.1415 132.227 6.99805 132.37 6.99805 132.547V142.038C6.99805 142.215 7.1415 142.358 7.31847 142.358ZM83.0856 141.717H7.63889V132.868H83.0856V141.717Z" fill="#231F20"/>
<path d="M77.5808 128.514C72.6591 120.64 60.1306 115.048 45.4552 115.048C30.7799 115.048 18.2449 120.646 13.3232 128.514H77.5808Z" fill="#E7816B"/>
<path fill-rule="evenodd" clip-rule="evenodd" d="M13.3232 128.802H77.5807C77.6841 128.801 77.779 128.745 77.8307 128.655C77.882 128.563 77.882 128.452 77.8307 128.36C72.7424 120.216 59.7332 114.746 45.4552 114.746C31.1772 114.746 18.1616 120.216 13.0733 128.36C13.0167 128.45 13.0139 128.563 13.0661 128.656C13.1184 128.748 13.2171 128.805 13.3232 128.802ZM77.0424 128.251H13.8615C19.0396 120.492 31.6386 115.368 45.4552 115.368C59.2718 115.368 71.8644 120.556 77.0424 128.251Z" fill="#231F20"/>
<path fill-rule="evenodd" clip-rule="evenodd" d="M21.9619 128.835H68.9423C69.0641 128.846 69.1821 128.789 69.2499 128.687C69.3011 128.591 69.3011 128.476 69.2499 128.379C65.5137 120.21 55.9651 114.721 45.4745 114.721C34.9839 114.721 25.4289 120.21 21.6927 128.379C21.6415 128.476 21.6415 128.591 21.6927 128.687C21.7532 128.777 21.8536 128.832 21.9619 128.835ZM68.436 128.193H22.4682C26.2748 120.498 35.4132 115.368 45.4553 115.368C55.4973 115.368 64.6614 120.498 68.436 128.193Z" fill="#231F20"/>
<path fill-rule="evenodd" clip-rule="evenodd" d="M31.8245 128.835H59.0796C59.18 128.833 59.2742 128.786 59.336 128.706C59.3944 128.627 59.4133 128.526 59.3872 128.431C57.2148 120.229 51.6202 114.721 45.4553 114.721C39.2903 114.721 33.6893 120.229 31.5169 128.431C31.4908 128.526 31.5097 128.627 31.5681 128.706C31.6299 128.786 31.7241 128.833 31.8245 128.835ZM58.6631 128.193H32.241C34.4135 120.498 39.6941 115.368 45.4553 115.368C51.2165 115.368 56.4906 120.498 58.6631 128.193Z" fill="#231F20"/>
<path fill-rule="evenodd" clip-rule="evenodd" d="M41.3923 128.835H49.5118C49.6014 128.834 49.6869 128.797 49.7489 128.732C49.8076 128.665 49.8375 128.577 49.8322 128.488C49.3003 121.832 47.9161 114.721 45.4553 114.721C42.9944 114.721 41.5974 121.832 41.0719 128.488C41.0666 128.577 41.0965 128.665 41.1552 128.732C41.2172 128.797 41.3027 128.834 41.3923 128.835ZM49.1658 128.193H41.7384C42.4433 119.767 44.1351 115.368 45.4553 115.368C46.7754 115.368 48.4608 119.767 49.1658 128.193Z" fill="#231F20"/>
<path d="M76.4786 132.74H14.4256L13.4131 128.386H77.4912L76.4786 132.74Z" fill="white"/>
<path fill-rule="evenodd" clip-rule="evenodd" d="M14.4252 133.061H76.4782C76.6309 133.065 76.7651 132.96 76.7986 132.811L77.8112 128.463C77.8345 128.367 77.8133 128.266 77.7535 128.187C77.691 128.11 77.5967 128.065 77.4972 128.066H13.4127C13.3147 128.064 13.2219 128.109 13.1627 128.187C13.1007 128.265 13.0771 128.366 13.0986 128.463L14.1112 132.811C14.1442 132.958 14.2748 133.062 14.4252 133.061ZM76.2027 132.42H14.6815L13.8164 128.707H77.0678L76.2027 132.42Z" fill="#231F20"/>
<rect x="13.4131" y="132.74" width="64.0845" height="9.28538" fill="#E7816B"/>
<path fill-rule="evenodd" clip-rule="evenodd" d="M13.4066 142.321H77.4911C77.5693 142.321 77.6443 142.29 77.6996 142.234C77.7548 142.179 77.7859 142.104 77.7859 142.026V132.74C77.7859 132.577 77.6539 132.445 77.4911 132.445H13.4066C13.2438 132.445 13.1118 132.577 13.1118 132.74V142.026C13.1118 142.189 13.2438 142.321 13.4066 142.321ZM77.2027 141.718H13.7014V133.035H77.2027V141.718Z" fill="#231F20"/>
<path d="M77.0807 130.886H15.6173C15.4403 130.886 15.2969 130.743 15.2969 130.566C15.2969 130.389 15.4403 130.245 15.6173 130.245H77.0807C77.2577 130.245 77.4012 130.389 77.4012 130.566C77.4012 130.743 77.2577 130.886 77.0807 130.886Z" fill="#D1D3D4"/>
<rect x="15.9121" y="135.35" width="12.1761" height="6.67547" fill="#231F20"/>
<path fill-rule="evenodd" clip-rule="evenodd" d="M15.9186 142.359H28.0946C28.1819 142.359 28.2654 142.323 28.3259 142.26C28.3863 142.198 28.4185 142.113 28.415 142.025V135.35C28.4116 135.174 28.2702 135.033 28.0946 135.029H15.9186C15.743 135.033 15.6016 135.174 15.5981 135.35V142.038C15.5981 142.215 15.7416 142.359 15.9186 142.359ZM27.7678 141.718H16.2326V135.683H27.7678V141.718Z" fill="#231F20"/>
<path d="M19.0265 142.359C18.8495 142.359 18.7061 142.215 18.7061 142.038V135.35C18.7061 135.173 18.8495 135.029 19.0265 135.029C19.2034 135.029 19.3469 135.173 19.3469 135.35V142.025C19.3504 142.113 19.3182 142.198 19.2577 142.26C19.1972 142.323 19.1137 142.359 19.0265 142.359Z" fill="white"/>
<path d="M22.0065 142.359C21.8295 142.359 21.686 142.215 21.686 142.038V135.35C21.686 135.173 21.8295 135.029 22.0065 135.029C22.182 135.033 22.3235 135.174 22.3269 135.35V142.025C22.3304 142.113 22.2982 142.198 22.2377 142.26C22.1772 142.323 22.0937 142.359 22.0065 142.359Z" fill="white"/>
<path d="M24.9928 142.359C24.8158 142.359 24.6724 142.215 24.6724 142.038V135.35C24.6758 135.174 24.8173 135.033 24.9928 135.029C25.1698 135.029 25.3132 135.173 25.3132 135.35V142.025C25.3167 142.113 25.2845 142.198 25.224 142.26C25.1635 142.323 25.08 142.359 24.9928 142.359Z" fill="white"/>
<rect x="31.5488" y="135.35" width="12.1761" height="6.67547" fill="#231F20"/>
<path fill-rule="evenodd" clip-rule="evenodd" d="M31.5489 142.359H43.725C43.8122 142.359 43.8957 142.323 43.9562 142.26C44.0167 142.198 44.0489 142.113 44.0454 142.025V135.35C44.0454 135.173 43.902 135.029 43.725 135.029H31.5489C31.372 135.029 31.2285 135.173 31.2285 135.35V142.038C31.2285 142.215 31.372 142.359 31.5489 142.359ZM43.4046 141.718H31.8694V135.683H43.4046V141.718Z" fill="#231F20"/>
<path d="M34.6568 142.359C34.4799 142.359 34.3364 142.215 34.3364 142.038V135.35C34.3398 135.174 34.4813 135.033 34.6568 135.029C34.8338 135.029 34.9773 135.173 34.9773 135.35V142.025C34.9808 142.113 34.9485 142.198 34.8881 142.26C34.8276 142.323 34.7441 142.359 34.6568 142.359Z" fill="white"/>
<path d="M37.6368 142.359C37.4599 142.359 37.3164 142.215 37.3164 142.038V135.35C37.3164 135.173 37.4599 135.029 37.6368 135.029C37.8138 135.029 37.9573 135.173 37.9573 135.35V142.025C37.9607 142.113 37.9285 142.198 37.8681 142.26C37.8076 142.323 37.7241 142.359 37.6368 142.359Z" fill="white"/>
<path d="M40.6168 142.359C40.4398 142.359 40.2964 142.215 40.2964 142.038V135.35C40.2964 135.173 40.4398 135.029 40.6168 135.029C40.7923 135.033 40.9338 135.174 40.9372 135.35V142.025C40.9407 142.113 40.9085 142.198 40.848 142.26C40.7876 142.323 40.7041 142.359 40.6168 142.359Z" fill="white"/>
<rect x="47.1792" y="135.35" width="12.1761" height="6.67547" fill="#231F20"/>
<path fill-rule="evenodd" clip-rule="evenodd" d="M47.1788 142.359H59.3549C59.4421 142.359 59.5256 142.323 59.5861 142.26C59.6466 142.198 59.6788 142.113 59.6753 142.025V135.35C59.6753 135.173 59.5318 135.029 59.3549 135.029H47.1788C47.0019 135.029 46.8584 135.173 46.8584 135.35V142.038C46.8584 142.215 47.0019 142.359 47.1788 142.359ZM59.0345 141.718H47.4992V135.683H59.0345V141.718Z" fill="#231F20"/>
<path d="M50.2936 142.359C50.1166 142.359 49.9731 142.215 49.9731 142.038V135.35C49.9731 135.173 50.1166 135.029 50.2936 135.029C50.4691 135.033 50.6106 135.174 50.614 135.35V142.025C50.6175 142.113 50.5853 142.198 50.5248 142.26C50.4643 142.323 50.3808 142.359 50.2936 142.359Z" fill="white"/>
<path d="M53.2672 142.359C53.0902 142.359 52.9468 142.215 52.9468 142.038V135.35C52.9502 135.174 53.0917 135.033 53.2672 135.029C53.4442 135.029 53.5876 135.173 53.5876 135.35V142.025C53.5911 142.113 53.5589 142.198 53.4984 142.26C53.438 142.323 53.3544 142.359 53.2672 142.359Z" fill="white"/>
<path d="M56.2472 142.359C56.0702 142.359 55.9268 142.215 55.9268 142.038V135.35C55.9268 135.173 56.0702 135.029 56.2472 135.029C56.4227 135.033 56.5642 135.174 56.5676 135.35V142.025C56.5711 142.113 56.5389 142.198 56.4784 142.26C56.4179 142.323 56.3344 142.359 56.2472 142.359Z" fill="white"/>
<rect x="62.8091" y="135.35" width="12.1761" height="6.67547" fill="#231F20"/>
<path fill-rule="evenodd" clip-rule="evenodd" d="M62.8028 142.359H74.9789C75.0662 142.359 75.1497 142.323 75.2101 142.26C75.2706 142.198 75.3028 142.113 75.2993 142.025V135.35C75.2959 135.174 75.1544 135.033 74.9789 135.029H62.8028C62.6273 135.033 62.4858 135.174 62.4824 135.35V142.038C62.4824 142.215 62.6259 142.359 62.8028 142.359ZM74.6521 141.718H63.1169V135.683H74.6521V141.718Z" fill="#231F20"/>
<path d="M65.9239 142.359C65.747 142.359 65.6035 142.215 65.6035 142.038V135.35C65.6035 135.173 65.747 135.029 65.9239 135.029C66.0995 135.033 66.241 135.174 66.2444 135.35V142.025C66.2479 142.113 66.2156 142.198 66.1552 142.26C66.0947 142.323 66.0112 142.359 65.9239 142.359Z" fill="white"/>
<path d="M68.8971 142.359C68.7201 142.359 68.5767 142.215 68.5767 142.038V135.35C68.5801 135.174 68.7215 135.033 68.8971 135.029C69.074 135.029 69.2175 135.173 69.2175 135.35V142.025C69.221 142.113 69.1888 142.198 69.1283 142.26C69.0678 142.323 68.9843 142.359 68.8971 142.359Z" fill="white"/>
<path d="M71.8771 142.359C71.7001 142.359 71.5566 142.215 71.5566 142.038V135.35C71.5566 135.173 71.7001 135.029 71.8771 135.029C72.054 135.029 72.1975 135.173 72.1975 135.35V142.025C72.201 142.113 72.1688 142.198 72.1083 142.26C72.0478 142.323 71.9643 142.359 71.8771 142.359Z" fill="white"/>
<path d="M85.5528 6.83567C85.3759 6.83567 85.2324 6.69212 85.2324 6.51505V0.910472C85.2324 0.733394 85.3759 0.589844 85.5528 0.589844C85.7284 0.593255 85.8699 0.734826 85.8733 0.910472V6.51505C85.8699 6.69069 85.7284 6.83226 85.5528 6.83567Z" fill="#231F20"/>
<rect x="82.9443" y="33.916" width="5.21648" height="3.61027" fill="#E7816B"/>
<path fill-rule="evenodd" clip-rule="evenodd" d="M82.9447 37.8346H88.1612C88.2405 37.8329 88.3158 37.7993 88.3701 37.7414C88.4244 37.6835 88.453 37.6061 88.4496 37.5268V33.9165C88.4496 33.7571 88.3204 33.6279 88.1612 33.6279H82.9447C82.7844 33.6279 82.6534 33.7561 82.6499 33.9165V37.5396C82.6533 37.7011 82.7833 37.8312 82.9447 37.8346ZM87.8664 37.2446H83.2395V34.2115H87.8664V37.2446Z" fill="#231F20"/>
<rect x="81.9194" y="31.5879" width="7.26718" height="2.33417" fill="white"/>
<path fill-rule="evenodd" clip-rule="evenodd" d="M81.9191 34.2366H89.1862C89.2712 34.2366 89.3527 34.2028 89.4128 34.1427C89.4729 34.0826 89.5067 34.001 89.5067 33.916V31.5882C89.5067 31.4111 89.3632 31.2676 89.1862 31.2676H81.9191C81.7421 31.2676 81.5986 31.4111 81.5986 31.5882V33.916C81.5986 34.093 81.7421 34.2366 81.9191 34.2366ZM88.8658 33.5953H82.2395V31.9088H88.8658V33.5953Z" fill="#231F20"/>
<path d="M84.1494 11.4268H86.9563L87.5202 31.5878H83.5854L84.1494 11.4268Z" fill="#E7816B"/>
<path fill-rule="evenodd" clip-rule="evenodd" d="M83.5854 31.8765H87.5202C87.5923 31.8732 87.6607 31.8435 87.7124 31.7931C87.7646 31.7348 87.7942 31.6597 87.7957 31.5815L87.251 11.4204C87.2475 11.26 87.1166 11.1318 86.9562 11.1318H84.1493C83.989 11.1318 83.858 11.26 83.8545 11.4204L83.2906 31.5815C83.289 31.6603 83.319 31.7365 83.3739 31.7931C83.4291 31.85 83.5062 31.8804 83.5854 31.8765ZM87.219 31.2929H83.8866L84.4313 11.7218H86.6678L87.219 31.2929Z" fill="#231F20"/>
<path d="M88.4685 19.9876C88.4685 20.3723 88.1609 20.725 87.6546 20.9815H83.4442C82.938 20.725 82.6304 20.3723 82.6304 19.9876C82.6805 19.5661 82.9554 19.2052 83.3481 19.0449H87.7956C88.1692 19.2198 88.4244 19.5772 88.4685 19.9876Z" fill="white"/>
<path fill-rule="evenodd" clip-rule="evenodd" d="M83.4444 21.3027H87.6547C87.703 21.3152 87.7538 21.3152 87.8021 21.3027C88.3482 21.098 88.7309 20.6008 88.789 20.0202C88.7425 19.4837 88.4088 19.0148 87.9175 18.7954C87.8682 18.7691 87.8131 18.7558 87.7572 18.7569H83.3482C83.2924 18.7558 83.2373 18.7691 83.188 18.7954C82.6941 19.013 82.3577 19.4823 82.3101 20.0202C82.3693 20.6024 82.7547 21.1 83.3034 21.3027C83.3495 21.3152 83.3982 21.3152 83.4444 21.3027ZM87.5778 20.6614H83.5277C83.1624 20.4626 82.9509 20.3151 82.9509 20.0202C82.9509 19.7252 83.2265 19.5072 83.4315 19.3789H87.6739C87.9751 19.5905 88.1482 19.8214 88.1482 20.0202C88.1482 20.219 87.9431 20.4626 87.5778 20.6614Z" fill="#231F20"/>
<path d="M84.566 5.98926H86.5398L86.6552 11.4271H84.4507L84.566 5.98926Z" fill="#231F20"/>
<path fill-rule="evenodd" clip-rule="evenodd" d="M84.4504 11.7481H86.6549C86.732 11.7395 86.8041 11.7057 86.86 11.6519C86.9173 11.5887 86.9493 11.5065 86.9497 11.4211L86.8344 5.98323C86.8344 5.89877 86.8004 5.81786 86.7401 5.75874C86.6798 5.69963 86.5983 5.66729 86.5139 5.66901H84.5658C84.4814 5.66729 84.3998 5.69963 84.3396 5.75874C84.2793 5.81786 84.2453 5.89877 84.2453 5.98323L84.13 11.4211C84.1278 11.5069 84.1601 11.5901 84.2197 11.6519C84.2808 11.7133 84.3638 11.7479 84.4504 11.7481ZM86.3281 11.1069H84.7772L84.8798 6.31027H86.2256L86.3281 11.1069Z" fill="#231F20"/>
<path d="M78.8624 37.3789H92.2368C92.842 37.3789 93.3327 37.8698 93.3327 38.4755V40.2453H77.7729V38.4755C77.7729 37.8723 78.2597 37.3824 78.8624 37.3789V37.3789Z" fill="white"/>
<path fill-rule="evenodd" clip-rule="evenodd" d="M77.7731 40.5663H93.3328C93.5097 40.5663 93.6532 40.4227 93.6532 40.2456V38.4758C93.6532 37.6931 93.0191 37.0586 92.2369 37.0586H78.8625C78.0828 37.0621 77.4526 37.6956 77.4526 38.4758V40.2456C77.4526 40.4227 77.5961 40.5663 77.7731 40.5663ZM93.0124 39.925H78.0935V38.4758C78.0935 38.0497 78.4367 37.7034 78.8625 37.6998H92.2369C92.4426 37.6998 92.6398 37.7816 92.7852 37.9271C92.9307 38.0726 93.0124 38.27 93.0124 38.4758V39.925Z" fill="#231F20"/>
<rect x="82.3613" y="51.5186" width="6.38282" height="90.5068" fill="#231F20"/>
<path fill-rule="evenodd" clip-rule="evenodd" d="M82.3356 142.359H88.744C88.8313 142.359 88.9148 142.324 88.9752 142.261C89.0357 142.198 89.0679 142.113 89.0644 142.026V51.5189C89.061 51.3432 88.9195 51.2017 88.744 51.1982H82.3356C82.1586 51.1982 82.0151 51.3418 82.0151 51.5189V142.039C82.0151 142.216 82.1586 142.359 82.3356 142.359ZM88.4364 141.718H82.6688V51.8395H88.4364V141.718Z" fill="#231F20"/>
<path d="M87.8857 54.3463H83.214C83.037 54.3463 82.8936 54.2028 82.8936 54.0257C82.897 53.8501 83.0384 53.7085 83.214 53.7051H87.8857C88.0627 53.7051 88.2062 53.8486 88.2062 54.0257C88.2062 54.2028 88.0627 54.3463 87.8857 54.3463Z" fill="white"/>
<path d="M87.9111 55.7897H83.1944C83.0175 55.7897 82.874 55.6461 82.874 55.4691C82.874 55.292 83.0175 55.1484 83.1944 55.1484H87.9111C88.088 55.1484 88.2315 55.292 88.2315 55.4691C88.2315 55.6461 88.088 55.7897 87.9111 55.7897Z" fill="white"/>
<path d="M87.9305 57.3024H83.1691C82.9935 57.299 82.852 57.1574 82.8486 56.9818C82.8486 56.8047 82.9921 56.6611 83.1691 56.6611H87.9305C88.1075 56.6611 88.251 56.8047 88.251 56.9818C88.251 57.1588 88.1075 57.3024 87.9305 57.3024Z" fill="white"/>
<path d="M87.9559 58.8219H83.1495C82.9726 58.8219 82.8291 58.6784 82.8291 58.5013C82.8291 58.3242 82.9726 58.1807 83.1495 58.1807H87.9559C88.1328 58.1807 88.2763 58.3242 88.2763 58.5013C88.2763 58.6784 88.1328 58.8219 87.9559 58.8219Z" fill="white"/>
<path d="M87.9817 60.3747H83.1241C82.9472 60.3747 82.8037 60.2311 82.8037 60.054C82.8037 59.8769 82.9472 59.7334 83.1241 59.7334H87.9817C88.1587 59.7334 88.3022 59.8769 88.3022 60.054C88.3022 60.2311 88.1587 60.3747 87.9817 60.3747Z" fill="white"/>
<path d="M88.0071 61.9518H83.0983C82.9213 61.9518 82.7778 61.8083 82.7778 61.6312C82.7778 61.4541 82.9213 61.3105 83.0983 61.3105H88.0071C88.1827 61.314 88.3241 61.4555 88.3276 61.6312C88.3276 61.8083 88.1841 61.9518 88.0071 61.9518Z" fill="white"/>
<path d="M88.033 63.568H83.0729C82.8959 63.568 82.7524 63.4245 82.7524 63.2474C82.7524 63.0703 82.8959 62.9268 83.0729 62.9268H88.033C88.21 62.9268 88.3534 63.0703 88.3534 63.2474C88.3534 63.4245 88.21 63.568 88.033 63.568Z" fill="white"/>
<path d="M88.0584 65.2155H83.047C82.87 65.2155 82.7266 65.0719 82.7266 64.8948C82.7266 64.7178 82.87 64.5742 83.047 64.5742H88.0584C88.2354 64.5742 88.3788 64.7178 88.3788 64.8948C88.3788 65.0719 88.2354 65.2155 88.0584 65.2155Z" fill="white"/>
<path d="M88.0843 66.8961H83.0216C82.8446 66.8961 82.7012 66.7526 82.7012 66.5755C82.7012 66.3984 82.8446 66.2549 83.0216 66.2549H88.0843C88.2598 66.2583 88.4013 66.3999 88.4047 66.5755C88.4047 66.7526 88.2612 66.8961 88.0843 66.8961Z" fill="white"/>
<path d="M88.1098 68.6139H82.983C82.8061 68.6139 82.6626 68.4704 82.6626 68.2933C82.6626 68.1162 82.8061 67.9727 82.983 67.9727H88.1098C88.2867 67.9727 88.4302 68.1162 88.4302 68.2933C88.4302 68.4704 88.2867 68.6139 88.1098 68.6139Z" fill="white"/>
<path d="M88.1355 70.3649H82.9703C82.7934 70.3649 82.6499 70.2213 82.6499 70.0443C82.6499 69.8672 82.7934 69.7236 82.9703 69.7236H88.1355C88.3125 69.7236 88.456 69.8672 88.456 70.0443C88.456 70.2213 88.3125 70.3649 88.1355 70.3649Z" fill="white"/>
<path d="M88.161 72.1608H82.9381C82.7626 72.1574 82.6211 72.0158 82.6177 71.8402C82.6177 71.6631 82.7611 71.5195 82.9381 71.5195H88.161C88.3379 71.5195 88.4814 71.6631 88.4814 71.8402C88.4814 72.0172 88.3379 72.1608 88.161 72.1608Z" fill="white"/>
<path d="M88.1933 73.9879H82.9127C82.7357 73.9879 82.5923 73.8444 82.5923 73.6673C82.5923 73.4902 82.7357 73.3467 82.9127 73.3467H88.1933C88.3688 73.3501 88.5103 73.4917 88.5137 73.6673C88.5137 73.8444 88.3702 73.9879 88.1933 73.9879Z" fill="white"/>
<path d="M88.2187 75.861H82.8805C82.7049 75.8576 82.5635 75.716 82.5601 75.5404C82.5601 75.3633 82.7035 75.2197 82.8805 75.2197H88.2187C88.3957 75.2197 88.5391 75.3633 88.5391 75.5404C88.5391 75.7174 88.3957 75.861 88.2187 75.861Z" fill="white"/>
<path d="M88.251 77.7711H82.8551C82.6781 77.7711 82.5347 77.6276 82.5347 77.4505C82.5347 77.2734 82.6781 77.1299 82.8551 77.1299H88.251C88.428 77.1299 88.5714 77.2734 88.5714 77.4505C88.5714 77.6276 88.428 77.7711 88.251 77.7711Z" fill="white"/>
<path d="M88.2829 79.7272H82.8229C82.6459 79.7272 82.5024 79.5836 82.5024 79.4066C82.5024 79.2295 82.6459 79.0859 82.8229 79.0859H88.2829C88.4598 79.0859 88.6033 79.2295 88.6033 79.4066C88.5999 79.5822 88.4584 79.7238 88.2829 79.7272Z" fill="white"/>
<path d="M88.3147 81.7282H82.7906C82.6137 81.7282 82.4702 81.5846 82.4702 81.4075C82.4702 81.2305 82.6137 81.0869 82.7906 81.0869H88.3147C88.4917 81.0869 88.6351 81.2305 88.6351 81.4075C88.6317 81.5832 88.4903 81.7248 88.3147 81.7282Z" fill="white"/>
<path d="M88.3407 83.7672H82.7589C82.5819 83.7672 82.4385 83.6237 82.4385 83.4466C82.4419 83.271 82.5834 83.1294 82.7589 83.126H88.3407C88.5176 83.126 88.6611 83.2695 88.6611 83.4466C88.6611 83.6237 88.5176 83.7672 88.3407 83.7672Z" fill="white"/>
<path d="M88.3789 85.8639H82.7267C82.5497 85.8639 82.4062 85.7204 82.4062 85.5433C82.4062 85.3662 82.5497 85.2227 82.7267 85.2227H88.3789C88.5559 85.2227 88.6993 85.3662 88.6993 85.5433C88.6959 85.7189 88.5545 85.8605 88.3789 85.8639Z" fill="white"/>
<path d="M88.4367 88.0055H82.6691C82.4921 88.0055 82.3486 87.862 82.3486 87.6849C82.3486 87.5078 82.4921 87.3643 82.6691 87.3643H88.4367C88.6136 87.3643 88.7571 87.5078 88.7571 87.6849C88.7537 87.8605 88.6122 88.0021 88.4367 88.0055Z" fill="white"/>
<path d="M88.4367 90.1989H82.6691C82.4921 90.1989 82.3486 90.0553 82.3486 89.8782C82.3486 89.7012 82.4921 89.5576 82.6691 89.5576H88.4367C88.6136 89.5576 88.7571 89.7012 88.7571 89.8782C88.7571 90.0553 88.6136 90.1989 88.4367 90.1989Z" fill="white"/>
<path d="M88.475 92.443H82.6241C82.4486 92.4396 82.3071 92.298 82.3037 92.1224C82.3037 91.9453 82.4472 91.8018 82.6241 91.8018H88.475C88.652 91.8018 88.7955 91.9453 88.7955 92.1224C88.7955 92.2995 88.652 92.443 88.475 92.443Z" fill="white"/>
<path d="M88.5133 94.7389H82.5919C82.4149 94.7389 82.2715 94.5954 82.2715 94.4183C82.2715 94.2412 82.4149 94.0977 82.5919 94.0977H88.5133C88.6903 94.0977 88.8337 94.2412 88.8337 94.4183C88.8337 94.5954 88.6903 94.7389 88.5133 94.7389Z" fill="white"/>
<rect x="82.5537" y="96.458" width="5.99831" height="0.641256" fill="white"/>
<rect x="82.5151" y="98.875" width="6.07521" height="0.641256" fill="white"/>
<rect x="82.4766" y="101.351" width="6.1457" height="0.641256" fill="white"/>
<rect x="82.4385" y="103.89" width="6.22901" height="0.641256" fill="white"/>
<rect x="82.3999" y="106.493" width="6.30592" height="0.641256" fill="white"/>
<rect x="82.355" y="109.167" width="6.38923" height="0.641256" fill="white"/>
<rect x="82.3164" y="111.918" width="6.47894" height="0.641256" fill="white"/>
<rect x="82.2715" y="114.733" width="6.56225" height="0.641256" fill="white"/>
<rect x="82.2271" y="117.632" width="6.65197" height="0.641256" fill="white"/>
<rect x="82.1821" y="120.607" width="6.7481" height="0.641256" fill="white"/>
<rect x="82.1309" y="123.673" width="6.83782" height="0.641256" fill="white"/>
<rect x="82.0796" y="126.821" width="6.94035" height="0.641256" fill="white"/>
<rect x="82.0347" y="130.06" width="7.03648" height="0.641256" fill="white"/>
<rect x="81.9834" y="133.394" width="7.13901" height="0.641256" fill="white"/>
<rect x="81.9258" y="136.831" width="7.24796" height="0.641256" fill="white"/>
<path d="M82.6691 142.025C85.0146 111.803 85.1428 51.5186 85.1428 51.5186H82.5281C78.8304 121.249 75.2802 138.088 74.0049 142.025H82.6691Z" fill="#E7816B"/>
<path fill-rule="evenodd" clip-rule="evenodd" d="M73.9919 142.32H82.6689C82.8126 142.312 82.9291 142.201 82.9445 142.057C85.2643 112.168 85.4246 52.1341 85.4246 51.5313C85.4232 51.4549 85.3935 51.3818 85.3412 51.3261C85.2854 51.2694 85.2093 51.2371 85.1298 51.2363H82.5151C82.3597 51.2396 82.2335 51.363 82.2267 51.5185C78.5547 120.704 75.0493 137.799 73.7163 141.936C73.6867 142.024 73.701 142.122 73.7548 142.198C73.8106 142.274 73.8982 142.319 73.9919 142.32ZM82.3934 141.73H74.402L74.3892 141.717C75.8119 136.953 79.2276 118.902 82.7971 51.8135H84.835C84.8222 56.4305 84.5915 112.861 82.3934 141.73Z" fill="#231F20"/>
<path d="M97.1071 142.025C95.8254 138.082 92.2816 121.249 88.5839 51.5186H85.9692C85.9692 51.5186 86.1038 111.797 88.4493 142.025H97.1071Z" fill="#E7816B"/>
<path fill-rule="evenodd" clip-rule="evenodd" d="M88.4364 142.32H97.1071C97.1994 142.315 97.2832 142.265 97.3313 142.186C97.3873 142.11 97.404 142.013 97.3762 141.923C96.0368 137.8 92.5378 120.704 88.8658 51.5058C88.8589 51.3479 88.7289 51.2235 88.571 51.2236H85.9563C85.8787 51.2247 85.8048 51.2571 85.7513 51.3134C85.699 51.3691 85.6693 51.4422 85.668 51.5186C85.668 52.1214 85.8218 112.156 88.148 142.045C88.1549 142.199 88.282 142.321 88.4364 142.32ZM96.7097 141.718H88.7184C86.5139 112.861 86.2768 56.4306 86.264 51.8008H88.3083C91.8713 118.889 95.2935 136.94 96.7097 141.718Z" fill="#231F20"/>
<path d="M77.773 48.6523H93.3327V50.4222C93.3327 51.0278 92.8421 51.5188 92.2369 51.5188H78.8624C78.2572 51.5188 77.7666 51.0278 77.7666 50.4222V48.6523L77.773 48.6523Z" fill="white"/>
<path fill-rule="evenodd" clip-rule="evenodd" d="M78.8625 51.8387H92.2369C93.0191 51.8387 93.6532 51.2042 93.6532 50.4215V48.6517C93.6532 48.4746 93.5097 48.3311 93.3328 48.3311H77.7731C77.5961 48.3311 77.4526 48.4746 77.4526 48.6517V50.4215C77.4526 51.2017 78.0828 51.8352 78.8625 51.8387ZM78.0935 50.4215V48.9723H93.0124V50.4215C93.0124 50.8501 92.6652 51.1975 92.2369 51.1975H78.8625C78.4367 51.1939 78.0935 50.8476 78.0935 50.4215Z" fill="#231F20"/>
<rect x="75.6709" y="38.8154" width="19.7573" height="10.818" rx="3.18" fill="#E7816B"/>
<path fill-rule="evenodd" clip-rule="evenodd" d="M77.7155 49.922H93.3906C94.6789 49.922 95.7232 48.877 95.7232 47.5879V40.8547C95.7232 39.5656 94.6789 38.5205 93.3906 38.5205H77.7155C76.4272 38.5205 75.3828 39.5656 75.3828 40.8547V47.5879C75.3828 48.877 76.4272 49.922 77.7155 49.922ZM76.4788 39.6255C76.8071 39.2982 77.2521 39.1152 77.7155 39.1169H93.3906C94.3518 39.1168 95.133 39.8928 95.1401 40.8547V47.5943C95.1401 48.5611 94.3568 49.3449 93.3906 49.3449H77.7155C76.7493 49.3449 75.966 48.5611 75.966 47.5943V40.8611C75.966 40.3974 76.1505 39.9528 76.4788 39.6255Z" fill="#231F20"/>
<path d="M96.018 41.8737H75.088C74.911 41.8737 74.7676 41.7301 74.7676 41.553C74.7676 41.376 74.911 41.2324 75.088 41.2324H96.018C96.195 41.2324 96.3384 41.376 96.3384 41.553C96.3384 41.7301 96.195 41.8737 96.018 41.8737Z" fill="#231F20"/>
<path d="M96.018 44.5416H75.088C74.911 44.5416 74.7676 44.3981 74.7676 44.221C74.7676 44.0439 74.911 43.9004 75.088 43.9004H96.018C96.1935 43.9038 96.335 44.0454 96.3384 44.221C96.3384 44.3981 96.195 44.5416 96.018 44.5416Z" fill="#231F20"/>
<path d="M96.018 47.2096H75.088C74.911 47.2096 74.7676 47.0661 74.7676 46.889C74.7676 46.7119 74.911 46.5684 75.088 46.5684H96.018C96.1935 46.5718 96.335 46.7133 96.3384 46.889C96.3384 47.0661 96.195 47.2096 96.018 47.2096Z" fill="#231F20"/>
<path d="M124.497 92.5592C124.32 92.5592 124.177 92.4157 124.177 92.2386V81.1898C124.177 81.0127 124.32 80.8691 124.497 80.8691C124.674 80.8691 124.818 81.0127 124.818 81.1898V92.2386C124.818 92.4157 124.674 92.5592 124.497 92.5592Z" fill="#231F20"/>
<rect x="121.209" y="93.7578" width="13.1565" height="48.2673" fill="white"/>
<path fill-rule="evenodd" clip-rule="evenodd" d="M121.21 142.359H134.366C134.453 142.359 134.537 142.323 134.597 142.26C134.658 142.198 134.69 142.113 134.687 142.025V93.7581C134.687 93.581 134.543 93.4375 134.366 93.4375H121.21C121.033 93.4375 120.889 93.581 120.889 93.7581V142.038C120.889 142.215 121.033 142.359 121.21 142.359ZM134.065 141.718H121.549L121.53 94.0788H134.065V141.718Z" fill="#231F20"/>
<rect x="121.209" y="91.2568" width="6.57507" height="2.5009" fill="#231F20"/>
<path fill-rule="evenodd" clip-rule="evenodd" d="M121.21 94.0787H127.785C127.962 94.0787 128.105 93.9351 128.105 93.758V91.2572C128.105 91.0801 127.962 90.9365 127.785 90.9365H121.21C121.033 90.9365 120.889 91.0801 120.889 91.2572V93.758C120.889 93.9351 121.033 94.0787 121.21 94.0787ZM127.464 93.4374H121.53V91.5778H127.464V93.4374Z" fill="#231F20"/>
<rect x="133.392" y="48.1709" width="39.4632" height="93.8542" fill="white"/>
<path fill-rule="evenodd" clip-rule="evenodd" d="M133.392 47.5303H172.855C173.209 47.5303 173.496 47.8174 173.496 48.1715V142.026C173.496 142.38 173.209 142.667 172.855 142.667H133.392C133.038 142.667 132.751 142.38 132.751 142.026V48.1715C132.751 47.8174 133.038 47.5303 133.392 47.5303ZM172.855 142.026V48.1715H133.392V142.026H172.855Z" fill="#231F20"/>
<rect x="133.392" y="55.167" width="39.4632" height="0.641256" fill="#D1D3D4"/>
<rect x="133.392" y="62.7217" width="39.4632" height="0.641256" fill="#D1D3D4"/>
<rect x="133.392" y="70.2812" width="39.4632" height="0.641256" fill="#D1D3D4"/>
<rect x="133.392" y="77.8359" width="39.4632" height="0.641256" fill="#D1D3D4"/>
<rect x="133.392" y="85.3965" width="39.4632" height="0.641256" fill="#D1D3D4"/>
<rect x="133.392" y="92.9502" width="39.4632" height="0.641256" fill="#D1D3D4"/>
<rect x="133.392" y="100.511" width="39.4632" height="0.641256" fill="#D1D3D4"/>
<rect x="133.392" y="108.064" width="39.4632" height="0.641256" fill="#D1D3D4"/>
<rect x="133.392" y="115.618" width="39.4632" height="0.641256" fill="#D1D3D4"/>
<rect x="133.392" y="123.179" width="39.4632" height="0.641256" fill="#D1D3D4"/>
<rect x="133.392" y="130.732" width="39.4632" height="0.641256" fill="#D1D3D4"/>
<rect x="143.806" y="41.1045" width="18.6358" height="100.921" fill="white"/>
<path fill-rule="evenodd" clip-rule="evenodd" d="M143.806 142.359H162.442C162.529 142.359 162.612 142.324 162.673 142.261C162.733 142.198 162.765 142.113 162.762 142.026V41.1048C162.762 40.9277 162.619 40.7842 162.442 40.7842H143.806C143.629 40.7842 143.485 40.9277 143.485 41.1048V142.038C143.485 142.216 143.629 142.359 143.806 142.359ZM162.134 141.718H144.126V41.4254H162.134V141.718Z" fill="#231F20"/>
<path d="M162.442 51.942H143.806C143.629 51.942 143.485 51.7985 143.485 51.6214C143.485 51.4443 143.629 51.3008 143.806 51.3008H162.442C162.619 51.3008 162.762 51.4443 162.762 51.6214C162.762 51.7985 162.619 51.942 162.442 51.942Z" fill="#231F20"/>
<path d="M162.442 59.4704H143.806C143.629 59.4704 143.485 59.3268 143.485 59.1497C143.485 58.9727 143.629 58.8291 143.806 58.8291H162.442C162.619 58.8291 162.762 58.9727 162.762 59.1497C162.762 59.3268 162.619 59.4704 162.442 59.4704Z" fill="#231F20"/>
<path d="M162.442 67.0241H143.806C143.629 67.0241 143.485 66.8805 143.485 66.7034C143.485 66.5264 143.629 66.3828 143.806 66.3828H162.442C162.619 66.3828 162.762 66.5264 162.762 66.7034C162.762 66.8805 162.619 67.0241 162.442 67.0241Z" fill="#231F20"/>
<path d="M162.442 74.5846H143.806C143.629 74.5846 143.485 74.4411 143.485 74.264C143.485 74.0869 143.629 73.9434 143.806 73.9434H162.442C162.619 73.9434 162.762 74.0869 162.762 74.264C162.762 74.4411 162.619 74.5846 162.442 74.5846Z" fill="#231F20"/>
<path d="M162.442 82.1383H143.806C143.629 82.1383 143.485 81.9948 143.485 81.8177C143.485 81.6406 143.629 81.4971 143.806 81.4971H162.442C162.619 81.4971 162.762 81.6406 162.762 81.8177C162.762 81.9948 162.619 82.1383 162.442 82.1383Z" fill="#231F20"/>
<path d="M162.442 89.6989H143.806C143.629 89.6989 143.485 89.5553 143.485 89.3782C143.485 89.2012 143.629 89.0576 143.806 89.0576H162.442C162.619 89.0576 162.762 89.2012 162.762 89.3782C162.762 89.5553 162.619 89.6989 162.442 89.6989Z" fill="#231F20"/>
<path d="M162.442 97.2526H143.806C143.629 97.2526 143.485 97.109 143.485 96.932C143.485 96.7549 143.629 96.6113 143.806 96.6113H162.442C162.619 96.6113 162.762 96.7549 162.762 96.932C162.762 97.109 162.619 97.2526 162.442 97.2526Z" fill="#231F20"/>
<path d="M162.442 104.807H143.806C143.629 104.807 143.485 104.664 143.485 104.487C143.485 104.31 143.629 104.166 143.806 104.166H162.442C162.619 104.166 162.762 104.31 162.762 104.487C162.762 104.664 162.619 104.807 162.442 104.807Z" fill="#231F20"/>
<path d="M162.442 112.367H143.806C143.629 112.367 143.485 112.223 143.485 112.046C143.485 111.869 143.629 111.726 143.806 111.726H162.442C162.619 111.726 162.762 111.869 162.762 112.046C162.762 112.223 162.619 112.367 162.442 112.367Z" fill="#231F20"/>
<path d="M162.442 119.915H143.806C143.629 119.915 143.485 119.771 143.485 119.594C143.485 119.417 143.629 119.273 143.806 119.273H162.442C162.619 119.273 162.762 119.417 162.762 119.594C162.762 119.771 162.619 119.915 162.442 119.915Z" fill="#231F20"/>
<path d="M162.442 127.482H143.806C143.629 127.482 143.485 127.339 143.485 127.161C143.485 126.984 143.629 126.841 143.806 126.841H162.442C162.619 126.841 162.762 126.984 162.762 127.161C162.762 127.339 162.619 127.482 162.442 127.482Z" fill="#231F20"/>
<rect x="146.542" y="38.1094" width="13.1565" height="3.02673" fill="#231F20"/>
<path fill-rule="evenodd" clip-rule="evenodd" d="M146.542 41.4635H159.699C159.876 41.4635 160.019 41.3199 160.019 41.1428V38.1097C160.019 37.9326 159.876 37.7891 159.699 37.7891H146.542C146.367 37.7925 146.225 37.934 146.222 38.1097V41.1428C146.225 41.3185 146.367 41.46 146.542 41.4635ZM159.378 40.8222H146.882L146.863 38.4303H159.378V40.8222Z" fill="#231F20"/>
<rect x="124.606" y="100.806" width="2.42239" height="0.641256" fill="#D1D3D4"/>
<rect x="127.938" y="108.077" width="2.42239" height="0.641256" fill="#D1D3D4"/>
<rect x="124.305" y="115.349" width="2.42239" height="0.641256" fill="#D1D3D4"/>
<rect x="125.516" y="126.257" width="2.42239" height="0.641256" fill="#D1D3D4"/>
<rect x="103.112" y="134.959" width="72.4604" height="7.06664" fill="#E7816B"/>
<path fill-rule="evenodd" clip-rule="evenodd" d="M103.112 142.32H175.592C175.755 142.32 175.887 142.188 175.887 142.025V134.971C175.887 134.894 175.855 134.819 175.8 134.765C175.744 134.711 175.669 134.681 175.592 134.683H103.112C102.952 134.683 102.821 134.811 102.817 134.971V142.025C102.821 142.187 102.951 142.317 103.112 142.32ZM175.284 141.717H103.407V135.241H175.284V141.717Z" fill="#231F20"/>
<path d="M122.574 130.72C122.574 130.72 126.829 126.129 139.345 126.129C151.861 126.129 156.11 130.72 156.11 130.72H122.574Z" fill="#E7816B"/>
<path fill-rule="evenodd" clip-rule="evenodd" d="M122.574 131.015H156.11C156.226 131.015 156.331 130.947 156.379 130.842C156.424 130.734 156.404 130.609 156.328 130.521C156.148 130.329 151.842 125.84 139.345 125.84C126.849 125.84 122.536 130.329 122.363 130.521C122.281 130.607 122.258 130.733 122.305 130.842C122.356 130.945 122.459 131.012 122.574 131.015ZM155.322 130.431H123.363C124.888 129.264 129.605 126.423 139.345 126.423C149.086 126.423 153.796 129.264 155.322 130.431Z" fill="#231F20"/>
<path fill-rule="evenodd" clip-rule="evenodd" d="M125.977 135.305H152.707C152.81 135.306 152.907 135.258 152.97 135.177L156.052 130.938C156.121 130.839 156.129 130.71 156.074 130.603C156.019 130.495 155.91 130.427 155.79 130.425H122.895C122.775 130.427 122.665 130.495 122.61 130.603C122.555 130.71 122.564 130.839 122.632 130.938L125.721 135.177C125.78 135.259 125.876 135.307 125.977 135.305ZM152.521 134.664H126.144L123.523 131.066H155.136L152.521 134.664Z" fill="#231F20"/>
<path d="M131.937 135.164L128.733 131.246L125.881 135.151L125.362 134.773L128.458 130.534C128.515 130.453 128.608 130.403 128.708 130.399C128.806 130.403 128.899 130.447 128.964 130.521L132.45 134.76L131.937 135.164Z" fill="#231F20"/>
<path d="M138.903 135.164L135.699 131.246L132.847 135.151L132.328 134.773L135.423 130.534C135.481 130.453 135.574 130.403 135.673 130.399C135.772 130.402 135.865 130.446 135.93 130.521L139.416 134.76L138.903 135.164Z" fill="#231F20"/>
<path d="M145.869 135.164L142.665 131.246L139.813 135.151L139.294 134.773L142.389 130.534C142.447 130.453 142.539 130.403 142.639 130.399C142.738 130.401 142.832 130.445 142.895 130.521L146.382 134.76L145.869 135.164Z" fill="#231F20"/>
<path d="M152.835 135.164L149.631 131.246L146.753 135.151L146.241 134.773L149.33 130.534C149.388 130.453 149.48 130.404 149.58 130.399C149.678 130.402 149.771 130.446 149.836 130.521L153.322 134.76L152.835 135.164Z" fill="#231F20"/>
<path d="M111.084 142.039H110.443C110.583 139.741 110.6 137.438 110.495 135.139C110.542 135.241 110.645 135.306 110.757 135.305V134.664L111.007 134.773C111.116 134.856 111.36 135.113 111.084 142.039Z" fill="#231F20"/>
<path d="M120.594 142.039H119.954C120.096 139.741 120.113 137.438 120.005 135.139C120.055 135.242 120.16 135.307 120.274 135.305V134.664L120.518 134.773C120.62 134.856 120.87 135.113 120.594 142.039Z" fill="#231F20"/>
<path d="M130.092 142.039H129.451C129.593 139.741 129.61 137.438 129.502 135.139C129.552 135.242 129.657 135.307 129.771 135.305V134.664L130.015 134.773C130.13 134.856 130.374 135.113 130.092 142.039Z" fill="#231F20"/>
<path d="M139.602 142.039H138.961C139.104 139.741 139.121 137.438 139.012 135.139C139.062 135.242 139.167 135.307 139.281 135.305V134.664L139.525 134.773C139.634 134.856 139.877 135.113 139.602 142.039Z" fill="#231F20"/>
<path d="M149.105 142.039H148.464C148.604 139.741 148.624 137.438 148.522 135.139C148.567 135.243 148.671 135.309 148.785 135.305V134.664L149.035 134.773C149.137 134.856 149.381 135.113 149.105 142.039Z" fill="#231F20"/>
<path d="M158.609 142.039H157.968C158.112 139.741 158.131 137.438 158.026 135.139C158.071 135.243 158.175 135.309 158.289 135.305V134.664L158.539 134.773C158.641 134.856 158.885 135.113 158.609 142.039Z" fill="#231F20"/>
<path d="M168.113 142.039H167.472C167.616 139.741 167.635 137.438 167.53 135.139C167.577 135.241 167.68 135.306 167.793 135.305V134.664L168.043 134.773C168.145 134.856 168.389 135.113 168.113 142.039Z" fill="#231F20"/>
<rect x="103.112" y="136.761" width="72.4604" height="0.641256" fill="#231F20"/>
<path d="M181.359 142.628H0.640735C0.463771 142.628 0.320312 142.484 0.320312 142.307C0.320312 142.13 0.463771 141.986 0.640735 141.986H181.359C181.536 141.986 181.679 142.13 181.679 142.307C181.679 142.484 181.536 142.628 181.359 142.628Z" fill="#231F20"/>
</svg>
