<svg width="182" height="93" viewBox="0 0 182 93" fill="none" xmlns="http://www.w3.org/2000/svg">
<path d="M153.347 45.8662H167.883C167.883 45.8662 177.421 65.5357 179.299 73.9638H153.347V45.8662Z" fill="#E7816B"/>
<path fill-rule="evenodd" clip-rule="evenodd" d="M153.346 74.2311H179.299C179.38 74.2316 179.458 74.1953 179.509 74.1323C179.558 74.0676 179.577 73.9852 179.561 73.9056C177.695 65.5124 168.221 45.9475 168.122 45.7499C168.08 45.6562 167.986 45.5968 167.883 45.5987H153.346C153.198 45.5987 153.078 45.7184 153.078 45.8661V73.9637C153.078 74.1114 153.198 74.2311 153.346 74.2311ZM178.966 73.7022H153.632L153.615 46.1277H167.714C168.589 47.947 177.041 65.6228 178.966 73.7022Z" fill="#231F20"/>
<path d="M154.321 67.4774L165.666 72.4936C165.666 72.4936 155.691 29.4811 136.208 10.0674C136.208 10.0674 129.401 15.2986 124.489 28.8708C123.241 32.3176 124.302 30.1496 124.221 30.7308L122.896 40.1064L154.321 67.4774Z" fill="#E7816B"/>
<path fill-rule="evenodd" clip-rule="evenodd" d="M165.562 72.7607C165.597 72.7661 165.632 72.7661 165.667 72.7607C165.731 72.7599 165.792 72.7373 165.842 72.6967C165.918 72.6332 165.952 72.5319 165.929 72.4352C165.83 72.0051 155.709 29.1495 136.395 9.88106C136.295 9.79225 136.145 9.79225 136.045 9.88106C135.975 9.93337 129.121 15.3157 124.238 28.8007C123.463 30.9501 123.533 30.992 123.754 31.1255L123.754 31.1257C123.797 31.1515 123.845 31.1674 123.894 31.1722L122.611 40.0596C122.598 40.1498 122.634 40.24 122.704 40.2979L154.128 67.698C154.146 67.7168 154.168 67.7308 154.193 67.7387L165.562 72.7607ZM165.299 72.0341L154.467 67.2504L123.177 39.9433L124.501 30.7421C124.545 30.5933 124.48 30.4338 124.343 30.3585H124.273C124.304 30.2719 124.343 30.1568 124.391 30.0135C124.478 29.7526 124.596 29.3982 124.758 28.9519C129.138 16.8154 135.1 11.3632 136.208 10.4216C154.152 28.5101 164.086 67.0935 165.299 72.0341Z" fill="#231F20"/>
<path d="M124.775 36.566C124.775 36.566 127.884 21.9068 136.343 13.7461C136.343 13.7461 149.374 24.7898 161.974 69.0113L121.013 66.7387C121.013 66.7387 121.818 44.2617 124.775 36.566Z" fill="#231F20"/>
<path fill-rule="evenodd" clip-rule="evenodd" d="M121.012 67.0295L161.974 69.3022C162.07 69.3279 162.172 69.3013 162.242 69.2325C162.302 69.1594 162.322 69.0614 162.295 68.9709C149.812 25.1447 136.704 13.6708 136.57 13.5604C136.46 13.4577 136.289 13.4577 136.179 13.5604C127.884 21.5409 124.658 35.8397 124.512 36.5023C121.598 44.1009 120.784 65.5228 120.739 66.7063L120.738 66.7273C120.732 66.8857 120.854 67.0202 121.012 67.0295ZM161.583 68.7035L121.333 66.4657C121.421 63.8327 122.325 43.7679 125.061 36.6709V36.6244C125.09 36.479 128.182 22.1919 136.348 14.1474C137.118 14.8798 140.128 17.9488 144.212 24.9877C148.581 32.4859 155.126 46.1452 161.583 68.7035Z" fill="#231F20"/>
<path d="M110.991 49.2146C110.991 49.2146 117.851 34.9449 126.367 26.6621C126.367 26.6621 137.118 35.067 144.118 44.0647C151.118 53.0625 157.535 69.012 157.535 69.012H111.615L110.991 49.2146Z" fill="white"/>
<path fill-rule="evenodd" clip-rule="evenodd" d="M111.615 69.3029H157.541L157.511 69.2796C157.608 69.2803 157.699 69.2334 157.753 69.1543C157.808 69.0752 157.82 68.9741 157.786 68.8844C157.739 68.7449 151.264 52.7954 144.322 43.8906C137.602 35.2695 127.305 27.0788 126.561 26.4867C126.536 26.4672 126.522 26.4559 126.519 26.4531C126.409 26.3568 126.244 26.3568 126.134 26.4531C117.85 34.5302 111.018 48.4373 110.709 49.066C110.704 49.0775 110.7 49.0845 110.699 49.087C110.69 49.1312 110.69 49.1766 110.699 49.2207L111.323 69.0239C111.329 69.1798 111.458 69.303 111.615 69.3029ZM157.109 68.7216H111.895L111.288 49.2788C111.298 49.259 111.31 49.2347 111.325 49.206C112.06 47.7365 118.535 34.7938 126.391 27.046C127.896 28.2492 137.515 36.0496 143.891 44.2452C150.109 52.2723 156.053 66.1932 157.109 68.7216Z" fill="#231F20"/>
<path d="M126.251 29.5039C126.251 29.5039 116.976 38.2227 113.575 50.1499C113.575 50.1499 153.364 64.1522 153.009 63.8035C152.653 63.4547 147.099 50.8939 140.759 43.5411C131.793 33.1309 126.251 29.5039 126.251 29.5039Z" fill="#231F20"/>
<path fill-rule="evenodd" clip-rule="evenodd" d="M133.151 57.323C149.66 63.0832 152.495 64.0539 153.078 64.0539C153.201 64.0539 153.23 64.0132 153.253 63.9609C153.329 63.8529 153.317 63.7061 153.224 63.6121C153.148 63.5133 152.816 62.8449 152.431 62.066L152.413 62.03C150.489 58.1679 146.027 49.2079 140.991 43.3498C132.09 33.0035 126.466 29.3009 126.408 29.2661C126.295 29.1908 126.146 29.2028 126.046 29.2951C125.953 29.3823 116.678 38.1999 113.295 50.069C113.249 50.2165 113.329 50.3738 113.476 50.4236C113.476 50.4236 123.305 53.882 133.151 57.323ZM152.431 63.3564C148.388 62.0834 126.181 54.3063 113.931 49.9876C117.075 39.2636 125.026 31.1203 126.291 29.8996C127.341 30.632 132.638 34.5322 140.566 43.745C145.557 49.5421 149.998 58.4729 151.908 62.3145L151.923 62.345L152.431 63.3564Z" fill="#231F20"/>
<path d="M116.743 37.002C116.743 37.002 135.491 39.8559 146.668 52.6201C152.373 59.1418 157.541 69.0114 157.541 69.0114H134.68L116.743 37.002Z" fill="#E7816B"/>
<path fill-rule="evenodd" clip-rule="evenodd" d="M134.68 69.2792H157.541C157.637 69.2788 157.725 69.2249 157.768 69.1397C157.815 69.0587 157.815 68.959 157.768 68.8781L157.765 68.8717C157.606 68.5708 152.458 58.8354 146.854 52.4345C135.747 39.7575 116.958 36.7408 116.772 36.7408C116.67 36.7272 116.57 36.7695 116.509 36.8512C116.459 36.9397 116.459 37.0476 116.509 37.136L134.447 69.1455C134.495 69.2285 134.584 69.2795 134.68 69.2792ZM157.097 68.7502H134.837L117.25 37.3627C120.412 37.9556 136.547 41.4664 146.463 52.7949C151.451 58.4912 156.077 66.8612 157.097 68.7502Z" fill="#231F20"/>
<path d="M106.593 50.1673C110.676 44.1571 113.009 40.35 116.743 37.002C123.713 41.1257 130.13 46.1139 135.841 51.8471C140.844 56.9314 145.078 62.7133 148.412 69.0114H97.376C97.376 69.0114 102.813 55.7124 106.593 50.1673Z" fill="white"/>
<path fill-rule="evenodd" clip-rule="evenodd" d="M97.3756 69.3028H148.411C148.509 69.3029 148.6 69.2522 148.651 69.1692C148.697 69.0799 148.697 68.9736 148.651 68.8843C145.292 62.5627 141.039 56.7547 136.021 51.6387C130.287 45.8936 123.849 40.8922 116.859 36.7528C116.753 36.69 116.617 36.7042 116.526 36.7877C113.312 39.6417 111.125 42.8908 108.103 47.3839C107.566 48.2093 106.983 49.0812 106.353 50.0053C102.596 55.5098 97.1598 68.7739 97.1073 68.9076C97.0693 68.9956 97.0803 69.0971 97.1365 69.175C97.1895 69.255 97.2794 69.3031 97.3756 69.3028ZM147.933 68.7216H97.8131C98.7523 66.4663 103.477 55.2482 106.837 50.3308L108.616 47.7094C111.562 43.321 113.709 40.1357 116.783 37.3632C123.651 41.466 129.984 46.3995 135.636 52.0513C140.491 57.0133 144.629 62.6238 147.933 68.7216Z" fill="#231F20"/>
<path d="M99.2368 69.0119C99.2368 69.0119 103.198 59.2702 108.121 51.5163C113.132 43.6288 117.005 39.8564 117.005 39.8564C117.005 39.8564 122.879 42.6348 132.586 52.1383C139.218 58.6308 145.378 68.9945 145.378 68.9945L99.2368 69.0119Z" fill="#231F20"/>
<path fill-rule="evenodd" clip-rule="evenodd" d="M99.2366 69.3028H145.378C145.489 69.3115 145.594 69.2545 145.647 69.1575C145.699 69.0676 145.699 68.9568 145.647 68.8669C145.643 68.8624 145.622 68.8276 145.584 68.7646C144.915 67.6669 139.042 58.0254 132.813 51.9292C123.188 42.5014 117.215 39.5951 117.157 39.5951C117.045 39.544 116.914 39.5647 116.824 39.6474C116.823 39.6491 116.814 39.6574 116.8 39.6722C116.461 40.0149 112.663 43.8612 107.899 51.3596C103.017 59.0263 99.0266 68.8087 98.9916 68.9075C98.9449 68.9906 98.9449 69.0919 98.9916 69.1749C99.0472 69.2551 99.1388 69.3029 99.2366 69.3028ZM144.859 68.7215H99.6741C100.473 66.8441 104.072 58.4334 108.366 51.6735C112.758 44.7566 116.311 40.9785 117.063 40.2112C118.131 40.7692 123.772 43.9138 132.382 52.3477C138.139 57.98 143.611 66.6814 144.859 68.7215Z" fill="#231F20"/>
<path d="M117.833 72.494H58.2226C58.2226 72.494 55.3818 46.919 56.7876 30.0627C58.1934 13.2065 66.9376 0.663086 66.9376 0.663086C66.9376 0.663086 89.0459 6.08034 102.34 27.3541C115.634 48.6278 117.833 72.494 117.833 72.494Z" fill="white"/>
<path fill-rule="evenodd" clip-rule="evenodd" d="M58.2223 72.7844H117.833C117.921 72.7929 118.008 72.7582 118.066 72.6914C118.123 72.6324 118.151 72.5517 118.142 72.4706L118.142 72.4692C118.111 72.1533 115.776 48.2673 102.591 27.1737C89.384 6.04531 67.229 0.40718 67.0073 0.354867C66.8898 0.320429 66.7636 0.367885 66.6982 0.471117C66.6107 0.581555 57.884 13.3109 56.4957 30.0102C55.2236 45.3111 57.4922 68.0536 57.8811 71.9521C57.9166 72.3084 57.9365 72.5073 57.9365 72.5287C57.9515 72.6745 58.0752 72.7852 58.2223 72.7844ZM117.53 72.2032H58.4848C58.1932 69.4713 55.7665 45.8028 57.0907 30.0335C58.3973 14.5199 66.0565 2.51712 67.0832 0.970992C69.2823 1.57549 89.6815 7.61468 102.095 27.4818C114.386 47.1455 117.203 69.2969 117.53 72.2032Z" fill="#231F20"/>
<path d="M117.833 72.4937H99.7501C99.7501 72.4937 97.5451 49.4123 88.6667 28.9349C79.7884 8.45741 66.9551 0.633789 66.9551 0.633789C66.9551 0.633789 89.0634 6.05104 102.358 27.3248C115.652 48.5985 117.833 72.4937 117.833 72.4937Z" fill="#E7816B"/>
<path fill-rule="evenodd" clip-rule="evenodd" d="M99.75 72.7604H117.833H117.921C117.996 72.7607 118.068 72.7294 118.119 72.6741C118.17 72.6188 118.196 72.5446 118.189 72.4698L118.189 72.4677C118.155 72.1189 115.825 48.2575 102.638 27.1846C89.4192 6.06199 67.2759 0.42968 67.0542 0.377367C66.9262 0.344682 66.7937 0.411909 66.745 0.534305C66.6967 0.653841 66.7409 0.790691 66.85 0.859805C66.8524 0.861491 66.861 0.867077 66.8757 0.876613C67.521 1.29449 79.8786 9.29683 88.4334 29.0446C97.1834 49.2431 99.4875 72.2896 99.4875 72.5221C99.5022 72.6561 99.6147 72.7583 99.75 72.7604ZM117.542 72.2315H99.96C99.6975 69.7147 97.195 47.9992 88.8767 28.8412C81.7659 12.4092 71.9659 4.01599 68.4134 1.36549C73.675 3.06274 91.0467 9.79362 102.095 27.4752C114.433 47.1971 117.233 69.4415 117.542 72.2315Z" fill="#231F20"/>
<path d="M97.3759 72.4932C97.3759 72.4932 93.6076 48.0109 88.6667 34.8747C81.4101 15.6934 67.6667 4.68457 67.6667 4.68457C67.6667 4.68457 61.8334 15.6934 60.5209 24.7726C59.6692 30.7711 58.9692 60.5834 60.5792 72.2258L97.3759 72.4932Z" fill="#231F20"/>
<path fill-rule="evenodd" clip-rule="evenodd" d="M60.5792 72.5169L97.3759 72.7843C97.4628 72.7876 97.5466 72.7512 97.6034 72.6855C97.6613 72.6205 97.687 72.533 97.6734 72.4472C97.6711 72.4353 97.66 72.3666 97.6404 72.245C97.2562 69.861 93.5968 47.1543 88.9234 34.788C81.7192 15.7404 67.9759 4.58622 67.8359 4.47578C67.7703 4.41896 67.6812 4.3973 67.5967 4.41765C67.512 4.43379 67.4391 4.48719 67.3984 4.56297C67.34 4.65015 61.5184 15.6939 60.2292 24.7323C59.4067 30.5507 58.6775 60.6071 60.2934 72.267C60.3136 72.4092 60.435 72.5154 60.5792 72.5169ZM97.0375 72.203L60.8359 71.9357C59.2725 60.1479 59.99 30.5739 60.8125 24.8253C61.9559 16.7402 66.7859 7.03328 67.7484 5.16747C76.8943 13.3481 83.9632 23.5729 88.375 35.003C92.9542 47.0988 96.5592 69.2038 97.0375 72.203Z" fill="#231F20"/>
<path d="M52.4998 20.7041C52.4998 20.7041 64.709 22.814 78.6273 32.4919C102.281 48.9412 110.501 72.4935 110.501 72.4935H48.6265C48.6265 72.4935 50.7498 27.528 52.4998 20.7041Z" fill="#E7816B"/>
<path fill-rule="evenodd" clip-rule="evenodd" d="M48.6267 72.7613H110.518V72.7148C110.605 72.7132 110.685 72.6712 110.736 72.6014C110.786 72.5317 110.801 72.4423 110.775 72.3602C110.773 72.3559 110.768 72.342 110.759 72.3189C110.341 71.1968 101.785 48.2348 78.8025 32.2539C64.9775 22.6459 52.675 20.4197 52.5525 20.4197C52.4138 20.3969 52.2803 20.4822 52.2433 20.6173C50.5108 27.3889 48.4283 70.6223 48.3408 72.459C48.3403 72.532 48.3674 72.6026 48.4167 72.6566C48.4674 72.7211 48.5445 72.7595 48.6267 72.7613ZM110.157 72.2265H48.9067C49.0875 68.4658 51.0825 28.1852 52.7392 21.0068C54.53 21.3671 65.8758 23.913 78.5167 32.7015C100.24 47.814 108.99 69.2273 110.157 72.2265Z" fill="#231F20"/>
<path d="M91.064 72.4935C91.064 72.4935 89.454 59.6479 78.5749 45.3259C67.6957 31.0039 52.4999 20.7041 52.4999 20.7041C52.4999 20.7041 45.984 29.8065 43.5632 40.6468C41.1424 51.4871 42.9799 72.4935 42.9799 72.4935H91.064Z" fill="white"/>
<path fill-rule="evenodd" clip-rule="evenodd" d="M42.9857 72.7838H91.064C91.1369 72.7797 91.2056 72.7486 91.2565 72.6966C91.3105 72.634 91.3359 72.5519 91.3265 72.4699C91.309 72.3304 89.559 59.3395 78.779 45.1511C68.0773 31.0658 53.0293 20.7212 52.663 20.4694C52.6604 20.4675 52.6585 20.4662 52.6574 20.4655C52.5265 20.3756 52.3476 20.4066 52.2549 20.5352C52.2539 20.5366 52.2515 20.54 52.2478 20.5453C51.9974 20.9016 45.6163 29.9833 43.2774 40.5825C41.0589 50.6361 42.4771 69.6019 42.6726 72.2163C42.6863 72.3997 42.694 72.5027 42.694 72.5164C42.7089 72.6665 42.8344 72.7815 42.9857 72.7838ZM90.7024 72.2025H43.254C43.0557 69.7496 41.6382 50.7253 43.8199 40.693C46.0132 30.9745 51.549 22.5928 52.5699 21.0932C54.5474 22.4882 68.3374 32.3578 78.3182 45.5057C88.0715 58.3339 90.3582 70.1158 90.7024 72.2025Z" fill="#231F20"/>
<path d="M88.264 70.7551C88.264 70.7551 85.0498 57.5956 72.059 42.0995C66.5477 35.5533 60.2243 29.731 53.2406 24.7725C53.2406 24.7725 47.2148 32.6833 45.704 42.7215C44.4673 50.9578 44.199 65.7215 44.1406 70.7551H88.264Z" fill="#231F20"/>
<path fill-rule="evenodd" clip-rule="evenodd" d="M44.1408 71.0462H88.2642C88.349 71.0431 88.4281 71.0026 88.48 70.9357C88.537 70.8657 88.5565 70.7726 88.5325 70.6858C88.5033 70.5521 85.155 57.2822 72.2692 41.9139C66.7327 35.3537 60.3908 29.5129 53.3925 24.5287C53.2661 24.4421 53.0936 24.4703 53.0017 24.5926C52.9492 24.6566 46.9233 32.6836 45.4183 42.6753C44.1992 50.7896 43.9133 65.0128 43.8492 70.7497C43.848 70.8285 43.8797 70.9043 43.9367 70.959C43.9909 71.0132 44.064 71.0444 44.1408 71.0462ZM87.8792 70.4649H44.4383C44.5083 64.5594 44.8 50.7024 45.9958 42.7625C47.3375 33.8461 52.3367 26.5282 53.3108 25.1681C60.1669 30.0962 66.3891 35.8452 71.8375 42.2859C83.4458 56.1371 87.255 68.2503 87.8792 70.4649Z" fill="#231F20"/>
<path d="M84.7527 72.4937C84.1694 70.2094 81.7369 62.3451 74.2527 51.0165C65.2869 37.4676 52.9961 33.4512 52.9961 33.4512H28.8169V34.3579L45.3369 72.4937H84.7527Z" fill="#E7816B"/>
<path fill-rule="evenodd" clip-rule="evenodd" d="M45.3366 72.7611H84.7524C84.8481 72.7648 84.9387 72.7186 84.9916 72.6391C85.0434 72.5757 85.0609 72.491 85.0383 72.4124C84.4724 70.2327 82.0399 62.2579 74.4974 50.8538C65.5841 37.3804 53.2291 33.2245 53.1066 33.1838C53.0777 33.1783 53.048 33.1783 53.0191 33.1838H28.8458C28.6999 33.187 28.5832 33.3058 28.5833 33.4512V34.3579C28.5777 34.3926 28.5777 34.4279 28.5833 34.4626L45.0916 72.5984C45.1322 72.6975 45.2292 72.7619 45.3366 72.7611ZM84.3908 72.2264H45.4999L29.0849 34.3056V33.7244H52.9374C53.7074 33.9859 65.4558 38.2291 74.0074 51.1619C81.1649 61.9789 83.6908 69.6747 84.3908 72.2264Z" fill="#231F20"/>
<path d="M72.0594 72.4937C68.7927 66.844 53.6669 42.6407 28.8169 33.4512C28.8169 33.4512 21.0469 50.0226 23.2577 72.4937H72.0594Z" fill="white"/>
<path fill-rule="evenodd" clip-rule="evenodd" d="M23.2576 72.7841H72.0593C72.1629 72.7835 72.2583 72.7282 72.3101 72.6388C72.3622 72.5489 72.3622 72.4381 72.3101 72.3481C69.4751 67.4715 54.0576 42.4777 28.9218 33.1777C28.7785 33.1242 28.618 33.1902 28.5543 33.3288C28.5537 33.3302 28.5526 33.3326 28.551 33.336C28.3565 33.7639 20.7901 50.4088 22.966 72.5225C22.9835 72.6703 23.1083 72.7822 23.2576 72.7841ZM71.5518 72.2028H23.526C21.5835 51.6673 28.041 35.9503 28.9685 33.8403C53.1068 42.8788 68.1685 66.4601 71.5518 72.2028Z" fill="#231F20"/>
<path d="M69.0844 72.4932C67.5852 69.6916 62.0844 61.7808 55.5919 54.5733C43.3944 41.0766 29.8144 36.6533 29.8144 36.6533C23.5085 53.9862 25.7777 67.1806 25.9002 72.4932H69.0844Z" fill="#231F20"/>
<path fill-rule="evenodd" clip-rule="evenodd" d="M25.9175 72.7837H69.0842V72.7953C69.1873 72.7956 69.2829 72.7416 69.3356 72.6532C69.3884 72.5649 69.3903 72.4554 69.3408 72.3652C67.9641 69.7961 62.5742 61.8794 55.8075 54.393C43.6975 40.9777 30.0417 36.4207 29.9017 36.3742C29.7524 36.3309 29.5948 36.4094 29.54 36.5544C24.1967 51.2833 25.0133 63.1233 25.4567 69.5171C25.472 69.7361 25.4876 69.9497 25.5028 70.1576C25.5682 71.0534 25.6258 71.8432 25.6258 72.4989C25.6258 72.5754 25.6567 72.6488 25.7116 72.7024C25.7665 72.7559 25.8407 72.7853 25.9175 72.7837ZM68.5883 72.2024H26.18C26.1583 71.4909 26.1016 70.6494 26.0376 69.7011C26.0326 69.6269 26.0276 69.552 26.0225 69.4764C25.585 63.1814 24.78 51.51 29.9892 37.0252C31.9492 37.7285 44.2925 42.518 55.3758 54.7649C61.7691 61.8446 66.9142 69.2962 68.5883 72.2024Z" fill="#231F20"/>
<path d="M171.657 72.4937L168.863 66.8672H78.3766L75.5999 72.4937H18.5791V92.3666H181.177V72.4937H171.657Z" fill="white"/>
<path fill-rule="evenodd" clip-rule="evenodd" d="M18.5793 92.6569H181.178C181.336 92.6537 181.463 92.5245 181.463 92.3662V72.4933C181.463 72.3328 181.333 72.2027 181.172 72.2027H171.838L169.126 66.7389C169.076 66.6401 168.975 66.5773 168.863 66.5762H78.3768C78.2652 66.576 78.1633 66.6391 78.1143 66.7389L75.4193 72.2027H18.5793C18.4182 72.2027 18.2876 72.3328 18.2876 72.4933V92.3662C18.2876 92.5267 18.4182 92.6569 18.5793 92.6569ZM180.886 92.0756H18.8709V72.7839H75.6001C75.7112 72.7828 75.8125 72.72 75.8626 72.6212L78.5576 67.1574H168.683L171.395 72.6212C171.445 72.72 171.546 72.7828 171.658 72.7839H180.886V92.0756Z" fill="#231F20"/>
<rect x="58.2227" y="72.4932" width="32.8417" height="19.8671" fill="#D1D3D4"/>
<path fill-rule="evenodd" clip-rule="evenodd" d="M58.2223 92.6573H91.064C91.2251 92.6573 91.3557 92.5272 91.3557 92.3667V72.4938C91.3557 72.3332 91.2251 72.2031 91.064 72.2031H58.2223C58.0626 72.2062 57.9338 72.3345 57.9307 72.4938V92.3667C57.9307 92.5272 58.0612 92.6573 58.2223 92.6573ZM90.7723 92.0761H58.514V72.7844H90.7723V92.0761Z" fill="#231F20"/>
<path d="M142.502 73.9639L164.191 92.3662H142.502V73.9639Z" fill="#D1D3D4"/>
<path fill-rule="evenodd" clip-rule="evenodd" d="M142.503 92.6571H164.191C164.313 92.6559 164.421 92.5797 164.462 92.4658C164.504 92.352 164.47 92.2244 164.378 92.1456L142.689 73.7433C142.602 73.6726 142.483 73.6569 142.38 73.7026C142.277 73.7486 142.21 73.8512 142.211 73.9641V92.3665C142.211 92.527 142.342 92.6571 142.503 92.6571ZM163.398 92.0759H142.794V74.5977L163.398 92.0759Z" fill="#231F20"/>
<rect x="13.8833" y="76.1035" width="44.3392" height="1.9995" fill="white"/>
<path fill-rule="evenodd" clip-rule="evenodd" d="M13.8893 78.3932H58.2227C58.3 78.3932 58.3742 78.3626 58.4289 78.3081C58.4836 78.2536 58.5143 78.1797 58.5143 78.1026V76.1031C58.5143 75.9426 58.3837 75.8125 58.2227 75.8125H13.8893C13.7282 75.8125 13.5977 75.9426 13.5977 76.1031V78.1026C13.6008 78.2618 13.7295 78.3902 13.8893 78.3932ZM57.9252 77.812H14.1752V76.3938H57.9252V77.812Z" fill="#231F20"/>
<rect x="9.60156" y="81.1777" width="48.6267" height="3.52238" fill="white"/>
<path fill-rule="evenodd" clip-rule="evenodd" d="M9.60173 84.9845H58.2226C58.3836 84.9845 58.5142 84.8544 58.5142 84.6939V81.1773C58.5142 81.0168 58.3836 80.8867 58.2226 80.8867H9.60173C9.44064 80.8867 9.31006 81.0168 9.31006 81.1773V84.6939C9.31006 84.8544 9.44064 84.9845 9.60173 84.9845ZM57.9309 84.4033H9.89339L9.91673 81.468H57.9309V84.4033Z" fill="#231F20"/>
<rect x="9.60156" y="83.2754" width="48.6267" height="4.38844" fill="#E7816B"/>
<path fill-rule="evenodd" clip-rule="evenodd" d="M9.60183 87.9262H58.2227C58.2933 87.9277 58.3616 87.9009 58.4121 87.8516C58.4626 87.8024 58.491 87.735 58.491 87.6646V83.2762C58.491 83.1285 58.3709 83.0088 58.2227 83.0088H9.60183C9.45363 83.0088 9.3335 83.1285 9.3335 83.2762V87.6646C9.33348 87.735 9.36193 87.8024 9.41243 87.8516C9.46293 87.9009 9.5312 87.9277 9.60183 87.9262ZM57.9602 87.3972H9.86433V83.5435H57.9602V87.3972Z" fill="#231F20"/>
<rect x="13.8833" y="78.1025" width="44.3392" height="3.07481" fill="#E7816B"/>
<path fill-rule="evenodd" clip-rule="evenodd" d="M13.8891 81.4388H58.2224C58.293 81.4403 58.3613 81.4135 58.4118 81.3643C58.4623 81.315 58.4908 81.2476 58.4908 81.1772V78.1024C58.4924 78.031 58.4646 77.9621 58.4139 77.9116C58.3633 77.8611 58.2941 77.8334 58.2224 77.835H13.8891C13.8184 77.835 13.7508 77.8634 13.7014 77.9137C13.652 77.964 13.625 78.032 13.6266 78.1024V81.1772C13.6266 81.3217 13.7441 81.4388 13.8891 81.4388ZM57.9599 80.9098H14.1516V78.364H57.9599V80.9098Z" fill="#231F20"/>
<rect x="18.5791" y="74.3066" width="39.6492" height="1.79606" fill="#E7816B"/>
<path fill-rule="evenodd" clip-rule="evenodd" d="M18.5559 76.3709H58.2226C58.3708 76.3709 58.4909 76.2511 58.4909 76.1035V74.3074C58.4909 74.2365 58.4627 74.1685 58.4123 74.1184C58.362 74.0682 58.2938 74.04 58.2226 74.04H18.5559C18.4848 74.04 18.4165 74.0682 18.3662 74.1184C18.3159 74.1685 18.2876 74.2365 18.2876 74.3074V76.1035C18.2876 76.2511 18.4077 76.3709 18.5559 76.3709ZM57.9601 75.8361H18.8418V74.5748H57.9601V75.8361Z" fill="#231F20"/>
<path d="M75.6001 72.4937H101.36L103.74 66.8672H78.3768L75.6001 72.4937Z" fill="#D1D3D4"/>
<path fill-rule="evenodd" clip-rule="evenodd" d="M75.5999 72.7839H101.36C101.473 72.7788 101.573 72.7085 101.617 72.6037L103.997 66.983C104.043 66.8979 104.043 66.795 103.997 66.7099C103.943 66.6267 103.851 66.5763 103.752 66.5762H78.3882C78.2767 66.576 78.1748 66.6391 78.1257 66.7389L75.349 72.3654C75.299 72.4517 75.299 72.5581 75.349 72.6444C75.4039 72.7299 75.4981 72.7823 75.5999 72.7839ZM101.15 72.2027H76.0665L78.5574 67.1574H103.285L101.15 72.2027Z" fill="#231F20"/>
<rect x="109.305" y="69.8838" width="38.4825" height="1.73794" fill="#E7816B"/>
<rect x="159.997" y="78.585" width="16.1875" height="1.27294" fill="#E7816B"/>
<rect x="0.822266" y="86.0596" width="57.4058" height="6.30656" fill="white"/>
<path fill-rule="evenodd" clip-rule="evenodd" d="M0.822428 92.6573H58.2224C58.3835 92.6573 58.5141 92.5272 58.5141 92.3667V86.0602C58.5141 85.8996 58.3835 85.7695 58.2224 85.7695H0.822428C0.661345 85.7695 0.530762 85.8996 0.530762 86.0602V92.3667C0.530762 92.5272 0.661345 92.6573 0.822428 92.6573ZM57.9308 92.0761H1.1141V86.3508H57.9308V92.0761Z" fill="#231F20"/>
<path d="M171.658 74.2319H142.491C142.387 74.2473 142.283 74.2005 142.226 74.1123C142.169 74.0241 142.169 73.9107 142.226 73.8225C142.283 73.7342 142.387 73.6875 142.491 73.7029H171.658C171.762 73.6875 171.865 73.7342 171.923 73.8225C171.98 73.9107 171.98 74.0241 171.923 74.1123C171.865 74.2005 171.762 74.2473 171.658 74.2319Z" fill="#231F20"/>
</svg>
